<svg width="18" height="18" viewBox="0 0 18 18" fill="none" xmlns="http://www.w3.org/2000/svg">
<path d="M9.6 0.999902C9.6 0.668531 9.33137 0.399902 9 0.399902C8.66863 0.399902 8.4 0.668531 8.4 0.999902V3.3999C8.4 3.73127 8.66863 3.9999 9 3.9999C9.33137 3.9999 9.6 3.73127 9.6 3.3999V0.999902Z" fill="#19388D"/>
<path d="M11.0576 8.04374C10.7504 7.9194 10.4006 8.06761 10.2763 8.37477C10.1519 8.68193 10.3001 9.03173 10.6073 9.15607C11.2588 9.4198 11.7799 9.94088 12.0437 10.5924C12.168 10.8996 12.5178 11.0478 12.8249 10.9235C13.1321 10.7991 13.2803 10.4493 13.156 10.1422C12.7703 9.18939 12.0103 8.42941 11.0576 8.04374Z" fill="#19388D"/>
<path fill-rule="evenodd" clip-rule="evenodd" d="M9 5.1999C5.13401 5.1999 2 8.33391 2 12.1999V16.3999H1C0.668629 16.3999 0.4 16.6685 0.4 16.9999C0.4 17.3313 0.668629 17.5999 1 17.5999H17C17.3314 17.5999 17.6 17.3313 17.6 16.9999C17.6 16.6685 17.3314 16.3999 17 16.3999H16V12.1999C16 8.33391 12.866 5.1999 9 5.1999ZM9.6 16.3999H14.8V12.1999C14.8 8.99665 12.2033 6.3999 9 6.3999C5.79675 6.3999 3.2 8.99665 3.2 12.1999V16.3999H8.4V15.0975C7.70089 14.8504 7.2 14.1836 7.2 13.3999C7.2 12.4058 8.00589 11.5999 9 11.5999C9.99411 11.5999 10.8 12.4058 10.8 13.3999C10.8 14.1836 10.2991 14.8504 9.6 15.0975V16.3999ZM9 13.9999C9.33137 13.9999 9.6 13.7313 9.6 13.3999C9.6 13.0685 9.33137 12.7999 9 12.7999C8.66863 12.7999 8.4 13.0685 8.4 13.3999C8.4 13.7313 8.66863 13.9999 9 13.9999Z" fill="#19388D"/>
<path d="M16.6243 3.77564C16.8586 4.00995 16.8586 4.38985 16.6243 4.62417L15.4243 5.82417C15.1899 6.05848 14.8101 6.05848 14.5757 5.82417C14.3414 5.58985 14.3414 5.20995 14.5757 4.97564L15.7757 3.77564C16.0101 3.54132 16.3899 3.54132 16.6243 3.77564Z" fill="#19388D"/>
<path d="M2.22426 3.77564C1.98995 3.54132 1.61005 3.54132 1.37574 3.77564C1.14142 4.00995 1.14142 4.38985 1.37574 4.62417L2.57574 5.82417C2.81005 6.05848 3.18995 6.05848 3.42426 5.82417C3.65858 5.58985 3.65858 5.20995 3.42426 4.97564L2.22426 3.77564Z" fill="#19388D"/>
</svg>
