<svg width="40" height="40" viewBox="0 0 40 40" fill="none" xmlns="http://www.w3.org/2000/svg">
<circle cx="20" cy="20" r="20" fill="#F2F2F2"/>
<path d="M31.5 25.4093C31.5 25.4299 31.5 25.4476 31.5 25.4682C31.4828 25.5065 31.4599 25.5447 31.4456 25.5859C30.8814 27.3436 30.031 28.9452 28.9514 30.4203C28.4532 31.1004 27.9406 31.7628 27.2848 32.2898C26.4916 32.9287 25.6097 33.2201 24.5988 33.0376C24.0147 32.9316 23.4563 32.7314 22.9093 32.4988C22.2765 32.2309 21.6236 32.0337 20.9392 31.9748C20.146 31.9071 19.3815 32.0513 18.6369 32.3163C18.1473 32.49 17.6691 32.702 17.1737 32.8639C16.83 32.9787 16.4721 33.0406 16.1227 33.1259C15.9309 33.1259 15.7419 33.1259 15.55 33.1259C15.3439 33.07 15.132 33.0288 14.9315 32.9581C14.2758 32.7255 13.7546 32.281 13.2707 31.7893C12.5319 31.0415 11.9277 30.1818 11.3635 29.2956C9.6855 26.6517 8.72335 23.7576 8.52863 20.6044C8.43986 19.1647 8.56013 17.7427 9.02402 16.3678C9.55091 14.8044 10.4014 13.4766 11.7243 12.5021C12.9242 11.6189 14.2586 11.1507 15.7419 11.2008C16.4435 11.2243 17.1078 11.4452 17.7664 11.6836C18.4164 11.9192 19.0693 12.1518 19.7222 12.3843C20.0315 12.4933 20.3379 12.4874 20.6471 12.3755C21.2599 12.1488 21.8785 11.9339 22.4941 11.7101C23.6309 11.2921 24.7792 10.9888 26.0048 11.1655C27.0701 11.3215 28.0809 11.6247 28.9944 12.2254C29.7045 12.6905 30.2887 13.2882 30.7669 14.0125C30.7182 14.0448 30.6753 14.0772 30.6323 14.1067C29.8391 14.6366 29.1461 15.2755 28.6336 16.0999C27.6886 17.6249 27.5282 19.2884 27.8833 21.0196C28.1811 22.474 28.9629 23.6281 30.0825 24.5496C30.5149 24.897 30.9788 25.2032 31.5 25.4093Z" fill="black"/>
<path d="M25.6298 4.12305C25.6699 4.67655 25.6555 5.23005 25.5553 5.77767C25.3205 7.06427 24.7249 8.15655 23.8687 9.11046C23.2158 9.83767 22.4569 10.3941 21.5177 10.662C21.0538 10.7945 20.5842 10.8446 20.1031 10.8181C19.9886 10.8122 19.9657 10.7651 19.9599 10.6591C19.8626 9.17817 20.3179 7.88274 21.1741 6.71097C22.1878 5.32427 23.5451 4.50579 25.1916 4.16721C25.4121 4.13482 25.561 4.12305 25.6298 4.12305Z" fill="black"/>
</svg>
