<svg width="23" height="14" viewBox="0 0 23 14" fill="none" xmlns="http://www.w3.org/2000/svg">
<path fill-rule="evenodd" clip-rule="evenodd" d="M20.2378 2.57235C20.2378 2.17172 19.7902 1.93379 19.4581 2.15791L13.3937 6.25079C13.1 6.44902 13.1 6.88144 13.3937 7.07967L19.4581 11.1725C19.7902 11.3967 20.2378 11.1587 20.2378 10.7581V2.57235ZM18.3393 0.50014C19.9997 -0.620468 22.2378 0.569177 22.2378 2.57235V10.7581C22.2378 12.7613 19.9996 13.9509 18.3392 12.8303L12.2748 8.73745C12.1734 8.66901 12.079 8.59498 11.9916 8.51614V10.7581C11.9916 12.7613 9.75348 13.9509 8.09308 12.8303L2.02868 8.73745C0.560062 7.74628 0.560068 5.58418 2.02868 4.59301L8.09308 0.500141C9.75348 -0.620467 11.9916 0.569178 11.9916 2.57236V4.81432C12.079 4.73548 12.1734 4.66146 12.2748 4.59301L18.3393 0.50014ZM9.99162 2.57236C9.99162 2.17172 9.544 1.93379 9.21191 2.15791L3.14751 6.25079C2.85379 6.44902 2.85379 6.88144 3.14751 7.07967L9.21191 11.1725C9.54399 11.3967 9.99162 11.1587 9.99162 10.7581V2.57236Z" fill="white"/>
</svg>
