<svg width="20" height="20" viewBox="0 0 20 20" fill="none" xmlns="http://www.w3.org/2000/svg">
<path d="M9.97585 18.9985C8.76754 19.0033 7.61197 18.7683 6.50435 18.2982C6.32694 18.2215 6.16871 18.2119 5.98171 18.2647C4.8693 18.586 3.72812 18.6819 2.57255 18.7059C2.34719 18.7107 2.12662 18.7155 1.90126 18.7251C1.68549 18.7299 1.53206 18.6579 1.46973 18.4325C1.41219 18.2167 1.50808 18.0824 1.67111 17.9673C2.47665 17.387 2.86983 16.6004 2.83147 15.6076C2.82668 15.4973 2.78352 15.3726 2.71639 15.2814C1.82455 14.0584 1.25875 12.7059 1.07654 11.2143C0.755287 8.53803 1.44096 6.14475 3.21506 4.09678C4.72545 2.35578 6.6482 1.3294 8.93536 1.06081C13.6487 0.504456 17.873 3.65074 18.784 8.13036C19.4505 11.3965 18.5395 14.2407 16.1373 16.5524C14.4351 18.1975 12.3445 18.9793 9.97585 18.9985ZM2.88422 17.9289C3.16232 17.9097 3.38288 17.9001 3.60345 17.881C4.3994 17.809 5.19535 17.7275 5.95294 17.4541C6.15433 17.3822 6.32694 17.387 6.52353 17.4781C8.19695 18.2455 9.93749 18.4421 11.7356 18.044C15.7729 17.1519 18.5587 13.387 18.1847 9.29103C18.0025 7.29582 17.2161 5.56441 15.7872 4.17832C13.6823 2.13036 11.1506 1.39175 8.25928 1.96249C4.75422 2.64834 1.94921 5.91933 1.78139 9.48767C1.68549 11.5212 2.23211 13.3534 3.45001 14.9841C3.51714 15.0752 3.57947 15.1951 3.58427 15.3054C3.59865 15.622 3.60824 15.9481 3.57468 16.2599C3.50755 16.8594 3.2774 17.3965 2.88422 17.9289Z" fill="black" stroke="black" stroke-width="0.2"/>
<path d="M13.5214 10.8762C13.0847 10.8699 12.7431 10.5028 12.7557 10.0724C12.7684 9.65465 13.1227 9.3192 13.5467 9.32553C13.9769 9.33186 14.3313 9.69896 14.3123 10.1294C14.287 10.5471 13.9326 10.8825 13.5214 10.8762Z" fill="black"/>
<path d="M7.21753 10.1167C7.21121 10.5471 6.87584 10.8762 6.45189 10.8762C6.01528 10.8762 5.67992 10.5281 5.68625 10.0851C5.69257 9.65467 6.02161 9.33187 6.45189 9.33187C6.8885 9.32554 7.22386 9.67365 7.21753 10.1167Z" fill="black"/>
<path d="M9.98962 9.32568C10.4199 9.32568 10.7616 9.68013 10.7553 10.1232C10.7489 10.5409 10.4072 10.8764 9.9833 10.8764C9.55934 10.8764 9.22398 10.5472 9.21765 10.1168C9.21765 9.6738 9.55302 9.32568 9.98962 9.32568Z" fill="black"/>
</svg>
