<svg id="Capa_1" enable-background="new 0 0 512 512" height="512" viewBox="0 0 512 512" width="512" xmlns="http://www.w3.org/2000/svg"><g><path clip-rule="evenodd" d="m97.882 75.294c-20.792 0-37.647-16.855-37.647-37.647s16.856-37.647 37.647-37.647 37.647 16.855 37.647 37.647-16.855 37.647-37.647 37.647zm37.647 40.304c46.639-12.999 96.009-11.25 142.74 14.24 41.852 22.829 86.798 22.829 129.212 8.948 6.199-2.029 11.756-4.194 16.569-6.342 2.786-1.243 4.635-2.164 5.445-2.606 10.035-5.473 22.27 1.79 22.27 13.22v210.824c0 5.511-3.01 10.581-7.848 13.22-5.363 2.926-14.626 7.059-27.067 11.131-49.612 16.237-102.827 16.237-153.002-11.131-41.558-22.668-86.167-22.827-128.318-9.238v-242.266zm-52.705-19.613c4.813 1.239 9.859 1.898 15.059 1.898s10.246-.659 15.059-1.898v408.486c0 4.159-3.371 7.529-7.529 7.529h-15.06c-4.158 0-7.529-3.371-7.529-7.529z" fill-rule="evenodd"/></g></svg>