<svg width="389" height="146" viewBox="0 0 389 146" fill="none" xmlns="http://www.w3.org/2000/svg">
<rect width="389" height="146" fill="white"/>
<g filter="url(#filter0_dd_302_385)">
<path d="M133.352 52.1484H141.184V83.6328L138.859 85.0391H131.223V73.2422H126.438V83.6328L124.133 85.0391H116.496V53.7695L118.625 52.1484H126.438V63.9648H131.223V53.7695L133.352 52.1484ZM131.223 64.2383H126.34L124.328 65.5859H131.223V64.2383ZM126.164 64.0234V52.5586L124.133 53.9453V65.3906L126.164 64.0234ZM118.723 52.4219L116.965 53.7695H123.879L125.871 52.4219H118.723ZM126.164 83.4766V73.2422H124.133V84.7266L126.164 83.4766ZM135.305 81.1719V57.5977H134.758V69.1406H120.578V57.5977H120.031V81.1719H120.578V69.6875H134.758V81.1719H135.305ZM138.645 53.7695L140.598 52.4219H133.449L131.691 53.7695H138.645ZM140.91 83.4766V52.5586L138.859 53.9453V84.7266L140.91 83.4766ZM167.16 63.4766V72.3242C167.16 73.8346 166.874 75.2799 166.301 76.6602C165.728 78.0404 164.908 79.2643 163.84 80.332C162.863 81.3086 161.77 82.0703 160.559 82.6172C158.553 84.2057 156.255 85 153.664 85C152.167 85 150.734 84.7201 149.367 84.1602C148 83.5872 146.789 82.7734 145.734 81.7188C144.68 80.6641 143.872 79.4596 143.312 78.1055C142.753 76.7383 142.473 75.306 142.473 73.8086V64.9609C142.473 62.9557 142.967 61.1003 143.957 59.3945C144.96 57.6888 146.294 56.3411 147.961 55.3516C149.003 54.349 150.201 53.5677 151.555 53.0078C152.909 52.4349 154.335 52.1484 155.832 52.1484C157.368 52.1484 158.833 52.4479 160.227 53.0469C161.633 53.6458 162.837 54.4531 163.84 55.4688C164.855 56.4714 165.663 57.6758 166.262 59.082C166.861 60.4753 167.16 61.9401 167.16 63.4766ZM148.254 79.2188C149.738 80.7031 151.535 81.4453 153.645 81.4453C155.754 81.4453 157.557 80.7031 159.055 79.2188C160.552 77.7214 161.301 75.918 161.301 73.8086V64.9609C161.301 62.8516 160.552 61.0547 159.055 59.5703C157.557 58.0729 155.754 57.3242 153.645 57.3242C151.535 57.3242 149.732 58.0729 148.234 59.5703C146.75 61.0547 146.008 62.8516 146.008 64.9609V73.8086C146.008 75.918 146.757 77.7214 148.254 79.2188ZM163.645 80.1367C164.686 79.0951 165.487 77.9036 166.047 76.5625C166.607 75.2083 166.887 73.7956 166.887 72.3242V63.4766C166.887 61.4844 166.392 59.6419 165.402 57.9492C164.413 56.2435 163.065 54.8958 161.359 53.9062C159.667 52.9167 157.824 52.4219 155.832 52.4219C153.293 52.4219 151.021 53.2161 149.016 54.8047C150.539 54.1146 152.089 53.7695 153.664 53.7695C155.682 53.7695 157.551 54.2708 159.27 55.2734C160.988 56.276 162.349 57.6367 163.352 59.3555C164.354 61.0742 164.855 62.9427 164.855 64.9609V73.8086C164.855 75.306 164.569 76.7383 163.996 78.1055C163.436 79.4596 162.629 80.6641 161.574 81.7188C161.561 81.7318 161.535 81.7513 161.496 81.7773C161.47 81.8034 161.451 81.8229 161.438 81.8359C162.258 81.3542 162.993 80.7878 163.645 80.1367ZM148.625 59.9609C150.018 58.5677 151.691 57.8711 153.645 57.8711C155.598 57.8711 157.271 58.5677 158.664 59.9609C160.057 61.3411 160.754 63.0078 160.754 64.9609V73.8086C160.754 75.7617 160.057 77.4349 158.664 78.8281C157.284 80.2083 155.611 80.8984 153.645 80.8984C151.678 80.8984 150.005 80.2083 148.625 78.8281C147.245 77.4479 146.555 75.7747 146.555 73.8086V64.9609C146.555 63.0078 147.245 61.3411 148.625 59.9609ZM156.164 76.3281C156.242 76.25 156.346 76.1198 156.477 75.9375C156.19 75.9896 155.975 76.0156 155.832 76.0156C154.829 76.0156 153.964 75.651 153.234 74.9219C152.505 74.1927 152.141 73.3268 152.141 72.3242L152.16 63.4766C152.16 62.7865 152.342 62.1484 152.707 61.5625C151.952 61.7839 151.327 62.207 150.832 62.832C150.35 63.457 150.109 64.1667 150.109 64.9609V73.8086C150.109 74.7982 150.454 75.638 151.145 76.3281C151.835 77.0182 152.674 77.3633 153.664 77.3633C154.641 77.3633 155.474 77.0182 156.164 76.3281ZM156.711 75.6055C157.036 75.0326 157.199 74.4336 157.199 73.8086V64.9609C157.199 63.9844 156.854 63.151 156.164 62.4609C155.474 61.7708 154.641 61.4258 153.664 61.4258C153.469 61.4258 153.273 61.4453 153.078 61.4844C152.635 62.0964 152.414 62.7604 152.414 63.4766V72.3242C152.414 73.2617 152.753 74.069 153.43 74.7461C154.094 75.4102 154.895 75.7422 155.832 75.7422C156.105 75.7422 156.398 75.6966 156.711 75.6055ZM201.242 52.1484H207.824V83.6328L205.52 85.0586L205.5 85.0391H197.863V73.2812L191.711 83.6328L189.465 85H184.484L178.391 74.7266V83.6328L176.086 85.0391H176.066L176.047 85.0586L176.027 85.0391H168.449V53.7695L170.578 52.1484H177.102L177.141 52.2266L188.645 71.582L199.113 53.7695H199.133L201.242 52.1484ZM188.488 71.8359L176.984 52.4805L174.914 53.9062L187.043 74.2969L188.488 71.8359ZM170.656 52.4219L168.879 53.7695H174.621L176.574 52.4219H170.656ZM178.117 83.4766V74.2578L176.086 70.8398V84.7266L178.117 83.4766ZM197.863 72.7539V70.8398L189.758 84.4922L191.535 83.418L197.863 72.7539ZM201.418 81.1719H201.965V57.3242H201.125L187.141 80.8984H186.809L172.902 57.4609L172.824 57.3242H171.984V81.1719H172.531V57.9102L186.418 81.3281L186.516 81.4453H187.434L201.418 57.9102V81.1719ZM205.344 53.7695L207.258 52.4219H201.32L199.582 53.7695H205.344ZM207.551 83.4766V52.5586L205.5 53.9844V84.7461L207.551 83.4766ZM236.281 83.5742L233.938 84.9805V85H233.898H225.949L224.855 81.3672H220.031L219.348 83.5938L217.062 85H217.043H209.074L218.625 53.7695H218.664L220.754 52.1484H226.672L226.711 52.2461L236.281 83.5742ZM220.852 52.4219L219.094 53.7695H224.211L226.145 52.4219H220.852ZM219.113 83.418L219.738 81.3867H218.176L217.18 84.6094L219.113 83.418ZM228.547 81.1719H229.113L221.867 57.5977H221.184L213.938 81.1719H214.504L215.539 77.8125H227.512L228.547 81.1719ZM233.859 84.707L235.969 83.457L226.496 52.5195L224.445 53.9453L233.859 84.707ZM215.715 77.2656L221.535 58.3203L227.355 77.2656H215.715ZM220.48 73.8086H222.551L221.516 70.4297L220.48 73.8086Z" fill="#4A3AFF"/>
<path d="M239.68 52.1484H261.828V60.0195L259.504 61.4258H254.719V83.6328L252.414 85.0391H244.777V61.4258H237.551V53.7695L239.68 52.1484ZM254.445 83.4766V61.4258H252.414V84.7266L254.445 83.4766ZM258.137 57.8711V57.3242H238.898V57.8711H248.254L248.312 81.1719H248.859L248.801 57.8711H258.137ZM259.367 53.7695L261.398 52.4219H239.758L238 53.7695H259.367ZM261.555 59.8633V52.6172L259.504 53.9648V61.0938L261.555 59.8633ZM285.188 61.5039L273 61.5234V63.3203H280.383V71.1719L278.078 72.5781H273V75.8398H287.512V83.6914L285.188 85.0977H263.059V53.8867L265.188 52.2461H287.512V60.1172L285.188 61.5039ZM287.238 59.9609V52.6562L285.188 54.0234V61.1914L287.238 59.9609ZM265.285 52.5195L263.508 53.8867H284.934L286.926 52.5195H265.285ZM287.238 83.5352V76.2305L285.188 77.6172V84.7656L287.238 83.5352ZM286.926 76.1133H272.922L270.93 77.4609H284.953L286.926 76.1133ZM270.695 77.2852L272.727 75.8984V72.5781H270.695V77.2852ZM280.109 71.0156V63.7109L278.078 65.1367V72.2461L280.109 71.0156ZM279.816 63.5742H272.922L270.91 64.9414H277.863L279.816 63.5742ZM270.695 64.7461L272.727 63.3789V61.5234H270.695V64.7461ZM267.141 57.9688H281.379V57.4219H266.594V81.5625H281.359V81.0156H267.141V69.0234H274.25V68.4766H267.141V57.9688ZM313.449 63.4766V63.5547L311.145 64.9414V64.9609H303.508C303.508 63.9844 303.156 63.151 302.453 62.4609C301.763 61.7708 300.93 61.4258 299.953 61.4258C299.706 61.4258 299.517 61.4388 299.387 61.4648C298.944 62.0768 298.723 62.7474 298.723 63.4766V72.3242C298.723 73.2747 299.055 74.082 299.719 74.7461C300.37 75.3971 301.177 75.7227 302.141 75.7227C302.44 75.7227 302.727 75.6836 303 75.6055C303.339 75.0195 303.508 74.4206 303.508 73.8086L305.637 72.1875H313.449V72.3242C313.449 73.8346 313.163 75.2799 312.59 76.6602C312.03 78.0404 311.216 79.2643 310.148 80.332C309.185 81.2956 308.085 82.0573 306.848 82.6172C304.842 84.2057 302.544 85 299.953 85C298.456 85 297.023 84.7201 295.656 84.1602C294.302 83.5872 293.098 82.7734 292.043 81.7188C290.988 80.6641 290.174 79.4596 289.602 78.1055C289.042 76.7383 288.762 75.306 288.762 73.8086L288.781 64.9609C288.781 62.9427 289.276 61.0872 290.266 59.3945C291.255 57.7018 292.59 56.3542 294.27 55.3516C295.298 54.349 296.49 53.5677 297.844 53.0078C299.211 52.4479 300.643 52.168 302.141 52.168C304.185 52.168 306.073 52.6758 307.805 53.6914C309.549 54.694 310.923 56.0677 311.926 57.8125C312.941 59.5443 313.449 61.4323 313.449 63.4766ZM309.953 80.1367C312.036 78.0534 313.111 75.5404 313.176 72.5977L311.125 74.0234C311.099 75.4688 310.806 76.8555 310.246 78.1836C309.686 79.5117 308.892 80.6901 307.863 81.7188C307.85 81.7318 307.824 81.7513 307.785 81.7773C307.759 81.8034 307.74 81.8229 307.727 81.8359C308.573 81.3411 309.315 80.7747 309.953 80.1367ZM305.734 72.4609L303.957 73.8086H310.949L312.883 72.4609H305.734ZM298.449 63.4766C298.449 62.7865 298.632 62.1484 298.996 61.5625C298.241 61.7839 297.616 62.207 297.121 62.832C296.639 63.457 296.398 64.1667 296.398 64.9609V73.8086C296.398 74.7852 296.75 75.625 297.453 76.3281C298.13 77.0052 298.964 77.3438 299.953 77.3438C300.956 77.3438 301.796 77.0052 302.473 76.3281C302.551 76.25 302.655 76.1198 302.785 75.9375C302.564 75.9766 302.349 75.9961 302.141 75.9961C301.099 75.9961 300.227 75.6445 299.523 74.9414C298.807 74.2253 298.449 73.3529 298.449 72.3242V63.4766ZM306.008 61.2695L306.477 60.9766C305.773 59.8307 304.842 58.9388 303.684 58.3008C302.538 57.6497 301.294 57.3242 299.953 57.3242C297.844 57.3242 296.04 58.0729 294.543 59.5703C293.046 61.0547 292.297 62.8516 292.297 64.9609V73.8086C292.297 75.918 293.046 77.7214 294.543 79.2188C296.027 80.7031 297.831 81.4453 299.953 81.4453C301.307 81.4453 302.57 81.1133 303.742 80.4492C304.927 79.7721 305.858 78.8542 306.535 77.6953L306.066 77.4023C305.428 78.4831 304.562 79.3359 303.469 79.9609C302.375 80.5859 301.203 80.8984 299.953 80.8984C297.987 80.8984 296.314 80.2083 294.934 78.8281C293.54 77.4349 292.844 75.7617 292.844 73.8086V64.9609C292.844 63.0078 293.54 61.3411 294.934 59.9609C296.327 58.5677 298 57.8711 299.953 57.8711C301.19 57.8711 302.342 58.1706 303.41 58.7695C304.491 59.3685 305.357 60.2018 306.008 61.2695ZM311.125 64.6289L313.176 63.3984C313.163 61.9141 312.863 60.4948 312.277 59.1406C311.691 57.7865 310.904 56.6211 309.914 55.6445C308.938 54.668 307.772 53.8932 306.418 53.3203C305.064 52.7344 303.638 52.4414 302.141 52.4414C299.589 52.4414 297.316 53.2292 295.324 54.8047C296.822 54.1276 298.365 53.7891 299.953 53.7891C301.438 53.7891 302.857 54.0755 304.211 54.6484C305.578 55.2083 306.757 55.9766 307.746 56.9531C308.736 57.9167 309.536 59.069 310.148 60.4102C310.76 61.7383 311.086 63.1445 311.125 64.6289ZM331.594 52.1484H339.426V83.6328L337.102 85.0391H329.465V73.2422H324.68V83.6328L322.375 85.0391H314.738V53.7695L316.867 52.1484H324.68V63.9648H329.465V53.7695L331.594 52.1484ZM329.465 64.2383H324.582L322.57 65.5859H329.465V64.2383ZM324.406 64.0234V52.5586L322.375 53.9453V65.3906L324.406 64.0234ZM316.965 52.4219L315.207 53.7695H322.121L324.113 52.4219H316.965ZM324.406 83.4766V73.2227H322.375V84.7266L324.406 83.4766ZM333.547 81.1719V57.5977H333V69.1406H318.82V57.5977H318.273V81.1719H318.82V69.6875H333V81.1719H333.547ZM336.887 53.7695L338.84 52.4219H331.691L329.934 53.7695H336.887ZM339.152 83.4766V52.5586L337.102 53.9453V84.7266L339.152 83.4766Z" fill="#191B8D"/>
</g>
<rect x="26" y="28" width="335" height="80" rx="18.7545" stroke="url(#paint0_linear_302_385)" stroke-width="4"/>
<mask id="mask0_302_385" style="mask-type:alpha" maskUnits="userSpaceOnUse" x="46" y="39" width="58" height="58">
<circle cx="74.5918" cy="67.5918" r="28.5918" fill="#C4C4C4"/>
</mask>
<g mask="url(#mask0_302_385)">
<circle cx="60.9897" cy="33.9224" r="23.7214" transform="rotate(-22 60.9897 33.9224)" fill="#4A3AFF"/>
<circle cx="88.1967" cy="101.26" r="23.7214" transform="rotate(-22 88.1967 101.26)" fill="#4A3AFF"/>
<circle cx="40.9242" cy="81.1948" r="23.7214" transform="rotate(-22 40.9242 81.1948)" fill="#191B8D"/>
<circle cx="107.638" cy="52.4463" r="23.7214" transform="rotate(-22 107.638 52.4463)" fill="#191B8D"/>
</g>
<defs>
<filter id="filter0_dd_302_385" x="108.197" y="43.8496" width="239.527" height="49.5469" filterUnits="userSpaceOnUse" color-interpolation-filters="sRGB">
<feFlood flood-opacity="0" result="BackgroundImageFix"/>
<feColorMatrix in="SourceAlpha" type="matrix" values="0 0 0 0 0 0 0 0 0 0 0 0 0 0 0 0 0 0 127 0" result="hardAlpha"/>
<feOffset dx="2.76627" dy="2.76627"/>
<feGaussianBlur stdDeviation="2.76627"/>
<feColorMatrix type="matrix" values="0 0 0 0 0.6512 0 0 0 0 0.66896 0 0 0 0 0.74 0 0 0 1 0"/>
<feBlend mode="normal" in2="BackgroundImageFix" result="effect1_dropShadow_302_385"/>
<feColorMatrix in="SourceAlpha" type="matrix" values="0 0 0 0 0 0 0 0 0 0 0 0 0 0 0 0 0 0 127 0" result="hardAlpha"/>
<feOffset dx="-2.76627" dy="-2.76627"/>
<feGaussianBlur stdDeviation="2.76627"/>
<feColorMatrix type="matrix" values="0 0 0 0 0.979167 0 0 0 0 0.983333 0 0 0 0 1 0 0 0 1 0"/>
<feBlend mode="normal" in2="effect1_dropShadow_302_385" result="effect2_dropShadow_302_385"/>
<feBlend mode="normal" in="SourceGraphic" in2="effect2_dropShadow_302_385" result="shape"/>
</filter>
<linearGradient id="paint0_linear_302_385" x1="29" y1="31" x2="357" y2="110" gradientUnits="userSpaceOnUse">
<stop stop-color="#4A3AFF"/>
<stop offset="1" stop-color="#191B8D"/>
</linearGradient>
</defs>
</svg>
