<svg width="339" height="84" viewBox="0 0 339 84" fill="none" xmlns="http://www.w3.org/2000/svg">
<path d="M109.352 26.1484H117.184V57.6328L114.859 59.0391H107.223V47.2422H102.438V57.6328L100.133 59.0391H92.4961V27.7695L94.625 26.1484H102.438V37.9648H107.223V27.7695L109.352 26.1484ZM107.223 38.2383H102.34L100.328 39.5859H107.223V38.2383ZM102.164 38.0234V26.5586L100.133 27.9453V39.3906L102.164 38.0234ZM94.7227 26.4219L92.9648 27.7695H99.8789L101.871 26.4219H94.7227ZM102.164 57.4766V47.2422H100.133V58.7266L102.164 57.4766ZM111.305 55.1719V31.5977H110.758V43.1406H96.5781V31.5977H96.0312V55.1719H96.5781V43.6875H110.758V55.1719H111.305ZM114.645 27.7695L116.598 26.4219H109.449L107.691 27.7695H114.645ZM116.91 57.4766V26.5586L114.859 27.9453V58.7266L116.91 57.4766ZM143.16 37.4766V46.3242C143.16 47.8346 142.874 49.2799 142.301 50.6602C141.728 52.0404 140.908 53.2643 139.84 54.332C138.863 55.3086 137.77 56.0703 136.559 56.6172C134.553 58.2057 132.255 59 129.664 59C128.167 59 126.734 58.7201 125.367 58.1602C124 57.5872 122.789 56.7734 121.734 55.7188C120.68 54.6641 119.872 53.4596 119.312 52.1055C118.753 50.7383 118.473 49.306 118.473 47.8086V38.9609C118.473 36.9557 118.967 35.1003 119.957 33.3945C120.96 31.6888 122.294 30.3411 123.961 29.3516C125.003 28.349 126.201 27.5677 127.555 27.0078C128.909 26.4349 130.335 26.1484 131.832 26.1484C133.368 26.1484 134.833 26.4479 136.227 27.0469C137.633 27.6458 138.837 28.4531 139.84 29.4688C140.855 30.4714 141.663 31.6758 142.262 33.082C142.861 34.4753 143.16 35.9401 143.16 37.4766ZM124.254 53.2188C125.738 54.7031 127.535 55.4453 129.645 55.4453C131.754 55.4453 133.557 54.7031 135.055 53.2188C136.552 51.7214 137.301 49.918 137.301 47.8086V38.9609C137.301 36.8516 136.552 35.0547 135.055 33.5703C133.557 32.0729 131.754 31.3242 129.645 31.3242C127.535 31.3242 125.732 32.0729 124.234 33.5703C122.75 35.0547 122.008 36.8516 122.008 38.9609V47.8086C122.008 49.918 122.757 51.7214 124.254 53.2188ZM139.645 54.1367C140.686 53.0951 141.487 51.9036 142.047 50.5625C142.607 49.2083 142.887 47.7956 142.887 46.3242V37.4766C142.887 35.4844 142.392 33.6419 141.402 31.9492C140.413 30.2435 139.065 28.8958 137.359 27.9062C135.667 26.9167 133.824 26.4219 131.832 26.4219C129.293 26.4219 127.021 27.2161 125.016 28.8047C126.539 28.1146 128.089 27.7695 129.664 27.7695C131.682 27.7695 133.551 28.2708 135.27 29.2734C136.988 30.276 138.349 31.6367 139.352 33.3555C140.354 35.0742 140.855 36.9427 140.855 38.9609V47.8086C140.855 49.306 140.569 50.7383 139.996 52.1055C139.436 53.4596 138.629 54.6641 137.574 55.7188C137.561 55.7318 137.535 55.7513 137.496 55.7773C137.47 55.8034 137.451 55.8229 137.438 55.8359C138.258 55.3542 138.993 54.7878 139.645 54.1367ZM124.625 33.9609C126.018 32.5677 127.691 31.8711 129.645 31.8711C131.598 31.8711 133.271 32.5677 134.664 33.9609C136.057 35.3411 136.754 37.0078 136.754 38.9609V47.8086C136.754 49.7617 136.057 51.4349 134.664 52.8281C133.284 54.2083 131.611 54.8984 129.645 54.8984C127.678 54.8984 126.005 54.2083 124.625 52.8281C123.245 51.4479 122.555 49.7747 122.555 47.8086V38.9609C122.555 37.0078 123.245 35.3411 124.625 33.9609ZM132.164 50.3281C132.242 50.25 132.346 50.1198 132.477 49.9375C132.19 49.9896 131.975 50.0156 131.832 50.0156C130.829 50.0156 129.964 49.651 129.234 48.9219C128.505 48.1927 128.141 47.3268 128.141 46.3242L128.16 37.4766C128.16 36.7865 128.342 36.1484 128.707 35.5625C127.952 35.7839 127.327 36.207 126.832 36.832C126.35 37.457 126.109 38.1667 126.109 38.9609V47.8086C126.109 48.7982 126.454 49.638 127.145 50.3281C127.835 51.0182 128.674 51.3633 129.664 51.3633C130.641 51.3633 131.474 51.0182 132.164 50.3281ZM132.711 49.6055C133.036 49.0326 133.199 48.4336 133.199 47.8086V38.9609C133.199 37.9844 132.854 37.151 132.164 36.4609C131.474 35.7708 130.641 35.4258 129.664 35.4258C129.469 35.4258 129.273 35.4453 129.078 35.4844C128.635 36.0964 128.414 36.7604 128.414 37.4766V46.3242C128.414 47.2617 128.753 48.069 129.43 48.7461C130.094 49.4102 130.895 49.7422 131.832 49.7422C132.105 49.7422 132.398 49.6966 132.711 49.6055ZM177.242 26.1484H183.824V57.6328L181.52 59.0586L181.5 59.0391H173.863V47.2812L167.711 57.6328L165.465 59H160.484L154.391 48.7266V57.6328L152.086 59.0391H152.066L152.047 59.0586L152.027 59.0391H144.449V27.7695L146.578 26.1484H153.102L153.141 26.2266L164.645 45.582L175.113 27.7695H175.133L177.242 26.1484ZM164.488 45.8359L152.984 26.4805L150.914 27.9062L163.043 48.2969L164.488 45.8359ZM146.656 26.4219L144.879 27.7695H150.621L152.574 26.4219H146.656ZM154.117 57.4766V48.2578L152.086 44.8398V58.7266L154.117 57.4766ZM173.863 46.7539V44.8398L165.758 58.4922L167.535 57.418L173.863 46.7539ZM177.418 55.1719H177.965V31.3242H177.125L163.141 54.8984H162.809L148.902 31.4609L148.824 31.3242H147.984V55.1719H148.531V31.9102L162.418 55.3281L162.516 55.4453H163.434L177.418 31.9102V55.1719ZM181.344 27.7695L183.258 26.4219H177.32L175.582 27.7695H181.344ZM183.551 57.4766V26.5586L181.5 27.9844V58.7461L183.551 57.4766ZM212.281 57.5742L209.938 58.9805V59H209.898H201.949L200.855 55.3672H196.031L195.348 57.5938L193.062 59H193.043H185.074L194.625 27.7695H194.664L196.754 26.1484H202.672L202.711 26.2461L212.281 57.5742ZM196.852 26.4219L195.094 27.7695H200.211L202.145 26.4219H196.852ZM195.113 57.418L195.738 55.3867H194.176L193.18 58.6094L195.113 57.418ZM204.547 55.1719H205.113L197.867 31.5977H197.184L189.938 55.1719H190.504L191.539 51.8125H203.512L204.547 55.1719ZM209.859 58.707L211.969 57.457L202.496 26.5195L200.445 27.9453L209.859 58.707ZM191.715 51.2656L197.535 32.3203L203.355 51.2656H191.715ZM196.48 47.8086H198.551L197.516 44.4297L196.48 47.8086ZM215.68 26.1484H237.828V34.0195L235.504 35.4258H230.719V57.6328L228.414 59.0391H220.777V35.4258H213.551V27.7695L215.68 26.1484ZM230.445 57.4766V35.4258H228.414V58.7266L230.445 57.4766ZM234.137 31.8711V31.3242H214.898V31.8711H224.254L224.312 55.1719H224.859L224.801 31.8711H234.137ZM235.367 27.7695L237.398 26.4219H215.758L214 27.7695H235.367ZM237.555 33.8633V26.6172L235.504 27.9648V35.0938L237.555 33.8633ZM261.188 35.5039L249 35.5234V37.3203H256.383V45.1719L254.078 46.5781H249V49.8398H263.512V57.6914L261.188 59.0977H239.059V27.8867L241.188 26.2461H263.512V34.1172L261.188 35.5039ZM263.238 33.9609V26.6562L261.188 28.0234V35.1914L263.238 33.9609ZM241.285 26.5195L239.508 27.8867H260.934L262.926 26.5195H241.285ZM263.238 57.5352V50.2305L261.188 51.6172V58.7656L263.238 57.5352ZM262.926 50.1133H248.922L246.93 51.4609H260.953L262.926 50.1133ZM246.695 51.2852L248.727 49.8984V46.5781H246.695V51.2852ZM256.109 45.0156V37.7109L254.078 39.1367V46.2461L256.109 45.0156ZM255.816 37.5742H248.922L246.91 38.9414H253.863L255.816 37.5742ZM246.695 38.7461L248.727 37.3789V35.5234H246.695V38.7461ZM243.141 31.9688H257.379V31.4219H242.594V55.5625H257.359V55.0156H243.141V43.0234H250.25V42.4766H243.141V31.9688ZM289.449 37.4766V37.5547L287.145 38.9414V38.9609H279.508C279.508 37.9844 279.156 37.151 278.453 36.4609C277.763 35.7708 276.93 35.4258 275.953 35.4258C275.706 35.4258 275.517 35.4388 275.387 35.4648C274.944 36.0768 274.723 36.7474 274.723 37.4766V46.3242C274.723 47.2747 275.055 48.082 275.719 48.7461C276.37 49.3971 277.177 49.7227 278.141 49.7227C278.44 49.7227 278.727 49.6836 279 49.6055C279.339 49.0195 279.508 48.4206 279.508 47.8086L281.637 46.1875H289.449V46.3242C289.449 47.8346 289.163 49.2799 288.59 50.6602C288.03 52.0404 287.216 53.2643 286.148 54.332C285.185 55.2956 284.085 56.0573 282.848 56.6172C280.842 58.2057 278.544 59 275.953 59C274.456 59 273.023 58.7201 271.656 58.1602C270.302 57.5872 269.098 56.7734 268.043 55.7188C266.988 54.6641 266.174 53.4596 265.602 52.1055C265.042 50.7383 264.762 49.306 264.762 47.8086L264.781 38.9609C264.781 36.9427 265.276 35.0872 266.266 33.3945C267.255 31.7018 268.59 30.3542 270.27 29.3516C271.298 28.349 272.49 27.5677 273.844 27.0078C275.211 26.4479 276.643 26.168 278.141 26.168C280.185 26.168 282.073 26.6758 283.805 27.6914C285.549 28.694 286.923 30.0677 287.926 31.8125C288.941 33.5443 289.449 35.4323 289.449 37.4766ZM285.953 54.1367C288.036 52.0534 289.111 49.5404 289.176 46.5977L287.125 48.0234C287.099 49.4688 286.806 50.8555 286.246 52.1836C285.686 53.5117 284.892 54.6901 283.863 55.7188C283.85 55.7318 283.824 55.7513 283.785 55.7773C283.759 55.8034 283.74 55.8229 283.727 55.8359C284.573 55.3411 285.315 54.7747 285.953 54.1367ZM281.734 46.4609L279.957 47.8086H286.949L288.883 46.4609H281.734ZM274.449 37.4766C274.449 36.7865 274.632 36.1484 274.996 35.5625C274.241 35.7839 273.616 36.207 273.121 36.832C272.639 37.457 272.398 38.1667 272.398 38.9609V47.8086C272.398 48.7852 272.75 49.625 273.453 50.3281C274.13 51.0052 274.964 51.3438 275.953 51.3438C276.956 51.3438 277.796 51.0052 278.473 50.3281C278.551 50.25 278.655 50.1198 278.785 49.9375C278.564 49.9766 278.349 49.9961 278.141 49.9961C277.099 49.9961 276.227 49.6445 275.523 48.9414C274.807 48.2253 274.449 47.3529 274.449 46.3242V37.4766ZM282.008 35.2695L282.477 34.9766C281.773 33.8307 280.842 32.9388 279.684 32.3008C278.538 31.6497 277.294 31.3242 275.953 31.3242C273.844 31.3242 272.04 32.0729 270.543 33.5703C269.046 35.0547 268.297 36.8516 268.297 38.9609V47.8086C268.297 49.918 269.046 51.7214 270.543 53.2188C272.027 54.7031 273.831 55.4453 275.953 55.4453C277.307 55.4453 278.57 55.1133 279.742 54.4492C280.927 53.7721 281.858 52.8542 282.535 51.6953L282.066 51.4023C281.428 52.4831 280.562 53.3359 279.469 53.9609C278.375 54.5859 277.203 54.8984 275.953 54.8984C273.987 54.8984 272.314 54.2083 270.934 52.8281C269.54 51.4349 268.844 49.7617 268.844 47.8086V38.9609C268.844 37.0078 269.54 35.3411 270.934 33.9609C272.327 32.5677 274 31.8711 275.953 31.8711C277.19 31.8711 278.342 32.1706 279.41 32.7695C280.491 33.3685 281.357 34.2018 282.008 35.2695ZM287.125 38.6289L289.176 37.3984C289.163 35.9141 288.863 34.4948 288.277 33.1406C287.691 31.7865 286.904 30.6211 285.914 29.6445C284.938 28.668 283.772 27.8932 282.418 27.3203C281.064 26.7344 279.638 26.4414 278.141 26.4414C275.589 26.4414 273.316 27.2292 271.324 28.8047C272.822 28.1276 274.365 27.7891 275.953 27.7891C277.438 27.7891 278.857 28.0755 280.211 28.6484C281.578 29.2083 282.757 29.9766 283.746 30.9531C284.736 31.9167 285.536 33.069 286.148 34.4102C286.76 35.7383 287.086 37.1445 287.125 38.6289ZM307.594 26.1484H315.426V57.6328L313.102 59.0391H305.465V47.2422H300.68V57.6328L298.375 59.0391H290.738V27.7695L292.867 26.1484H300.68V37.9648H305.465V27.7695L307.594 26.1484ZM305.465 38.2383H300.582L298.57 39.5859H305.465V38.2383ZM300.406 38.0234V26.5586L298.375 27.9453V39.3906L300.406 38.0234ZM292.965 26.4219L291.207 27.7695H298.121L300.113 26.4219H292.965ZM300.406 57.4766V47.2227H298.375V58.7266L300.406 57.4766ZM309.547 55.1719V31.5977H309V43.1406H294.82V31.5977H294.273V55.1719H294.82V43.6875H309V55.1719H309.547ZM312.887 27.7695L314.84 26.4219H307.691L305.934 27.7695H312.887ZM315.152 57.4766V26.5586L313.102 27.9453V58.7266L315.152 57.4766Z" fill="white"/>
<rect x="2" y="2" width="335" height="80" rx="18.7545" stroke="white" stroke-width="4"/>
<mask id="mask0_0_1" style="mask-type:alpha" maskUnits="userSpaceOnUse" x="22" y="13" width="58" height="58">
<circle cx="50.5918" cy="41.5918" r="28.5918" fill="#C4C4C4"/>
</mask>
<g mask="url(#mask0_0_1)">
<circle cx="36.9897" cy="7.92236" r="23.7214" transform="rotate(-22 36.9897 7.92236)" fill="white"/>
<circle cx="64.1967" cy="75.2602" r="23.7214" transform="rotate(-22 64.1967 75.2602)" fill="white"/>
<circle cx="16.9242" cy="55.1948" r="23.7214" transform="rotate(-22 16.9242 55.1948)" fill="white"/>
<circle cx="83.6381" cy="26.4463" r="23.7214" transform="rotate(-22 83.6381 26.4463)" fill="white"/>
</g>
</svg>
