<svg id="Capa_1" enable-background="new 0 0 512 512" height="512" viewBox="0 0 512 512" width="512" xmlns="http://www.w3.org/2000/svg"><g><path d="m206.833 0h-172.666c-18.87 0-34.167 15.297-34.167 34.167v443.667c0 18.869 15.297 34.166 34.167 34.166h172.667c18.87 0 34.167-15.297 34.167-34.167v-443.666c-.001-18.87-15.298-34.167-34.168-34.167zm-127.541 346.375c0 8.284-6.716 15-15 15s-15-6.716-15-15v-60.25c0-8.284 6.716-15 15-15s15 6.716 15 15zm75.375 105.375h-60.25c-8.284 0-15-6.716-15-15s6.716-15 15-15h60.25c8.284 0 15 6.716 15 15s-6.716 15-15 15zm22.041-241h-104.333c-8.284 0-15-6.716-15-15s6.716-15 15-15h104.333c8.284 0 15 6.716 15 15s-6.716 15-15 15zm0-60.25h-104.333c-8.284 0-15-6.716-15-15s6.716-15 15-15h104.333c8.284 0 15 6.716 15 15s-6.716 15-15 15zm0-60.25h-104.333c-8.284 0-15-6.716-15-15s6.716-15 15-15h104.333c8.284 0 15 6.716 15 15s-6.716 15-15 15z"/><path d="m477.833 0h-172.666c-18.87 0-34.167 15.297-34.167 34.167v443.667c0 18.87 15.297 34.167 34.167 34.167h172.667c18.87 0 34.167-15.297 34.167-34.167v-443.667c-.001-18.87-15.298-34.167-34.168-34.167zm-127.541 346.375c0 8.284-6.716 15-15 15s-15-6.716-15-15v-60.25c0-8.284 6.716-15 15-15s15 6.716 15 15zm75.375 105.375h-60.25c-8.284 0-15-6.716-15-15s6.716-15 15-15h60.25c8.284 0 15 6.716 15 15s-6.716 15-15 15zm22.041-241h-104.333c-8.284 0-15-6.716-15-15s6.716-15 15-15h104.333c8.284 0 15 6.716 15 15s-6.716 15-15 15zm0-60.25h-104.333c-8.284 0-15-6.716-15-15s6.716-15 15-15h104.333c8.284 0 15 6.716 15 15s-6.716 15-15 15zm0-60.25h-104.333c-8.284 0-15-6.716-15-15s6.716-15 15-15h104.333c8.284 0 15 6.716 15 15s-6.716 15-15 15z"/></g></svg>