<svg width="800" height="200" viewBox="0 0 800 200" fill="none" xmlns="http://www.w3.org/2000/svg">
<rect width="400" height="200" fill="black"/>
<path d="M118.4 126.9C118.4 133.167 116.1 138.2 111.5 142C106.833 145.733 101.167 147.6 94.5 147.6C88.5667 147.6 83.3333 145.867 78.8 142.4C74.2667 138.933 71.1333 134.2 69.4 128.2L78.2 124.6C78.8 126.733 79.6333 128.667 80.7 130.4C81.7667 132.133 83 133.633 84.4 134.9C85.8667 136.1 87.4667 137.067 89.2 137.8C90.9333 138.467 92.7667 138.8 94.7 138.8C98.9 138.8 102.333 137.733 105 135.6C107.667 133.4 109 130.5 109 126.9C109 123.9 107.9 121.333 105.7 119.2C103.633 117.133 99.7667 115.133 94.1 113.2C88.3667 111.133 84.8 109.733 83.4 109C75.8 105.133 72 99.4333 72 91.9C72 86.6333 74.1 82.1333 78.3 78.4C82.5667 74.6667 87.8 72.8 94 72.8C99.4667 72.8 104.2 74.2 108.2 77C112.2 79.7333 114.867 83.1667 116.2 87.3L107.6 90.9C106.8 88.2333 105.2 86.0333 102.8 84.3C100.467 82.5 97.6 81.6 94.2 81.6C90.6 81.6 87.5667 82.6 85.1 84.6C82.6333 86.4667 81.4 88.9 81.4 91.9C81.4 94.3667 82.3667 96.5 84.3 98.3C86.4333 100.1 91.0667 102.233 98.2 104.7C105.467 107.167 110.633 110.2 113.7 113.8C116.833 117.333 118.4 121.7 118.4 126.9ZM137.073 146H127.873V97H136.673V103.8H137.073C138.473 101.4 140.607 99.4 143.473 97.8C146.407 96.2 149.307 95.4 152.173 95.4C155.773 95.4 158.94 96.2333 161.673 97.9C164.407 99.5667 166.407 101.867 167.673 104.8C171.74 98.5333 177.373 95.4 184.573 95.4C190.24 95.4 194.607 97.1333 197.673 100.6C200.74 104.067 202.273 109 202.273 115.4V146H193.073V116.8C193.073 112.2 192.24 108.9 190.573 106.9C188.907 104.833 186.107 103.8 182.173 103.8C178.64 103.8 175.673 105.3 173.273 108.3C170.873 111.3 169.673 114.833 169.673 118.9V146H160.473V116.8C160.473 112.2 159.64 108.9 157.973 106.9C156.307 104.833 153.507 103.8 149.573 103.8C146.04 103.8 143.073 105.3 140.673 108.3C138.273 111.3 137.073 114.833 137.073 118.9V146ZM219.241 131C219.241 133.4 220.241 135.4 222.241 137C224.308 138.6 226.708 139.4 229.441 139.4C233.308 139.4 236.741 137.967 239.741 135.1C242.808 132.233 244.341 128.867 244.341 125C241.475 122.733 237.475 121.6 232.341 121.6C228.608 121.6 225.475 122.5 222.941 124.3C220.475 126.1 219.241 128.333 219.241 131ZM231.141 95.4C237.941 95.4 243.308 97.2333 247.241 100.9C251.175 104.5 253.141 109.467 253.141 115.8V146H244.341V139.2H243.941C240.141 144.8 235.075 147.6 228.741 147.6C223.341 147.6 218.808 146 215.141 142.8C211.541 139.6 209.741 135.6 209.741 130.8C209.741 125.733 211.641 121.7 215.441 118.7C219.308 115.7 224.441 114.2 230.841 114.2C236.308 114.2 240.808 115.2 244.341 117.2V115.1C244.341 111.9 243.075 109.2 240.541 107C238.008 104.733 235.041 103.6 231.641 103.6C226.508 103.6 222.441 105.767 219.441 110.1L211.341 105C215.808 98.6 222.408 95.4 231.141 95.4ZM320.918 146.8C316.918 146.8 313.585 145.567 310.918 143.1C308.318 140.633 306.985 137.2 306.918 132.8V105.4H298.318V97H306.918V82H316.118V97H328.118V105.4H316.118V129.8C316.118 133.067 316.751 135.3 318.018 136.5C319.285 137.633 320.718 138.2 322.318 138.2C323.051 138.2 323.751 138.133 324.418 138C325.151 137.8 325.818 137.567 326.418 137.3L329.318 145.5C326.918 146.367 324.118 146.8 320.918 146.8ZM263.518 97H272.318V105H272.718C275.451 98.7333 281.085 95.6 289.618 95.6L291.518 95.8V105.4L287.418 105C283.151 105 279.618 106.333 276.818 109C274.085 111.6 272.718 114.933 272.718 119V146H263.518V97Z" fill="white"/>
<rect x="400" width="400" height="200" fill="white"/>
<path d="M450.2 74.4H463.7V133.2H494V146H450.2V74.4ZM525.218 95.4C529.018 95.4 532.485 96.0667 535.618 97.4C538.818 98.6667 541.551 100.467 543.818 102.8C546.151 105.067 547.951 107.8 549.218 111C550.551 114.2 551.218 117.7 551.218 121.5C551.218 125.3 550.551 128.8 549.218 132C547.951 135.2 546.151 137.967 543.818 140.3C541.551 142.567 538.818 144.367 535.618 145.7C532.485 146.967 529.018 147.6 525.218 147.6C521.418 147.6 517.918 146.967 514.718 145.7C511.585 144.367 508.851 142.567 506.518 140.3C504.251 137.967 502.451 135.2 501.118 132C499.851 128.8 499.218 125.3 499.218 121.5C499.218 117.7 499.851 114.2 501.118 111C502.451 107.8 504.251 105.067 506.518 102.8C508.851 100.467 511.585 98.6667 514.718 97.4C517.918 96.0667 521.418 95.4 525.218 95.4ZM525.218 135.5C526.885 135.5 528.485 135.2 530.018 134.6C531.618 133.933 533.018 133 534.218 131.8C535.418 130.6 536.351 129.133 537.018 127.4C537.751 125.667 538.118 123.7 538.118 121.5C538.118 119.3 537.751 117.333 537.018 115.6C536.351 113.867 535.418 112.4 534.218 111.2C533.018 110 531.618 109.1 530.018 108.5C528.485 107.833 526.885 107.5 525.218 107.5C523.485 107.5 521.851 107.833 520.318 108.5C518.785 109.1 517.418 110 516.218 111.2C515.018 112.4 514.051 113.867 513.318 115.6C512.651 117.333 512.318 119.3 512.318 121.5C512.318 123.7 512.651 125.667 513.318 127.4C514.051 129.133 515.018 130.6 516.218 131.8C517.418 133 518.785 133.933 520.318 134.6C521.851 135.2 523.485 135.5 525.218 135.5ZM606.135 133.5C604.002 137.633 601.002 141.033 597.135 143.7C593.335 146.3 588.568 147.6 582.835 147.6C579.035 147.6 575.535 146.967 572.335 145.7C569.202 144.367 566.468 142.533 564.135 140.2C561.868 137.867 560.068 135.133 558.735 132C557.468 128.8 556.835 125.3 556.835 121.5C556.835 117.7 557.468 114.2 558.735 111C560.068 107.8 561.868 105.067 564.135 102.8C566.468 100.467 569.202 98.6667 572.335 97.4C575.535 96.0667 579.035 95.4 582.835 95.4C588.502 95.4 593.268 96.7 597.135 99.3C601.002 101.9 603.835 105.267 605.635 109.4L593.635 114.4C592.502 112.133 591.035 110.433 589.235 109.3C587.502 108.1 585.302 107.5 582.635 107.5C580.902 107.5 579.268 107.833 577.735 108.5C576.202 109.167 574.835 110.1 573.635 111.3C572.502 112.5 571.602 113.967 570.935 115.7C570.268 117.433 569.935 119.367 569.935 121.5C569.935 123.633 570.268 125.567 570.935 127.3C571.602 129.033 572.502 130.5 573.635 131.7C574.835 132.9 576.202 133.833 577.735 134.5C579.268 135.167 580.902 135.5 582.635 135.5C585.368 135.5 587.668 134.9 589.535 133.7C591.468 132.433 593.002 130.633 594.135 128.3L606.135 133.5ZM614.127 74.4H627.227V113.4H627.827L644.227 97H660.427V97.8L642.227 115.5L661.927 145.2V146H646.427L633.027 124.5L627.227 130.2V146H614.127V74.4ZM712.09 134.2C709.823 138.2 706.757 141.433 702.89 143.9C699.09 146.367 694.423 147.6 688.89 147.6C685.157 147.6 681.69 146.967 678.49 145.7C675.357 144.367 672.623 142.533 670.29 140.2C667.957 137.867 666.123 135.133 664.79 132C663.523 128.8 662.89 125.3 662.89 121.5C662.89 117.967 663.523 114.633 664.79 111.5C666.057 108.3 667.823 105.533 670.09 103.2C672.357 100.8 675.023 98.9 678.09 97.5C681.223 96.1 684.657 95.4 688.39 95.4C692.323 95.4 695.823 96.0667 698.89 97.4C701.957 98.6667 704.523 100.467 706.59 102.8C708.657 105.067 710.223 107.767 711.29 110.9C712.357 114.033 712.89 117.433 712.89 121.1C712.89 121.567 712.89 121.967 712.89 122.3C712.823 122.7 712.79 123.067 712.79 123.4C712.723 123.733 712.69 124.1 712.69 124.5H675.79C676.057 126.5 676.59 128.233 677.39 129.7C678.257 131.1 679.29 132.3 680.49 133.3C681.757 134.233 683.123 134.933 684.59 135.4C686.057 135.8 687.557 136 689.09 136C692.09 136 694.557 135.333 696.49 134C698.49 132.6 700.057 130.867 701.19 128.8L712.09 134.2ZM700.19 115.2C700.123 114.333 699.823 113.367 699.29 112.3C698.823 111.233 698.09 110.233 697.09 109.3C696.157 108.367 694.957 107.6 693.49 107C692.09 106.4 690.39 106.1 688.39 106.1C685.59 106.1 683.123 106.9 680.99 108.5C678.857 110.1 677.357 112.333 676.49 115.2H700.19ZM721.256 97H733.556V103.8H734.356C734.956 102.6 735.756 101.5 736.756 100.5C737.756 99.5 738.856 98.6333 740.056 97.9C741.323 97.1667 742.656 96.6 744.056 96.2C745.523 95.8 746.956 95.6 748.356 95.6C750.09 95.6 751.556 95.7667 752.756 96.1C754.023 96.4333 755.09 96.8667 755.956 97.4L752.456 109.3C751.656 108.9 750.756 108.6 749.756 108.4C748.823 108.133 747.656 108 746.256 108C744.456 108 742.823 108.367 741.356 109.1C739.89 109.767 738.623 110.733 737.556 112C736.556 113.267 735.756 114.767 735.156 116.5C734.623 118.167 734.356 120 734.356 122V146H721.256V97Z" fill="black"/>
</svg>
