<svg width="19" height="19" viewBox="0 0 19 19" fill="none" xmlns="http://www.w3.org/2000/svg">
<path d="M17.9098 17.4272L17.1438 16.0882C16.5748 15.0882 16.0217 14.1271 15.4267 13.0941C15.2917 12.8711 14.9477 12.4941 14.5957 12.6331C14.5318 12.6569 14.4741 12.6948 14.4268 12.7439C14.3795 12.7931 14.3439 12.8523 14.3227 12.9171C14.2909 13.0173 14.2802 13.1229 14.2912 13.2274C14.3022 13.3318 14.3348 13.4329 14.3867 13.5241C14.9697 14.5011 16.3188 16.7642 16.6748 17.3672H1.28073C1.57073 16.8882 2.18572 15.9432 2.40072 15.6252L2.85177 14.8431C3.06277 14.4791 3.25175 14.1501 3.51675 13.6831C3.59889 13.5751 3.65833 13.4515 3.69149 13.3199C3.72466 13.1882 3.73087 13.0512 3.70974 12.9171C3.68784 12.8519 3.65186 12.7923 3.60434 12.7425C3.55681 12.6928 3.49888 12.654 3.43472 12.6292C3.26712 12.5907 3.09143 12.6112 2.93716 12.6871C2.78289 12.7631 2.65947 12.8899 2.58773 13.0461C2.29473 13.5541 2.00472 14.0672 1.71572 14.5782C1.20272 15.4782 0.673717 16.4202 0.132717 17.3242C0.0543213 17.4413 0.00892746 17.5774 0.00118634 17.7181C-0.00655478 17.8589 0.0236964 17.9991 0.0887718 18.1241C0.165627 18.2513 0.275162 18.3555 0.406033 18.4259C0.536903 18.4962 0.684266 18.5302 0.832729 18.5241C2.78473 18.5061 4.77778 18.5082 6.70578 18.5102H17.2198C17.3586 18.5151 17.4963 18.4836 17.6192 18.4186C17.742 18.3537 17.8457 18.2577 17.9198 18.1401C17.9822 18.03 18.014 17.9051 18.0119 17.7785C18.0098 17.6519 17.9739 17.5282 17.9077 17.4202L17.9098 17.4272ZM8.97177 9.60916C9.49436 9.61015 10.0055 9.45605 10.4405 9.16641C10.8754 8.87677 11.2147 8.46461 11.4154 7.98206C11.616 7.49951 11.669 6.96829 11.5675 6.45563C11.4661 5.94297 11.2149 5.47192 10.8456 5.10211C10.4764 4.7323 10.0057 4.48034 9.49319 4.37814C8.98069 4.27595 8.44937 4.32809 7.96652 4.52798C7.48366 4.72788 7.07103 5.06655 6.78073 5.5011C6.49043 5.93565 6.33552 6.44655 6.33572 6.96915C6.33703 7.66841 6.61502 8.33876 7.10891 8.83377C7.6028 9.32878 8.27251 9.60824 8.97177 9.61114V9.60916ZM7.26675 6.95514C7.26565 6.7323 7.30885 6.51148 7.39383 6.30548C7.4788 6.09948 7.60386 5.91241 7.76175 5.75516C7.95745 5.55729 8.19876 5.4105 8.46444 5.32767C8.73013 5.24483 9.01207 5.22847 9.28555 5.28006C9.55902 5.33165 9.81561 5.4496 10.0329 5.62353C10.2501 5.79747 10.4214 6.02205 10.5315 6.27762C10.6417 6.53318 10.6875 6.81189 10.6648 7.08926C10.6421 7.36663 10.5516 7.63419 10.4013 7.86844C10.2511 8.10269 10.0456 8.29647 9.80301 8.43277C9.56037 8.56907 9.28796 8.64371 9.00973 8.65015H8.98776C8.76184 8.65093 8.538 8.60719 8.32901 8.52139C8.12001 8.4356 7.92995 8.30944 7.76974 8.15015C7.60956 7.99502 7.48214 7.80933 7.39505 7.60406C7.30796 7.3988 7.26296 7.17812 7.26272 6.95514H7.26675Z" fill="black"/>
<path d="M14.2177 3.21109C13.4861 2.18891 12.4714 1.40313 11.2987 0.95056C10.1259 0.497989 8.8464 0.398402 7.61776 0.664092C6.23282 0.981327 4.98891 1.74108 4.0743 2.82837C3.15969 3.91565 2.62412 5.27128 2.54873 6.69009C2.54581 6.69852 2.54381 6.70724 2.54275 6.71609C2.54275 6.74809 2.54275 6.7821 2.54275 6.8161C2.54275 6.8991 2.53274 6.98109 2.53274 7.06409C2.53156 7.16439 2.53758 7.26466 2.55074 7.3641C2.62707 8.1966 2.84984 9.00908 3.20876 9.7641C3.35276 10.0861 3.52774 10.4221 3.75674 10.8241C5.0151 12.9005 6.59664 14.7629 8.44173 16.3411C8.5951 16.4908 8.7969 16.5809 9.01076 16.5951C9.22601 16.5824 9.42757 16.4854 9.57174 16.3251C10.5497 15.4122 11.4686 14.4378 12.3227 13.4081C13.2566 12.3156 14.0597 11.1179 14.7157 9.83908C15.1742 8.9826 15.4314 8.03289 15.4677 7.0621C15.4564 5.68053 15.02 4.33593 14.2177 3.21109ZM13.7617 9.44409C12.5255 11.5031 11.0067 13.3787 9.24972 15.0161C9.1798 15.0703 9.09275 15.0975 9.00442 15.0927C8.91608 15.0879 8.83242 15.0515 8.76876 14.9901C8.65076 14.8791 8.50373 14.7471 8.34273 14.6021C7.83173 14.1401 7.19674 13.5621 6.85274 13.1881C5.78707 12.0517 4.90942 10.7528 4.25277 9.34009C3.87768 8.62639 3.68684 7.83026 3.69771 7.02408C3.70743 6.44529 3.787 5.8698 3.93471 5.31009C4.34842 4.25536 5.05945 3.34343 5.98147 2.68503C6.90348 2.02662 7.99684 1.65009 9.12874 1.6011C9.17474 1.6011 9.22172 1.6011 9.26772 1.6011C10.6882 1.6655 12.0253 2.28991 12.9865 3.33771C13.9477 4.38551 14.4548 5.77135 14.3967 7.19208C14.3789 7.98486 14.1608 8.76026 13.7627 9.44607L13.7617 9.44409Z" fill="black"/>
</svg>
