<svg width="19" height="19" viewBox="0 0 19 19" fill="none" xmlns="http://www.w3.org/2000/svg">
<circle cx="9.5" cy="9.5" r="9" stroke="black"/>
<path d="M6.89783 4.42839C7.51192 5.04048 7.66302 5.93934 7.34873 6.69119L12.3267 11.6614C13.081 11.3469 13.9828 11.4939 14.5957 12.1048C15.4044 12.9121 15.4044 14.2218 14.5957 15.0339C13.787 15.8412 12.473 15.8412 11.6582 15.0339C11.0453 14.423 10.8991 13.5242 11.2134 12.7711L6.22935 7.80693C5.47503 8.11539 4.57324 7.96959 3.9652 7.3575C3.46111 6.85988 3.27132 6.16586 3.391 5.52244L4.95402 7.08158L6.62101 5.42002L5.05677 3.85968C5.7035 3.74039 6.39858 3.93076 6.89783 4.42839Z" fill="black"/>
<path d="M9.55273 7.55711L11.5183 9.51749C11.6428 9.64159 11.6428 9.84281 11.5183 9.96692C11.3986 10.0862 11.1919 10.0862 11.0734 9.96692L9.10304 8.00172C8.98337 7.88244 8.98337 7.6764 9.10304 7.55832C9.22635 7.43301 9.42822 7.43301 9.55273 7.55711ZM13.8792 5.68952L10.8607 8.69936L10.2418 8.08727L13.2663 5.07743L13.0052 4.81717L14.4872 3.83276L14.7096 4.04965L14.9103 4.24966L15.1279 4.46654L14.1403 5.94978L13.8792 5.68952ZM9.3025 11.5092L5.17191 15.63C5.11751 15.6842 5.02564 15.6842 4.9652 15.63L3.40701 14.0756C3.35261 14.0166 3.35261 13.9238 3.40701 13.8696L7.54365 9.75004L7.70684 9.9127L3.98846 13.6214C3.94494 13.6708 3.94494 13.7407 3.98846 13.7889C4.03198 13.8322 4.10813 13.8322 4.15165 13.7889L7.87003 10.0802L8.33664 10.5405L4.61826 14.2491C4.57474 14.2973 4.57474 14.3684 4.61826 14.4166C4.66178 14.46 4.73794 14.46 4.78146 14.4166L8.49984 10.7079L8.97249 11.179L5.2529 14.8877C5.20938 14.9311 5.20938 15.007 5.2529 15.0504C5.30126 15.0938 5.37258 15.0938 5.42093 15.0504L9.13931 11.3417L9.3025 11.5092Z" fill="black"/>
<rect x="12.8302" y="12.2556" width="0.585397" height="1.62608" fill="white"/>
<rect x="12.8302" y="13.4587" width="1.31615" height="0.585688" fill="white"/>
</svg>
