<svg width="28" height="30" viewBox="0 0 28 30" fill="none" xmlns="http://www.w3.org/2000/svg">
<path d="M27.1152 10.1369V10.124L27.1072 10.0694V10.0485L27.0944 10.002L27.0863 9.97787V9.96021C26.5129 8.41654 25.6792 6.98259 24.6213 5.72063V5.71259L24.5811 5.66925L24.5683 5.65641L24.5282 5.62107L24.5169 5.61144L24.4656 5.57611C24.4255 5.55005 24.383 5.52799 24.3386 5.51026L24.2777 5.48939H24.2632L24.2118 5.47655H24.1925L24.1396 5.46851H24.0432C24.025 5.46691 24.0068 5.46691 23.9886 5.46851H23.9628C23.9479 5.46706 23.9329 5.46706 23.9179 5.46851H23.8938L23.8473 5.48135H23.8247C23.8017 5.48851 23.7792 5.4971 23.7573 5.50705C22.9421 5.85878 22.049 5.99055 21.167 5.88925L21.0241 5.86999C20.9534 5.86035 20.886 5.84911 20.8169 5.83627L20.674 5.80897C20.5937 5.79131 20.5134 5.77203 20.4331 5.74955C20.3528 5.72706 20.2725 5.70619 20.197 5.68049C20.1216 5.6548 20.0364 5.6291 19.9642 5.60019C19.8919 5.57129 19.8116 5.54077 19.7362 5.50865C19.6607 5.47653 19.5884 5.44121 19.5146 5.40588L19.3539 5.32558C19.264 5.2774 19.1741 5.22603 19.0857 5.165C18.9974 5.10398 18.8818 5.03491 18.7823 4.96586C18.6219 4.84906 18.468 4.72363 18.3213 4.59009L18.2234 4.49854C18.0307 4.31318 17.853 4.11289 17.6918 3.89954C17.671 3.87224 17.6501 3.84493 17.6308 3.81603C17.5297 3.67591 17.4359 3.53065 17.3498 3.38084C17.3209 3.33266 17.2935 3.28288 17.2678 3.2331C17.1891 3.08714 17.1184 2.93704 17.0559 2.78345C17.0238 2.70637 16.9932 2.62287 16.9659 2.549C16.9097 2.38841 16.8616 2.22781 16.8215 2.06722C16.7696 1.85579 16.7315 1.6412 16.7074 1.42485C16.7074 1.40076 16.6993 1.37829 16.6945 1.3542V1.33332L16.6817 1.28674L16.6737 1.26265L16.6577 1.21931L16.648 1.19681L16.6239 1.14864V1.1358L16.5886 1.07799L16.579 1.06674L16.5452 1.02337L16.534 1.00894L16.497 0.968777L16.4858 0.959147C16.471 0.944945 16.4554 0.931554 16.4392 0.919009C16.402 0.88805 16.3617 0.861129 16.3188 0.838709C16.3001 0.828887 16.2808 0.820293 16.261 0.813004H16.2482L16.1967 0.795337H16.1791L16.1245 0.78088H16.1101H16.1004C14.416 0.488572 12.6933 0.495109 11.0113 0.800164H10.9984L10.9407 0.814622H10.9214L10.8731 0.830672H10.8555L10.8074 0.853167H10.7929C10.7517 0.875467 10.7124 0.901238 10.6756 0.930232L10.6275 0.970394L10.6147 0.981617L10.5809 1.01857L10.5665 1.03462C10.5568 1.04747 10.5456 1.06033 10.536 1.07478L10.5247 1.09083C10.5118 1.10936 10.5 1.12866 10.4894 1.14864V1.15827L10.4636 1.20806L10.454 1.23215L10.438 1.27228L10.4299 1.29799L10.4171 1.34295V1.36545C10.4118 1.38873 10.4081 1.41232 10.4059 1.43609C10.2621 2.6689 9.67022 3.80588 8.74286 4.63079C7.8155 5.4557 6.61735 5.91099 5.37619 5.91012C5.18015 5.91912 4.9951 6.00335 4.85955 6.14526C4.724 6.28718 4.64842 6.47588 4.64842 6.67213C4.64842 6.86838 4.724 7.05707 4.85955 7.19899C4.9951 7.3409 5.18015 7.42513 5.37619 7.43413H5.59134H5.67652H5.75679H5.82423H5.91254H5.97037L6.06515 7.4245H6.11494L6.2161 7.41166H6.25785L6.36381 7.3972H6.39919L6.51152 7.37953H6.53886L6.65609 7.35866H6.6754L6.80067 7.33136C7.43704 7.19043 8.04863 6.95496 8.61524 6.6328L8.73257 6.56534L8.84333 6.4979C8.88026 6.47542 8.91719 6.45294 8.95252 6.42885H8.96212L9.06817 6.35818H9.07778L9.14365 6.31321H9.12757L9.15482 6.29395L9.21432 6.25058L9.27048 6.21044L9.32831 6.16707L9.38447 6.12693L9.4423 6.07876L9.49533 6.0386L9.5563 5.98883L9.60452 5.94867L9.67519 5.88765L9.74743 5.8234L9.81486 5.76239L9.86309 5.71742L9.91925 5.66442L9.96747 5.61625L10.0188 5.56327L10.0686 5.51347L10.1184 5.46047L10.1665 5.40909L10.2163 5.35611L10.2629 5.30311L10.3111 5.24851L10.3561 5.19551L10.4027 5.1393L10.4477 5.0847L10.4925 5.02849L10.5375 4.97228L10.5809 4.91609L10.6226 4.85826L10.666 4.80046L10.7061 4.74265L10.7463 4.68323L10.7865 4.62542L10.8266 4.56438L10.8668 4.50496L10.9069 4.44235L10.9438 4.38452L10.984 4.31868L11.0177 4.26088C11.029 4.24321 11.0451 4.21429 11.0579 4.19021L11.09 4.13561L11.1382 4.04568L11.1767 3.97342L11.2233 3.88187L11.2506 3.82568L11.2859 3.7518L11.3132 3.69238L11.347 3.62012L11.3742 3.55749L11.4047 3.48684L11.4305 3.42259L11.4594 3.35195L11.4834 3.2861L11.5107 3.21382L11.5349 3.148L11.5589 3.07571L11.5814 3.00987L11.6054 2.93601L11.6263 2.86855L11.6488 2.7947L11.6681 2.72724L11.6889 2.65177L11.7067 2.58431L11.7259 2.50724L11.742 2.43978L11.75 2.40445L11.7596 2.3611L11.7757 2.29364V2.27597H11.7998V2.26475C12.9577 2.10418 14.1319 2.09931 15.291 2.25029V2.26154C15.5683 3.60271 16.2568 4.82405 17.2608 5.7555C18.2648 6.68695 19.5342 7.28214 20.8924 7.45822H20.902L21.0161 7.47106L21.1044 7.48071H21.1365C21.6718 7.5308 22.2112 7.51463 22.7424 7.43254H22.7664L22.8949 7.41166L22.9495 7.402L23.0459 7.38274L23.1262 7.36669L23.2001 7.35062L23.2997 7.32653L23.3558 7.31207L23.4667 7.28318L23.5165 7.27032L23.6272 7.23822L23.6835 7.22055L23.7798 7.19004L23.8167 7.1788C24.4916 8.05487 25.0503 9.0146 25.4788 10.0341C25.2204 10.2556 24.9793 10.4967 24.7577 10.7551C24.6855 10.8386 24.6149 10.9254 24.5458 11.0137L24.5346 11.0281C24.5073 11.0635 24.4816 11.0972 24.4575 11.1309L24.4109 11.1951L24.3869 11.2289L24.3756 11.2433L24.2969 11.3589L24.2857 11.375C24.0718 11.6935 23.8859 12.0298 23.73 12.3803V12.3931C23.7108 12.4349 23.6931 12.4783 23.677 12.52L23.6642 12.5489L23.6209 12.6597L23.6031 12.7063C23.5903 12.7368 23.5806 12.7673 23.5694 12.7978L23.5454 12.8653L23.5213 12.9359L23.4924 13.0227L23.4763 13.0741L23.4426 13.1833L23.4345 13.2122C23.4217 13.2555 23.4105 13.2989 23.3992 13.3422V13.3519C23.223 14.0138 23.1514 14.6993 23.1872 15.3833L23.1968 15.5311C23.1953 15.5417 23.1953 15.5525 23.1968 15.5632C23.1968 15.6033 23.1969 15.6435 23.2081 15.6836C23.2193 15.7238 23.2081 15.7238 23.2081 15.743L23.2177 15.8362C23.2177 15.8683 23.2257 15.894 23.2306 15.9229L23.2386 15.9887L23.2562 16.1028V16.1429C23.2643 16.1895 23.2724 16.2345 23.282 16.281V16.2955C23.3926 16.8654 23.5777 17.4184 23.8328 17.9399C23.8536 17.9801 23.8729 18.0218 23.8954 18.062L23.9067 18.0861L23.9613 18.1872L23.9854 18.2322L24.0319 18.3125L24.0689 18.3767L24.1042 18.4345L24.1555 18.5213L24.1781 18.5566L24.2471 18.6626L24.2568 18.677C24.5922 19.1816 24.9958 19.6372 25.4563 20.0308L25.4451 20.0565L25.4933 20.0966C25.0425 21.1099 24.464 22.0613 23.7718 22.9278L23.6979 22.9038L23.6513 22.8893L23.5309 22.854L23.5052 22.8459L23.3606 22.8058L23.3221 22.7962L23.2129 22.7705L23.1648 22.7576L23.0572 22.7351L23.017 22.7255L22.8693 22.6982H22.858L22.7216 22.6757H22.6749L22.5689 22.6613H22.5191L22.3987 22.6484H22.3682L22.2173 22.6356H22.1803H22.0646H22.015H21.9057H21.5059H21.4063H21.3452H21.2569H21.1927L21.1076 22.6436H21.0433H20.9598H20.8956L20.8137 22.6548L20.7479 22.6645L20.6675 22.6757L20.6033 22.687L20.523 22.7014L20.4587 22.7143L20.3785 22.7287L20.3158 22.7432L20.2371 22.7608L20.1762 22.7753L20.0927 22.7962L20.0333 22.8106L19.9497 22.8347L19.8935 22.8492L19.8052 22.8765L19.7554 22.8909L19.6607 22.9214L19.6173 22.9359L19.5033 22.976L19.4808 22.9841C19.3893 23.0162 19.2977 23.0515 19.2078 23.0884L19.1853 23.0981L19.0761 23.1446L19.0392 23.1623L18.9444 23.2041L18.9026 23.225L18.8143 23.2651L18.7694 23.2876L18.6875 23.3293L18.6409 23.3534L18.5542 23.3984L18.5092 23.4225L18.4289 23.4674L18.4129 23.4771C18.147 23.6326 17.8926 23.807 17.6517 23.999H17.6405C17.6042 24.0255 17.5694 24.0539 17.5361 24.0841L17.5136 24.1018L17.4237 24.1788L17.3915 24.2061C17.3642 24.2286 17.3386 24.2527 17.3145 24.2752L17.2743 24.3121L17.2117 24.3715L17.1586 24.4197L17.1185 24.4599C16.9933 24.5835 16.8713 24.7136 16.754 24.8469L16.6688 24.9465L16.6577 24.9609L16.579 25.0573L16.5629 25.0798L16.4907 25.1713L16.4681 25.2002L16.4022 25.2901L16.3782 25.3238L16.3172 25.4106L16.2883 25.4523L16.2337 25.5326L16.1984 25.5872L16.1534 25.6595L16.1068 25.735L16.0747 25.7863C15.7104 26.3976 15.4485 27.0643 15.2991 27.76V27.7744H15.275V27.7873C14.5527 27.8825 13.8238 27.9169 13.0958 27.8901C12.6518 27.8824 12.2085 27.8518 11.7676 27.7985L11.758 27.7552L11.7452 27.6958L11.7243 27.6106L11.7098 27.5496L11.6889 27.4677L11.6713 27.4067L11.6488 27.3264L11.6312 27.2654L11.6054 27.1851L11.5862 27.1241L11.5605 27.0438L11.5397 26.9843L11.5123 26.9057L11.4899 26.8462L11.4594 26.7692L11.4368 26.7113L11.4047 26.631L11.3822 26.5764L11.347 26.4961L11.3228 26.4432L11.2827 26.3597L11.2618 26.3131L11.2152 26.2183L11.1976 26.183C11.1542 26.0979 11.1076 26.0128 11.061 25.9293L11.0402 25.8923L10.9888 25.8056L10.9599 25.759L10.9149 25.6836L10.8828 25.6338L10.8379 25.5615L10.8041 25.5117L10.7576 25.4427L10.7222 25.3929L10.6756 25.3271L10.6387 25.2757L10.5906 25.2114L10.5504 25.1617L10.5023 25.099L10.4621 25.0492L10.4123 24.9866L10.3722 24.9384L10.3192 24.8774L10.2806 24.8308L10.2228 24.7746L10.1826 24.7281L10.1265 24.6686L10.0863 24.6237L10.0284 24.5643L9.98835 24.5241L9.92572 24.4615L9.88553 24.4245L9.81486 24.3571L9.78281 24.3266C9.71376 24.264 9.64307 24.2013 9.5708 24.1403L9.53552 24.1114L9.46161 24.0504L9.41819 24.015L9.35076 23.9621L9.30263 23.9267L9.23676 23.8769L9.18697 23.84L9.1211 23.7934L9.06974 23.7565L9.00554 23.7115L8.95095 23.6762L8.88508 23.6344L8.83205 23.5991L8.76462 23.559L8.71002 23.5252L8.64259 23.4851L8.58642 23.453L8.51889 23.4128L8.46273 23.3823L8.39206 23.3438L8.33589 23.3149L8.26523 23.2779L8.20896 23.2506L8.13516 23.2153L8.0789 23.1896L7.99862 23.1527L7.94726 23.1302L7.85895 23.0916L7.81553 23.074L7.64694 22.9985L7.51364 22.9487L7.46865 22.9327L7.3771 22.9022L7.3225 22.8845L7.23899 22.8572L7.18126 22.8395L7.10089 22.8154L7.03992 22.7994L6.95965 22.7769L6.89702 22.7608L6.81831 22.7416L6.75401 22.7271L6.6754 22.7095L6.6111 22.6966L6.53083 22.6805L6.46496 22.6677L6.38468 22.6532L6.31882 22.6436L6.23854 22.6308L6.17267 22.6211L6.0924 22.6115H6.02653L5.94469 22.6019H5.88049H5.79374H5.73111H5.64113H5.58173H5.48215H5.08871H4.98432H4.9362L4.82211 22.6099H4.78839L4.64391 22.6227H4.60853L4.49777 22.634H4.44955L4.34683 22.6484H4.30341L4.1605 22.6709H4.14932L4.01759 22.695L3.9726 22.7046L3.87311 22.7255L3.82646 22.7351L3.71413 22.7624H3.68355L3.54545 22.7994L3.50536 22.8106L3.40254 22.8395L3.35431 22.854L3.31422 22.8652C2.63653 21.9855 2.07614 21.0214 1.64726 19.9971C2.78703 19.0171 3.55909 17.6781 3.83616 16.2007L3.84577 16.273C4.07588 15.1253 3.99587 13.937 3.61396 12.8305C3.23205 11.724 2.562 10.7393 1.67294 9.97787C2.12471 8.91075 2.71901 7.90975 3.43949 7.00215C3.56449 6.84349 3.62138 6.64168 3.59759 6.4411C3.5738 6.24053 3.47131 6.05762 3.31266 5.93262C3.154 5.80761 2.95219 5.75075 2.75161 5.77454C2.55104 5.79833 2.36811 5.90082 2.2431 6.05947C1.31216 7.23771 0.571431 8.55444 0.0478311 9.96182C-0.0106879 10.119 -0.0156515 10.2911 0.0337168 10.4514C0.083085 10.6117 0.183993 10.7512 0.320807 10.8483C0.981003 11.3167 1.51938 11.9364 1.89093 12.6555C2.26248 13.3747 2.45639 14.1724 2.45639 14.9819C2.45639 15.7913 2.26248 16.589 1.89093 17.3082C1.51938 18.0274 0.981003 18.6471 0.320807 19.1154C0.183993 19.2125 0.083085 19.352 0.0337168 19.5123C-0.0156515 19.6726 -0.0106879 19.8447 0.0478311 20.0019C0.620391 21.5428 1.45312 22.9741 2.50971 24.2334L2.55303 24.28L2.57391 24.2993L2.60439 24.3266L2.62527 24.3442L2.65899 24.37L2.67986 24.3828L2.72005 24.4085L2.73769 24.4181L2.79876 24.447L2.85972 24.4679H2.8806L2.92402 24.4791H2.9497H2.98979H3.01714H3.06526H3.14877H3.17612C3.19 24.4807 3.204 24.4807 3.21788 24.4791H3.24512L3.29011 24.4679H3.31266L3.38009 24.4454C4.3219 24.0591 5.35802 23.9645 6.3542 24.174C6.42968 24.1917 6.50351 24.2078 6.57738 24.2286C7.51912 24.4729 8.37067 24.983 9.03044 25.698C9.69021 26.413 10.1304 27.3027 10.2983 28.261C10.3111 28.3381 10.3239 28.4216 10.3336 28.4955C10.3336 28.518 10.3336 28.5405 10.3448 28.5613V28.5838L10.3561 28.624L10.3657 28.6497L10.3786 28.685L10.3898 28.7123L10.4059 28.7444L10.4187 28.7701L10.438 28.8006L10.4525 28.8247L10.4766 28.8568L10.491 28.8761L10.5295 28.9227L10.5697 28.9628L10.5858 28.9757L10.6178 29.003L10.6387 29.0174L10.6708 29.0383L10.695 29.0528L10.727 29.0704L10.7528 29.0833L10.7848 29.0961L10.8137 29.1089L10.8442 29.1186L10.8764 29.1282L10.9053 29.1363H10.939C12.6253 29.4432 14.3526 29.4492 16.041 29.1539H16.0747L16.1052 29.1459L16.1373 29.1363L16.1678 29.1266L16.1967 29.1138L16.2289 29.1009H16.2706L16.3028 29.0833L16.3268 29.0688L16.3589 29.0463L16.3782 29.0335L16.4152 29.0046L16.428 28.9933L16.4746 28.9484L16.4826 28.9387L16.5163 28.8986L16.5307 28.8793L16.5533 28.8472L16.5677 28.8231L16.587 28.791L16.6014 28.7653L16.6159 28.7332L16.6271 28.7059L16.6416 28.6705L16.6496 28.6449L16.6608 28.6047V28.5822C16.6608 28.5597 16.6689 28.5389 16.6721 28.5164C16.7683 27.7372 17.0441 26.9909 17.478 26.3365C17.9118 25.6822 18.4918 25.1375 19.1721 24.7456C19.8524 24.3537 20.6145 24.1252 21.3982 24.0781C22.182 24.031 22.9659 24.1667 23.6883 24.4743L23.7541 24.5H23.7782L23.8216 24.5113H23.8504H23.8906H23.9195C23.9345 24.5097 23.9496 24.5097 23.9645 24.5113H24.0528H24.0817H24.1218H24.1507L24.1909 24.5016L24.215 24.4936L24.2616 24.4775H24.2777L24.3386 24.4503H24.3547C24.3689 24.443 24.3824 24.4344 24.3949 24.4245L24.4173 24.4101L24.4495 24.3876L24.4735 24.3683L24.5024 24.3442L24.5265 24.3218L24.5506 24.2945L24.5731 24.2704C25.6398 23.0068 26.4808 21.5688 27.0591 20.0196V20.0067L27.0687 19.973L27.0783 19.9393L27.0863 19.9071V19.867V19.8413C27.0863 19.8188 27.0863 19.7964 27.0863 19.7739V19.6855C27.0879 19.6695 27.0879 19.6534 27.0863 19.6374V19.6133L27.0767 19.5699V19.5458L27.0639 19.5057L27.0558 19.4816L27.035 19.435C27.0237 19.4096 27.0108 19.3849 26.9964 19.3611L26.9804 19.3371L26.9579 19.3033L26.9386 19.2808L26.9129 19.2487L26.8936 19.2278L26.8599 19.1973L26.8423 19.1797C26.8246 19.1636 26.8053 19.1492 26.786 19.1347C26.1247 18.6661 25.5854 18.0457 25.2135 17.3255C24.8416 16.6053 24.648 15.8064 24.6488 14.9958C24.6495 14.1853 24.8447 13.3868 25.218 12.6673C25.5913 11.9479 26.1318 11.3285 26.794 10.8611C26.8141 10.8485 26.833 10.834 26.8503 10.8178L26.8679 10.8017L26.9017 10.7696L26.921 10.7487L26.9482 10.7166L26.9659 10.6941L26.9916 10.6572L27.0045 10.6379L27.0365 10.5785C27.0459 10.5598 27.054 10.5405 27.0606 10.5207V10.5046L27.0767 10.4548V10.4372L27.088 10.3858V10.3697V10.3103V10.3007C27.0928 10.2521 27.0928 10.2031 27.088 10.1545L27.1152 10.1369ZM9.08101 6.26342L9.10993 6.24255L9.08101 6.26342Z" fill="white"/>
<path d="M7.86169 14.7714C7.86296 16.2791 8.46162 17.7248 9.5265 18.7921C10.5914 19.8594 12.0357 20.4613 13.5434 20.4659H13.5547C14.3922 20.4654 15.2192 20.2801 15.977 19.9233C16.7347 19.5665 17.4044 19.0469 17.9384 18.4017C18.4723 17.7564 18.8573 17.0013 19.0659 16.1902C19.2746 15.3791 19.3018 14.5319 19.1455 13.7091C18.9893 12.8862 18.6535 12.108 18.162 11.4298C17.6706 10.7517 17.0356 10.1902 16.3023 9.7856C15.569 9.38096 14.7554 9.14306 13.9196 9.08885C13.0838 9.03463 12.2464 9.16543 11.4669 9.47195C11.3737 9.50864 11.2887 9.56334 11.2166 9.63291C11.1445 9.70249 11.0869 9.78558 11.0469 9.87744C11.007 9.9693 10.9855 10.0681 10.9837 10.1683C10.9819 10.2684 10.9999 10.368 11.0366 10.4612C11.0733 10.5544 11.128 10.6395 11.1976 10.7116C11.2672 10.7836 11.3502 10.8413 11.442 10.8812C11.5339 10.9212 11.6328 10.9427 11.7329 10.9445C11.8331 10.9462 11.9326 10.9283 12.0258 10.8916C13.0045 10.5041 14.0936 10.5016 15.074 10.8846C16.0544 11.2676 16.8534 12.0077 17.3103 12.9559C17.7671 13.9042 17.8478 14.9903 17.5363 15.9957C17.2248 17.0011 16.544 17.8512 15.6311 18.3751L15.4866 18.4554C14.852 18.7886 14.1422 18.9524 13.4258 18.9311C12.7094 18.9097 12.0105 18.7039 11.3969 18.3335C10.7833 17.9631 10.2757 17.4406 9.92308 16.8166C9.57047 16.1926 9.3848 15.4882 9.38408 14.7714C9.38408 14.5695 9.30395 14.3759 9.16119 14.2332C9.01844 14.0904 8.82477 14.0102 8.62289 14.0102C8.42101 14.0102 8.22743 14.0904 8.08468 14.2332C7.94193 14.3759 7.86169 14.5695 7.86169 14.7714Z" fill="white"/>
<path d="M10.11 12.4189L10.4071 12.0206C10.5278 11.8588 10.5794 11.6556 10.5503 11.4558C10.5212 11.2559 10.414 11.0758 10.2521 10.9551C10.0903 10.8343 9.88709 10.7828 9.68727 10.8119C9.48744 10.8409 9.30734 10.9482 9.1866 11.11L8.88951 11.5083C8.82972 11.5885 8.78636 11.6796 8.7618 11.7765C8.73723 11.8734 8.73192 11.9742 8.74631 12.0732C8.7607 12.1721 8.79444 12.2672 8.8456 12.3531C8.89676 12.439 8.96434 12.514 9.04447 12.5738C9.12461 12.6336 9.21573 12.677 9.31265 12.7016C9.40956 12.7262 9.5104 12.7314 9.60934 12.717C9.70828 12.7026 9.80347 12.6689 9.88938 12.6177C9.97528 12.5666 10.0502 12.499 10.11 12.4189Z" fill="white"/>
<path d="M24.2391 11.3059C24.17 11.4103 24.1026 11.5163 24.0383 11.6271C24.1026 11.5195 24.17 11.4135 24.2391 11.3059ZM23.2323 16.2842L23.2403 16.3211L23.2323 16.2842ZM9.08105 6.2634L9.1083 6.24414L9.08105 6.2634Z" fill="#FFD523"/>
</svg>
