<svg width="20" height="22" viewBox="0 0 20 22" fill="none" xmlns="http://www.w3.org/2000/svg">
<path fill-rule="evenodd" clip-rule="evenodd" d="M6.72339 1.05112C8.16732 0.556583 9.06248 0.25 10 0.25C10.9375 0.25 11.8327 0.556583 13.2766 1.05112L14.004 1.30013C15.4854 1.8072 16.6286 2.19852 17.447 2.53099C17.8592 2.69846 18.2136 2.86067 18.499 3.02641C18.7737 3.1859 19.0492 3.38484 19.2364 3.65154C19.4214 3.91516 19.5171 4.23924 19.5772 4.55122C19.6397 4.87556 19.6774 5.26464 19.7017 5.71136C19.75 6.5984 19.75 7.81361 19.75 9.38982V10.9914C19.75 17.0924 15.142 20.0175 12.4017 21.2146L12.3746 21.2264C12.0348 21.3749 11.7154 21.5144 11.3484 21.6084C10.9609 21.7076 10.5493 21.75 10 21.75C9.45074 21.75 9.03907 21.7076 8.6516 21.6084C8.28462 21.5144 7.96523 21.3749 7.62543 21.2264L7.59833 21.2146C4.85803 20.0175 0.25 17.0924 0.25 10.9914V9.3899C0.25 7.81378 0.25 6.59836 0.298299 5.71136C0.322624 5.26464 0.360312 4.87556 0.422814 4.55122C0.482934 4.23924 0.578604 3.91516 0.763632 3.65154C0.950822 3.38484 1.22634 3.1859 1.50098 3.02641C1.78637 2.86067 2.14078 2.69846 2.55303 2.53099C3.3714 2.19852 4.51462 1.8072 5.99595 1.30014L6.72339 1.05112ZM9.25 1.83792C8.75255 1.94604 8.1152 2.16015 7.08062 2.5143L6.5078 2.71037C4.99521 3.22814 3.8921 3.60605 3.11759 3.92069C2.731 4.07774 2.4509 4.20935 2.25429 4.32353C2.15722 4.3799 2.09034 4.42642 2.04567 4.46273C2.0078 4.49351 1.99336 4.51095 1.99129 4.51349C1.98936 4.51663 1.97693 4.5374 1.95943 4.58654C1.93944 4.64265 1.91729 4.72309 1.89571 4.83506C1.85204 5.06169 1.81894 5.37301 1.79608 5.79292C1.75473 6.55226 1.75048 7.58298 1.75005 8.95941L9.25 6.45943V1.83792ZM10.75 1.83792V6.45943L18.25 8.95941C18.2495 7.58298 18.2453 6.55226 18.2039 5.79292C18.1811 5.37301 18.148 5.06169 18.1043 4.83506C18.0827 4.72309 18.0606 4.64265 18.0406 4.58654C18.0231 4.53737 18.0106 4.5166 18.0087 4.51348C18.0066 4.51092 17.9922 4.49349 17.9543 4.46273C17.9097 4.42642 17.8428 4.3799 17.7457 4.32353C17.5491 4.20935 17.269 4.07774 16.8824 3.92069C16.1079 3.60605 15.0048 3.22814 13.4922 2.71037L12.9194 2.5143C11.8848 2.16015 11.2475 1.94604 10.75 1.83792ZM9.25 8.04057L1.75 10.5406V10.9914C1.75 16.1665 5.6199 18.7135 8.19879 19.84C8.57027 20.0023 8.78479 20.0941 9.0236 20.1552C9.09307 20.173 9.16721 20.1888 9.25 20.2021V8.04057ZM10.75 20.2021V8.04057L18.25 10.5406V10.9914C18.25 16.1665 14.3801 18.7135 11.8012 19.84C11.4297 20.0023 11.2152 20.0941 10.9764 20.1552C10.9069 20.173 10.8328 20.1888 10.75 20.2021Z" fill="white"/>
</svg>
