<svg width="40" height="40" viewBox="0 0 40 40" fill="none" xmlns="http://www.w3.org/2000/svg">
<path d="M20.0004 0C25.5214 0 30.5249 2.23918 34.1433 5.85756L34.2355 5.95734C37.7989 9.56979 40 14.5293 40 19.9996C40 25.5223 37.76 30.5241 34.1416 34.1424L34.041 34.2346C30.4285 37.7997 25.4665 40.0008 20.0004 40.0008C14.4845 40.0008 9.4827 37.7591 5.86348 34.1382C2.24087 30.5241 0 25.5223 0 19.9996C0 14.4769 2.23918 9.47593 5.85756 5.85756C9.47593 2.23918 14.4777 0 20.0004 0Z" fill="white"/>
<path d="M20.0009 1.7041C23.3394 1.7041 26.469 2.59876 29.1648 4.15976H10.837C13.5328 2.59876 16.6624 1.7041 20.0009 1.7041ZM33.1789 7.30882C33.9535 8.11046 34.652 8.98482 35.2693 9.91753H4.73169C5.34814 8.97975 6.05 8.10285 6.82204 7.30882H33.1789ZM36.9343 13.0564C37.281 13.8995 37.5651 14.7713 37.7833 15.6711H2.21853C2.43923 14.773 2.72843 13.9037 3.06752 13.0564H36.9343V13.0564ZM38.2602 18.8134C38.2856 19.2091 38.3 19.6057 38.3 20.0032C38.3 20.4826 38.2814 20.9587 38.245 21.428H1.75682C1.72131 20.9553 1.70186 20.4758 1.70186 20.0032C1.70186 19.6032 1.71623 19.2066 1.7416 18.8134H38.2602V18.8134ZM37.7258 24.5686C37.4967 25.4622 37.1993 26.3369 36.8362 27.1849H3.16561C2.80623 26.3376 2.5035 25.4607 2.27603 24.5686H37.7258ZM35.1129 30.3238C34.4677 31.2659 33.7387 32.147 32.9329 32.9512H7.06896C6.26563 32.147 5.53417 31.2659 4.88897 30.3238H35.1129ZM28.7479 36.0808C26.1384 37.4989 23.1534 38.3039 20.0009 38.3039C16.8324 38.3039 13.8516 37.498 11.2539 36.0808H28.7479Z" fill="#B22234"/>
<path d="M21.0292 1.7337V21.5557H1.76866C1.72384 21.0424 1.70186 20.5274 1.70186 20.0032C1.70186 9.89724 9.89415 1.7041 20.0009 1.7041C20.3459 1.7041 20.6892 1.71509 21.0292 1.7337V1.7337Z" fill="#3C3B6E"/>
<path d="M2.64929 14.1674L2.73216 14.4261L2.59686 14.3263L2.64929 14.1674V14.1674ZM18.6559 18.3878L19.3332 20.4731L17.5608 19.1835H19.7501L17.9769 20.4731L18.6559 18.3878V18.3878ZM18.6559 14.3576L19.3332 16.4395L17.5608 15.1525H19.7501L17.9769 16.4395L18.6559 14.3576V14.3576ZM18.6559 10.3249L19.3332 12.4093L17.5608 11.1189H19.7501L17.9769 12.4093L18.6559 10.3249V10.3249ZM18.6559 6.29471L19.3332 8.3766L17.5608 7.08874H19.7501L17.9769 8.3766L18.6559 6.29471V6.29471ZM18.6559 2.26367L19.3332 4.34642L17.5608 3.0577H19.7501L17.9769 4.34642L18.6559 2.26367V2.26367ZM16.2814 16.3727L16.9604 18.4563L15.1863 17.1667H17.3756L15.6117 18.4563L16.2814 16.3727V16.3727ZM16.2814 12.3417L16.9604 14.4261L15.1863 13.1357H17.3756L15.6117 14.4261L16.2814 12.3417V12.3417ZM16.2814 8.31149L16.9604 10.3934L15.1863 9.10552H17.3756L15.6117 10.3934L16.2814 8.31149V8.31149ZM16.2814 4.27792L16.9604 6.36236L15.1863 5.0728H17.3756L15.6117 6.36236L16.2814 4.27792V4.27792ZM13.9162 18.3878L14.5953 20.4731L12.8212 19.1835H15.0121L13.2389 20.4731L13.9162 18.3878V18.3878ZM13.9162 14.3576L14.5953 16.4395L12.8212 15.1525H15.0121L13.2389 16.4395L13.9162 14.3576ZM13.9162 10.3249L14.5953 12.4093L12.8212 11.1189H15.0121L13.2389 12.4093L13.9162 10.3249ZM13.9162 6.29471L14.5953 8.3766L12.8212 7.08874H15.0121L13.2389 8.3766L13.9162 6.29471ZM14.0549 2.68563L14.5953 4.34642L12.91 3.12197L13.0672 3.0577H15.0121L13.2389 4.34642L13.7437 2.79556L14.0549 2.68563V2.68563ZM11.5426 16.3727L12.2199 18.4563L10.4467 17.1667H12.6377L10.8636 18.4563L11.5426 16.3727ZM11.5426 12.3417L12.2199 14.4261L10.4467 13.1357H12.6377L10.8636 14.4261L11.5426 12.3417ZM11.5426 8.31149L12.2199 10.3934L10.4467 9.10552H12.6377L10.8636 10.3934L11.5426 8.31149ZM11.5426 4.27792L12.2199 6.36236L10.4467 5.0728H12.6377L10.8636 6.36236L11.5426 4.27792V4.27792ZM9.17742 18.3878L9.84714 20.4731L8.0832 19.1835H10.2725L8.49839 20.4731L9.17742 18.3878V18.3878ZM9.17742 14.3576L9.84714 16.4395L8.0832 15.1525H10.2725L8.49839 16.4395L9.17742 14.3576V14.3576ZM9.17742 10.3249L9.84714 12.4093L8.0832 11.1189H10.2725L8.49839 12.4093L9.17742 10.3249V10.3249ZM9.17742 6.29471L9.84714 8.3766L8.0832 7.08874H10.2725L8.49839 8.3766L9.17742 6.29471V6.29471ZM6.80294 16.3727L7.48197 18.4563L5.70872 17.1667H7.89885L6.12561 18.4563L6.80294 16.3727V16.3727ZM6.80294 12.3417L7.48197 14.4261L5.70872 13.1357H7.89885L6.12561 14.4261L6.80294 12.3417V12.3417ZM6.80294 8.31149L7.48197 10.3934L5.70872 9.10552H7.89885L6.12561 10.3934L6.80294 8.31149V8.31149ZM4.43015 18.3878L5.10749 20.4731L3.33339 19.1835H5.53368L3.75113 20.4731L4.43015 18.3878ZM4.43015 14.3576L5.10749 16.4395L3.33339 15.1525H5.53368L3.75113 16.4395L4.43015 14.3576ZM4.44199 10.3613L5.10749 12.4093L3.80863 11.4648L3.99466 11.1189H5.53368L3.75113 12.4093L4.39379 10.4374L4.44199 10.3613ZM2.06498 16.3727L2.73216 18.4563L1.83328 17.7993L1.79353 18.1603L3.1592 17.1667H1.91784C1.95843 16.9114 2.00409 16.6577 2.05483 16.4065L2.06498 16.3727V16.3727ZM3.03236 13.1357H3.1592L2.97824 13.2685L3.03236 13.1357Z" fill="white"/>
</svg>
