<svg width="40" height="40" viewBox="0 0 40 40" fill="none" xmlns="http://www.w3.org/2000/svg">
<path d="M20 0C25.5226 0 30.5229 2.23912 34.142 5.858C37.761 9.47721 40 14.4774 40 20C40 25.5226 37.761 30.5229 34.1417 34.1417C30.5229 37.761 25.5226 40 20 40C14.4774 40 9.47721 37.761 5.858 34.142C2.23912 30.5229 0 25.5226 0 20C0 14.4774 2.23912 9.47721 5.858 5.858C9.47721 2.23912 14.4774 0 20 0V0Z" fill="white"/>
<path d="M20.0002 1.69141C30.1115 1.69141 38.3083 9.8881 38.3083 19.9996C38.3083 30.1109 30.1115 38.3077 20.0002 38.3077C9.88871 38.3077 1.69202 30.1109 1.69202 19.9996C1.69202 9.8881 9.88871 1.69141 20.0002 1.69141V1.69141Z" fill="#032EA1"/>
<path d="M4.1566 10.8174H35.8437C37.4107 13.516 38.3083 16.6511 38.3083 19.9963C38.3083 23.3717 37.394 26.5329 35.8008 29.2479H4.19958C2.60638 26.5329 1.69202 23.3717 1.69202 19.9963C1.69202 16.6511 2.58988 13.516 4.1566 10.8174V10.8174Z" fill="#E00025"/>
<path d="M14.6008 18.9746H25.0874V23.0096H14.6008V18.9746Z" fill="white"/>
<path d="M14.6008 18.9277H25.0873L25.1315 18.972V23.007L25.0873 23.0509H14.6008L14.5567 23.007V18.972L14.6008 18.9277V18.9277ZM25.0431 19.0161H14.6451V22.9628H25.0431V19.0161V19.0161Z" fill="black"/>
<path d="M24.5464 21.2022H24.8768V22.7221H24.5464V21.2022ZM14.6008 20.451H25.0874V20.9202H14.6008V20.451ZM14.6008 19.8154H25.0874V20.2289H14.6008V19.8154Z" fill="white"/>
<path d="M24.5464 21.1595H24.8768L24.921 21.2037V22.7237L24.8768 22.7678H24.5464L24.5022 22.7237V21.2037L24.5464 21.1595ZM24.8326 21.2479H24.5906V22.6794H24.8326V21.2479ZM14.6008 20.4083H25.0873L25.1315 20.4525V20.9218L25.0873 20.9657H14.6008L14.5567 20.9218V20.4525L14.6008 20.4083V20.4083ZM25.0431 20.4969H14.6451V20.8775H25.0431V20.4969ZM14.6008 19.7725H25.0873L25.1315 19.817V20.2305L25.0873 20.2747H14.6008L14.5567 20.2305V19.817L14.6008 19.7725V19.7725ZM25.0431 19.8611H14.6451V20.1863H25.0431V19.8611V19.8611Z" fill="black"/>
<path d="M14.6008 19.1797H25.0874V19.581H14.6008V19.1797Z" fill="white"/>
<path d="M14.6001 19.1348H25.0866L25.1303 19.1782V19.5795L25.0866 19.623H14.6001L14.5567 19.5795V19.1782L14.6001 19.1348ZM25.0431 19.2219H14.6438V19.5358H25.0431V19.2219Z" fill="black"/>
<path d="M17.3614 21.2002H17.6917V22.7201H17.3614V21.2002ZM21.8755 21.2002H22.206V22.7201H21.8755V21.2002ZM14.6834 21.2002H15.014V22.7201H14.6834V21.2002ZM15.3313 21.2002H15.6616V22.7201H15.3313V21.2002ZM16.0225 21.2002H16.3529V22.7201H16.0225V21.2002ZM16.7135 21.2002H17.0439V22.7201H16.7135V21.2002ZM22.5021 21.2002H22.8326V22.7201H22.5021V21.2002ZM23.1935 21.2002H23.5238V22.7201H23.1935V21.2002ZM23.8844 21.2002H24.2149V22.7201H23.8844V21.2002Z" fill="white"/>
<path d="M17.3622 21.1602H17.6926L17.7368 21.2044V22.7243L17.6926 22.7685H17.3622L17.318 22.7243V21.2044L17.3622 21.1602ZM17.6484 21.2486H17.4064V22.6801H17.6484V21.2486ZM21.8764 21.1602H22.2068L22.2511 21.2044V22.7243L22.2068 22.7685H21.8764L21.8323 22.7243V21.2044L21.8764 21.1602ZM22.1627 21.2486H21.9207V22.6801H22.1627V21.2486ZM14.6843 21.1602H15.0149L15.0591 21.2044V22.7243L15.0149 22.7685H14.6843L14.6401 22.7243V21.2044L14.6843 21.1602ZM14.9705 21.2486H14.7287V22.6801H14.9705V21.2486ZM15.3321 21.1602H15.6625L15.707 21.2044V22.7243L15.6625 22.7685H15.3321L15.2879 22.7243V21.2044L15.3321 21.1602ZM15.6183 21.2486H15.3763V22.6801H15.6183V21.2486ZM16.0234 21.1602H16.3538L16.3979 21.2044V22.7243L16.3538 22.7685H16.0234L15.9791 22.7243V21.2044L16.0234 21.1602ZM16.3095 21.2486H16.0676V22.6801H16.3095V21.2486ZM16.7143 21.1602H17.0448L17.089 21.2044V22.7243L17.0448 22.7685H16.7143L16.6702 22.7243V21.2044L16.7143 21.1602ZM17.0006 21.2486H16.7586V22.6801H17.0006V21.2486ZM22.503 21.1602H22.8334L22.8779 21.2044V22.7243L22.8334 22.7685H22.503L22.4589 22.7243V21.2044L22.503 21.1602ZM22.7892 21.2486H22.5473V22.6801H22.7892V21.2486ZM23.1943 21.1602H23.5247L23.5689 21.2044V22.7243L23.5247 22.7685H23.1943L23.1501 22.7243V21.2044L23.1943 21.1602ZM23.4805 21.2486H23.2385V22.6801H23.4805V21.2486ZM23.8853 21.1602H24.2157L24.26 21.2044V22.7243L24.2157 22.7685H23.8853L23.8411 22.7243V21.2044L23.8853 21.1602ZM24.1716 21.2486H23.9295V22.6801H24.1716V21.2486Z" fill="black"/>
<path d="M10.5 23.2207C10.662 23.138 10.8471 22.9457 10.9075 22.7305H28.6986C28.7593 22.9457 28.9443 23.138 29.1064 23.2207H10.5Z" fill="white"/>
<path d="M10.4803 23.1776C10.5612 23.1364 10.6484 23.066 10.7213 22.9784C10.7857 22.901 10.8387 22.81 10.8654 22.7151L10.8746 22.6826H28.7323L28.7413 22.7151C28.7681 22.81 28.8213 22.901 28.8856 22.9784C28.9583 23.066 29.0458 23.1364 29.1267 23.1776L29.2908 23.2613H10.316L10.4803 23.1776V23.1776ZM10.789 23.0348C10.7468 23.0855 10.6996 23.1317 10.6481 23.1729H28.9586C28.9072 23.1317 28.8601 23.0854 28.818 23.0348C28.7533 22.9569 28.6989 22.8667 28.6664 22.7713H10.9403C10.9081 22.8667 10.8537 22.9569 10.789 23.0348V23.0348Z" fill="black"/>
<path d="M19.5761 12.8294C19.5761 12.8294 19.5629 12.4503 19.7834 12.4463C20.0041 12.4503 19.9909 12.8294 19.9909 12.8294H19.5761ZM18.4251 17.8551V17.3449C18.4178 17.0899 18.1708 17.0714 18.1636 16.8854C18.1636 16.8854 18.1316 16.6067 18.2053 16.4794C18.3052 16.8522 18.4867 16.7837 18.4867 16.6304C18.4867 16.4965 18.3839 16.3719 18.1728 16.047C18.1054 15.9431 18.1471 15.6178 18.2417 15.5014C18.2782 15.7843 18.3202 15.9197 18.4418 15.9197C18.5159 15.9197 18.5764 15.8715 18.5764 15.7296C18.5764 15.5493 18.4542 15.4584 18.3943 15.2944C18.3241 15.1027 18.3726 14.9078 18.4888 14.7985C18.5387 15.0778 18.5237 15.189 18.6478 15.189C18.8978 15.1098 18.6478 14.7479 18.5943 14.6565C18.5329 14.5501 18.677 14.3378 18.677 14.3378C18.7564 14.5855 18.7821 14.6058 18.8678 14.5828C18.9759 14.5539 18.962 14.3932 18.8298 14.2636C18.7467 14.1818 18.7555 14.0599 18.8451 13.962C18.9347 14.1375 19.0499 14.127 19.0609 14.0226L18.9887 13.6178H20.5788L20.4998 14.0094C20.4771 14.1215 20.6285 14.1458 20.7224 13.962C20.8121 14.0599 20.8208 14.1818 20.7374 14.2636C20.6055 14.3935 20.5915 14.5539 20.6997 14.5828C20.7853 14.6058 20.8108 14.5855 20.8904 14.3378C20.8904 14.3378 21.0196 14.4824 20.9729 14.6568C20.9194 14.7479 20.6695 15.11 20.9194 15.189C21.0435 15.189 21.0288 15.0775 21.0785 14.7985C21.1949 14.9078 21.2431 15.1027 21.1731 15.2944C21.1132 15.4584 20.9911 15.5493 20.9911 15.7296C20.9911 15.8715 21.0515 15.9197 21.1257 15.9197C21.2473 15.9197 21.2893 15.7843 21.3257 15.5014C21.4204 15.6178 21.4621 15.9431 21.3947 16.047C21.1836 16.3722 21.0808 16.4965 21.0808 16.6304C21.0808 16.7837 21.2623 16.8522 21.3622 16.4794C21.4356 16.6067 21.4039 16.8857 21.4039 16.8857C21.3964 17.0714 21.1494 17.0899 21.1422 17.3449V17.8551H18.4251V17.8551ZM19.0904 13.6144L19.0539 13.3264H20.5134L20.4767 13.6144H19.0904V13.6144ZM19.188 13.3204L19.1568 13.0839H20.4102L20.3788 13.3204H19.188ZM19.3871 13.0754L19.3663 12.8386H20.201L20.1799 13.0754H19.3871V13.0754ZM22.4298 23.219C22.243 23.1471 21.9713 22.9501 21.9713 22.7517V20.5128L22.2143 20.2034H17.3511L17.5842 20.513V22.7519C17.5842 22.9501 17.3974 23.1471 17.2109 23.219H22.4298V23.219Z" fill="white"/>
<path d="M19.5318 12.7937C19.5353 12.691 19.5642 12.4056 19.7823 12.4014H19.7837C20.0021 12.4053 20.031 12.691 20.0343 12.7937H20.2487L20.2272 13.0387H20.4603L20.4281 13.2814H20.5629L20.526 13.5731H20.6321L20.5424 14.0174C20.5397 14.0314 20.5412 14.0413 20.5454 14.0463C20.5478 14.0489 20.551 14.0505 20.5545 14.0511C20.5625 14.0526 20.5707 14.0519 20.5784 14.0491C20.6109 14.0391 20.6498 14.0059 20.6828 13.9413L20.7117 13.8848L20.7544 13.9317C20.8067 13.9887 20.8354 14.0538 20.8384 14.1173C20.8417 14.1822 20.8187 14.2444 20.768 14.2944C20.7195 14.3421 20.6893 14.3932 20.677 14.4387C20.6716 14.4569 20.67 14.476 20.672 14.4949C20.6741 14.5079 20.6791 14.5186 20.6866 14.5264C20.6933 14.5328 20.7016 14.5372 20.7105 14.5393C20.7355 14.5461 20.7512 14.5474 20.7627 14.5333C20.7857 14.5052 20.8099 14.442 20.8478 14.3235L20.8711 14.2514L20.9225 14.3074C20.9228 14.3078 21.0679 14.4704 21.0152 14.6673L21.014 14.6727L20.993 14.7074C20.9587 14.7631 20.8996 14.8595 20.8706 14.9512C20.8444 15.0341 20.8446 15.114 20.9256 15.1437C20.9807 15.1395 20.9897 15.0791 21.0104 14.9409C21.0172 14.8964 21.0247 14.8455 21.0347 14.7901L21.0489 14.7099L21.1084 14.7656C21.1751 14.8281 21.2215 14.9152 21.2402 15.0136C21.2584 15.1124 21.2494 15.2143 21.2142 15.3085C21.19 15.3745 21.1575 15.4279 21.1261 15.4794C21.0791 15.5563 21.035 15.6287 21.035 15.7288C21.035 15.7848 21.0447 15.822 21.0609 15.8447C21.0762 15.8662 21.0991 15.8747 21.1253 15.8747C21.1661 15.8747 21.1943 15.8497 21.2168 15.7983C21.2453 15.7333 21.264 15.6325 21.2816 15.4951L21.2949 15.3932L21.3596 15.4729C21.4123 15.5376 21.4497 15.6572 21.4645 15.7733C21.4792 15.8912 21.4707 16.0095 21.4313 16.0705C21.3905 16.1332 21.3556 16.1856 21.3246 16.2326C21.1903 16.4349 21.1246 16.5338 21.1246 16.6296C21.1246 16.6611 21.1341 16.6866 21.1491 16.6998C21.1543 16.705 21.1612 16.7081 21.1685 16.7085C21.177 16.7088 21.1872 16.7056 21.199 16.6978C21.2392 16.6706 21.2834 16.6004 21.3191 16.4671L21.3469 16.3641L21.4001 16.4566C21.4762 16.5887 21.4505 16.8589 21.4474 16.8879C21.443 16.9907 21.3828 17.0464 21.3181 17.1064C21.2567 17.1636 21.1898 17.2257 21.186 17.3442V17.8983C20.251 17.8979 19.3157 17.8983 18.3804 17.8983V17.3442C18.3767 17.2257 18.3101 17.1636 18.2484 17.1064C18.1839 17.0464 18.1237 16.9907 18.1193 16.8879C18.1163 16.8594 18.0903 16.5887 18.1667 16.4564L18.2199 16.3641L18.2476 16.4671C18.2833 16.6004 18.3276 16.6706 18.3678 16.6978C18.3795 16.7056 18.3898 16.7088 18.3982 16.7085C18.4056 16.7081 18.4126 16.705 18.4179 16.6998C18.4329 16.6866 18.4422 16.6613 18.4422 16.6296C18.4422 16.5338 18.3765 16.4346 18.2419 16.2321C18.2109 16.1854 18.1762 16.1329 18.1355 16.0705C18.096 16.0095 18.0876 15.8912 18.1022 15.7733C18.117 15.6569 18.1545 15.5376 18.2072 15.4729L18.2718 15.3932L18.2851 15.4951C18.3028 15.6325 18.3215 15.7333 18.35 15.7983C18.3722 15.8495 18.4007 15.8747 18.4414 15.8747C18.4674 15.8747 18.4906 15.866 18.5058 15.8447C18.5218 15.822 18.5318 15.7848 18.5318 15.7288C18.5318 15.6287 18.4876 15.556 18.4407 15.4794C18.4092 15.4279 18.3765 15.3745 18.3523 15.3085C18.3173 15.2144 18.3084 15.1126 18.3266 15.0138C18.3453 14.9152 18.3917 14.8278 18.4581 14.7656L18.5176 14.7099L18.5318 14.7901C18.5419 14.8455 18.5496 14.8964 18.5561 14.9407C18.5768 15.0791 18.586 15.1395 18.641 15.1437C18.7219 15.1137 18.7224 15.0341 18.6962 14.9512C18.6672 14.8598 18.608 14.7636 18.5737 14.7077L18.5558 14.6777C18.4804 14.5471 18.6395 14.313 18.64 14.3124L18.6907 14.2362L18.7187 14.3235C18.7566 14.442 18.781 14.5052 18.8038 14.5333C18.8155 14.5474 18.831 14.5461 18.856 14.5393C18.8651 14.5372 18.8734 14.5326 18.8802 14.5261C18.8881 14.5175 18.8931 14.5066 18.8944 14.4949C18.8966 14.476 18.895 14.4569 18.8897 14.4387C18.8774 14.3932 18.8472 14.3421 18.7988 14.2944C18.7478 14.2444 18.7248 14.1822 18.7281 14.1173C18.7313 14.0538 18.7599 13.9887 18.8121 13.9314L18.8549 13.8848L18.884 13.9413C18.9126 13.9977 18.9429 14.0312 18.9697 14.0459C18.9773 14.0506 18.9861 14.0531 18.995 14.0531C18.9989 14.0529 19.0026 14.0512 19.0054 14.0484C19.0113 14.0412 19.0149 14.0324 19.0158 14.0231L18.9356 13.5731H19.0405L19.0036 13.2814H19.1382L19.1059 13.0387H19.3393L19.3175 12.7937H19.5318V12.7937ZM19.783 12.4895C19.6472 12.4927 19.6239 12.6943 19.6202 12.7844H19.9458C19.9423 12.6941 19.9189 12.4927 19.783 12.4895V12.4895ZM18.4689 17.3442V17.8101H21.0976L21.0979 17.3429C21.1024 17.1866 21.1833 17.1111 21.2582 17.042C21.3091 16.9945 21.3568 16.9503 21.3593 16.8831L21.3598 16.8792C21.3598 16.8787 21.3755 16.7408 21.359 16.6209C21.3249 16.6978 21.2862 16.7455 21.2482 16.771C21.22 16.79 21.1915 16.7977 21.1648 16.7968C21.1369 16.7955 21.1104 16.7844 21.0899 16.7655C21.0569 16.736 21.0359 16.6869 21.0359 16.6296C21.0359 16.5075 21.1066 16.4011 21.2509 16.1839C21.2834 16.1349 21.3196 16.0802 21.3574 16.0223C21.3851 15.9796 21.3896 15.8839 21.3771 15.7842C21.3713 15.7378 21.3616 15.6918 21.3481 15.6469C21.3343 15.7241 21.3184 15.786 21.2976 15.8335C21.2597 15.9206 21.2063 15.9631 21.1253 15.9631C21.0719 15.9631 21.0232 15.9439 20.989 15.8957C20.9625 15.8584 20.9466 15.8043 20.9466 15.7288C20.9466 15.6045 20.9972 15.5213 21.0507 15.4334C21.0799 15.3857 21.1101 15.3361 21.1313 15.2785C21.1609 15.1991 21.1686 15.1132 21.1536 15.0298C21.1451 14.9848 21.1289 14.9416 21.1056 14.9022L21.0979 14.9537C21.0684 15.1505 21.0559 15.2323 20.9191 15.2323H20.9126L20.9059 15.2304C20.752 15.1817 20.745 15.0548 20.7862 14.9244C20.8184 14.8233 20.8813 14.7206 20.9175 14.6614L20.9312 14.639C20.9508 14.5593 20.9283 14.4869 20.9031 14.4367C20.8761 14.5131 20.8543 14.5603 20.8312 14.589C20.7887 14.6413 20.7485 14.641 20.6878 14.6248C20.6635 14.6186 20.6413 14.6059 20.6236 14.5881C20.6026 14.5663 20.5892 14.5384 20.5852 14.5084C20.5808 14.4775 20.583 14.446 20.5916 14.416C20.6076 14.3563 20.6458 14.2906 20.7061 14.2317C20.738 14.2002 20.7522 14.1615 20.7502 14.1215C20.7484 14.0927 20.7398 14.0648 20.7253 14.0399C20.687 14.0916 20.6436 14.1213 20.6044 14.1335C20.5802 14.1411 20.5567 14.142 20.5359 14.1375C20.5131 14.1329 20.4925 14.1207 20.4776 14.1028C20.4568 14.0776 20.4478 14.0421 20.4563 14.0001L20.5244 13.6612H19.0411L19.1052 14.0202L19.1045 14.0264C19.1007 14.0609 19.088 14.089 19.069 14.1091C19.0514 14.128 19.0273 14.1394 19.0015 14.1412C18.9753 14.1426 18.9493 14.1362 18.9267 14.1228C18.8984 14.1073 18.869 14.0803 18.841 14.0407C18.826 14.0673 18.8176 14.0948 18.8163 14.1215C18.8143 14.1615 18.8287 14.2002 18.8604 14.2314C18.9207 14.2906 18.9592 14.3565 18.9749 14.416C18.9836 14.4485 18.9858 14.4799 18.9816 14.5081C18.9775 14.5382 18.964 14.5662 18.9429 14.5881C18.9262 14.605 18.9047 14.6178 18.8787 14.6248C18.8182 14.641 18.778 14.641 18.7356 14.589C18.7129 14.5613 18.6917 14.5161 18.666 14.4439C18.6352 14.5054 18.6055 14.5868 18.6319 14.6335L18.6492 14.6618C18.6857 14.7211 18.7484 14.8233 18.7803 14.9244C18.8215 15.0548 18.8145 15.1817 18.6607 15.2304L18.6542 15.2323H18.6474C18.5106 15.2323 18.4981 15.1505 18.4686 14.9537L18.4609 14.9022C18.4384 14.9402 18.4222 14.9834 18.4132 15.0301C18.398 15.1134 18.4057 15.1992 18.4354 15.2785C18.4564 15.3361 18.4866 15.3857 18.5158 15.4334C18.5695 15.5213 18.6202 15.6042 18.6202 15.7288C18.6202 15.8043 18.604 15.8582 18.5777 15.8957C18.5435 15.9439 18.4948 15.9631 18.4414 15.9631C18.3605 15.9631 18.307 15.9206 18.2691 15.8335C18.2484 15.786 18.2324 15.7241 18.2186 15.6469C18.2052 15.6918 18.1955 15.7378 18.1897 15.7842C18.1772 15.8836 18.1816 15.9796 18.2094 16.0223C18.2471 16.0802 18.2833 16.1346 18.3156 16.1834C18.4599 16.4009 18.5309 16.5075 18.5309 16.6296C18.5309 16.6866 18.5099 16.736 18.4766 16.7655C18.4562 16.7844 18.4298 16.7955 18.4019 16.7968C18.372 16.7974 18.3427 16.7883 18.3183 16.771C18.2805 16.7455 18.2419 16.6976 18.2075 16.6209C18.191 16.7405 18.2069 16.8787 18.2069 16.8792L18.2072 16.8831C18.2099 16.9501 18.2574 16.9943 18.3085 17.0417C18.3832 17.1111 18.4644 17.1866 18.4689 17.3429V17.3442V17.3442ZM19.1035 13.3698L19.1289 13.5694H20.4376L20.463 13.3698H19.1035ZM19.2066 13.1274L19.2263 13.2754H20.3399L20.3596 13.1274H19.2066V13.1274ZM19.4141 12.8821L19.4271 13.0304H20.1391L20.1521 12.8821H19.4141ZM22.2462 23.1742C22.1811 23.1338 22.1209 23.0862 22.0666 23.0322C21.9845 22.9484 21.9268 22.8511 21.9268 22.7509V20.4968L22.123 20.2468H17.4395L17.6281 20.4976V22.7512C17.6281 22.8556 17.582 22.9589 17.5119 23.0467C17.4733 23.0947 17.4286 23.1376 17.379 23.1742H22.2462ZM22.1295 22.9702C22.2204 23.0629 22.3458 23.1388 22.4454 23.177L22.6665 23.2622L16.974 23.2625L17.1945 23.1773C17.2856 23.1421 17.3771 23.0746 17.4432 22.9917C17.5014 22.919 17.5396 22.8347 17.5396 22.7512V20.5268L17.2622 20.1584H22.3048L22.0152 20.5273V22.7509C22.0152 22.8251 22.0624 22.9018 22.1295 22.9702V22.9702Z" fill="black"/>
<path d="M18.2156 21.2002H18.546V22.7201H18.2156V21.2002ZM21.0095 21.2002H21.3398V22.7201H21.0095V21.2002Z" fill="white"/>
<path d="M18.2165 21.1602H18.5468L18.5911 21.2044V22.7243L18.5468 22.7685H18.2165L18.1723 22.7243V21.2044L18.2165 21.1602ZM18.5027 21.2486H18.2607V22.6801H18.5027V21.2486ZM21.0103 21.1602H21.3407L21.3849 21.2044V22.7243L21.3407 22.7685H21.0103L20.9661 22.7243V21.2044L21.0103 21.1602ZM21.2965 21.2486H21.0545V22.6801H21.2965V21.2486Z" fill="black"/>
<path d="M17.2637 17.6572V20.2058H22.242V19.6569L22.249 17.6572C22.0455 17.7372 22.0098 17.9217 22.0098 17.9217V19.007H17.5175V17.9217C17.5175 17.9217 17.4675 17.7372 17.2637 17.6572V17.6572Z" fill="white"/>
<path d="M17.3079 17.7294V20.1627H22.1975V19.6583L22.2047 17.7298C22.0902 17.8 22.0591 17.9066 22.0539 17.9281V19.0527H17.4732V17.9293C17.4653 17.9049 17.425 17.799 17.3079 17.7294V17.7294ZM17.2195 20.2072V17.6654L17.192 17.583L17.2797 17.6174C17.5042 17.7056 17.5602 17.9114 17.5602 17.9118L17.5616 17.9178V18.9643H21.9655V17.9189L21.9663 17.9146C21.9665 17.9141 22.0067 17.7063 22.233 17.6174L22.2935 17.5937L22.2859 19.6583L22.2862 20.2514H17.2195V20.2072V20.2072Z" fill="black"/>
<path d="M21.5661 23.2217C21.4033 23.1498 21.0489 22.9528 21.0489 22.7544V20.2489C21.0838 20.109 21.2734 20.0263 21.3956 19.9395H18.0945C18.2516 20.0226 18.4267 20.0918 18.4893 20.2489V22.7547C18.4893 22.9528 18.2091 23.1498 18.0463 23.2217H21.5661V23.2217Z" fill="white"/>
<path d="M21.3833 23.1739C21.3059 23.1292 21.223 23.0742 21.1556 23.0131C21.0683 22.9344 21.0052 22.8446 21.0052 22.7506V20.24L21.0067 20.2346C21.0347 20.1216 21.1405 20.0465 21.2462 19.9795H18.2756C18.3854 20.0402 18.4839 20.1109 18.5308 20.2288L18.534 20.2373V22.7508C18.534 22.8475 18.4789 22.9412 18.4014 23.0228C18.3473 23.0797 18.2815 23.1317 18.2172 23.1739H21.3833ZM21.2144 22.9477C21.3278 23.05 21.4895 23.1355 21.5843 23.1774L21.7756 23.2619L17.838 23.2621L18.0291 23.1774C18.1189 23.1377 18.2461 23.0583 18.3375 22.9619C18.4005 22.8955 18.4456 22.8218 18.4456 22.7508V20.2535C18.3955 20.1386 18.2678 20.0736 18.1404 20.0088L18.0745 19.9745L17.9177 19.8916H21.5339L21.4215 19.9715C21.3913 19.993 21.3591 20.0133 21.3261 20.0337C21.2267 20.0956 21.1189 20.1631 21.0936 20.2505V22.7506C21.0936 22.8158 21.1446 22.8845 21.2144 22.9477Z" fill="black"/>
<path d="M22.01 19.9673V18.1625H21.5575V17.9863H17.9785V18.1625H17.526V19.9673H22.01ZM20.8535 23.2229C20.6941 23.1509 20.4619 22.9539 20.4619 22.7556V20.6166L20.5927 20.4221H18.9627L19.0936 20.6166V22.7558C19.0936 22.9539 18.8613 23.1509 18.702 23.2229H20.8535Z" fill="white"/>
<path d="M21.9654 19.9262V18.2098H21.513V18.034H18.0225V18.2098H17.57V19.9262H21.9654V19.9262ZM22.0539 18.1656V20.0146H17.4816V18.1214H17.9341V17.9453H21.6014V18.1214H22.0539V18.1656V18.1656ZM20.6929 23.182C20.6352 23.1402 20.5828 23.0916 20.5366 23.0374C20.4666 22.954 20.4174 22.8573 20.4174 22.7587V20.6065L20.5096 20.4694H19.0454L19.1375 20.6065V22.7589C19.1375 22.8576 19.0884 22.954 19.0184 23.0374C18.9721 23.0917 18.9196 23.1402 18.8618 23.182H20.6929ZM20.6042 22.9808C20.6812 23.0724 20.787 23.1478 20.8715 23.1858L21.058 23.27L18.4972 23.2702L18.6836 23.1858C18.7679 23.1478 18.8738 23.0724 18.9507 22.9808C19.0084 22.9118 19.0491 22.8344 19.0491 22.7589V20.633L18.8796 20.381H20.6755L20.5058 20.633V22.7587C20.5058 22.8344 20.5465 22.9118 20.6042 22.9808V22.9808Z" fill="black"/>
<path d="M19.365 20.4238H20.1911V23.2228H19.365V20.4238Z" fill="white"/>
<path d="M19.3647 20.3779H20.2361V23.2672L19.3196 23.2674V20.3779H19.3647ZM20.1456 20.4684H19.4099V23.1773H20.1456V20.4684Z" fill="black"/>
<path d="M20.6247 19.8067C20.6268 19.6224 21.1627 19.6142 21.4386 19.457H18.1256C18.4016 19.6142 18.925 19.6269 18.925 19.8067L19.0372 20.1643L20.4088 20.2195L20.6247 19.8067V19.8067Z" fill="white"/>
<path d="M20.5809 19.7979C20.5929 19.6635 20.7919 19.6133 21.0135 19.5574C21.0789 19.5409 21.1463 19.5239 21.2107 19.5044H18.3492C18.4132 19.5244 18.4801 19.5419 18.5448 19.5586C18.7658 19.6163 18.9621 19.6678 18.9685 19.8029L19.0697 20.1248L20.3821 20.1775L20.5809 19.7979ZM21.0349 19.643C20.8419 19.6917 20.6691 19.7354 20.6683 19.8101L20.6633 19.8304L20.4473 20.2432L20.4066 20.2666L19.035 20.2116L18.9946 20.1807L18.8824 19.8231L18.8804 19.8099C18.8804 19.7375 18.7121 19.6935 18.5226 19.644C18.3775 19.6061 18.2209 19.5653 18.1035 19.4984L18.1252 19.416H21.4382L21.46 19.4984C21.3419 19.5656 21.183 19.6058 21.0349 19.643V19.643Z" fill="black"/>
<path d="M21.2726 17.8618C21.2726 17.4102 21.2913 17.2364 21.4302 17.2364V18.6721C21.09 18.7955 20.8473 19.2296 20.8473 19.2296H18.7086C18.7086 19.2296 18.4658 18.7955 18.1256 18.6721V17.2364C18.2967 17.2364 18.2977 17.4182 18.2977 17.8618H21.2726ZM21.4302 17.6764C21.4302 17.1587 21.8772 17.1006 21.8772 17.1006V17.5613C21.7071 17.5538 21.625 17.7066 21.625 17.9339C21.625 18.1612 21.7618 18.165 21.7618 18.165V19.4723H21.4302V17.6764Z" fill="white"/>
<path d="M21.2294 17.8163C21.2301 17.6115 21.2356 17.4666 21.2573 17.369C21.2845 17.2449 21.337 17.1909 21.4311 17.1909H21.4753V17.3213C21.615 17.0893 21.8712 17.0558 21.8722 17.0556L21.9224 17.0488V17.605L21.8665 17.604C21.806 17.604 21.7603 17.6305 21.7291 17.6764C21.6941 17.7279 21.6746 17.8038 21.6706 17.8962L21.6701 17.9327C21.6701 18.118 21.7665 18.1197 21.7668 18.1197L21.807 18.1235V19.5155H21.3869V18.7376C21.0933 18.8804 20.8872 19.2486 20.8867 19.2498L20.8742 19.2722C20.1439 19.2722 19.4137 19.2715 18.6835 19.2722L18.6708 19.2498C18.6703 19.2486 18.4363 18.8302 18.1116 18.7124L18.0824 18.7016V17.1909H18.1266C18.2377 17.1909 18.2932 17.2471 18.3199 17.3722C18.3411 17.471 18.3429 17.6153 18.3429 17.8163H21.2294ZM21.3432 17.3881C21.3223 17.4834 21.3178 17.6373 21.3178 17.8605V17.9044C20.2965 17.9044 19.2754 17.9037 18.2545 17.9044V17.8605C18.2545 17.6412 18.2542 17.4867 18.2335 17.3908C18.2218 17.3358 18.2028 17.3024 18.1708 17.2878V18.6407C18.464 18.7633 18.6803 19.0947 18.7345 19.1844L20.823 19.1841C20.8775 19.0947 21.0938 18.7633 21.3869 18.6407V17.2948C21.3674 17.3113 21.3535 17.3418 21.3432 17.3881ZM21.4753 17.6752V19.4269H21.7186V18.1984C21.6664 18.1789 21.5817 18.119 21.5817 17.9327L21.5827 17.8922C21.5872 17.7839 21.6117 17.6924 21.6562 17.627C21.6984 17.5649 21.7576 17.5259 21.8337 17.5174V17.1545C21.7248 17.1865 21.4753 17.3006 21.4753 17.6752V17.6752Z" fill="black"/>
<path d="M18.1275 17.6764C18.1275 17.1587 17.6805 17.1006 17.6805 17.1006V17.5613C17.8507 17.5538 17.9326 17.7066 17.9326 17.9339C17.9326 18.1612 17.7958 18.165 17.7958 18.165V19.4723H18.1275V17.6764Z" fill="white"/>
<path d="M18.083 17.6723C18.083 17.2977 17.8338 17.1836 17.7247 17.1516V17.5145C17.8009 17.523 17.86 17.562 17.9023 17.6241C17.9467 17.6895 17.9712 17.781 17.9759 17.8894L17.977 17.9298C17.977 18.1161 17.892 18.176 17.8398 18.1955V19.424H18.083V17.6723ZM17.6863 17.0527C17.6877 17.053 18.1717 17.1159 18.1717 17.6723V19.5127H17.7514V18.1206L17.7916 18.1168C17.7919 18.1168 17.8883 18.1151 17.8883 17.9298L17.8878 17.8933C17.8838 17.801 17.8643 17.725 17.8293 17.6736C17.7981 17.6276 17.7524 17.6011 17.692 17.6011L17.636 17.6022V17.0459L17.6863 17.0527V17.0527ZM19.0083 14.0684H20.5866V14.1423H19.0083V14.0684V14.0684ZM18.8213 14.5614H20.749V14.6352H18.8213V14.5614V14.5614ZM18.6343 15.1595H20.9291V15.2332H18.6343V15.1595ZM18.4389 15.8902H21.1606V15.9639H18.4389V15.8902V15.8902ZM18.3762 16.7233H21.1798V16.797H18.3762V16.7233V16.7233Z" fill="black"/>
<path d="M17.526 19.4326H22.01V19.5213H20.655V20.1326C20.0716 20.1326 19.4879 20.1324 18.9045 20.1329V19.5213H17.526V19.4326V19.4326ZM20.5666 19.522H18.9929V20.0447H20.5666V19.522V19.522Z" fill="black"/>
<path d="M18.7402 18.1223C19.0156 18.4533 18.9901 19.0145 18.9871 19.3451H20.5852C20.582 19.0142 20.5564 18.453 20.8319 18.1223H18.7402ZM19.6386 14.3324L19.4196 14.2195V13.8973C19.509 13.9243 19.6097 13.935 19.6194 14.0779C19.6507 13.8744 19.7068 13.8841 19.7952 13.8047C19.8834 13.8841 19.9395 13.8741 19.9708 14.0779C19.9806 13.9353 20.0812 13.9243 20.1706 13.8973V14.2195L19.9516 14.3324H19.6386Z" fill="white"/>
<path d="M18.8275 18.1721C19.0421 18.497 19.0361 18.9708 19.0318 19.2882L19.0316 19.3064H20.5404L20.5403 19.2887C20.5362 18.9713 20.5299 18.497 20.7445 18.1721H18.8275V18.1721ZM18.9437 19.287C18.9479 18.9581 18.9546 18.454 18.7064 18.1561L18.646 18.0837H20.926L20.8659 18.1561C20.6174 18.4543 20.6241 18.9585 20.6284 19.2874L20.6298 19.3948H18.9424L18.9437 19.287V19.287ZM19.5945 14.3646L19.3755 14.252V13.8432L19.4606 13.8686C19.5158 13.8839 19.571 13.8994 19.61 13.9395C19.6364 13.8753 19.6711 13.8499 19.7154 13.8174C19.7306 13.8062 19.7475 13.7937 19.7655 13.7775L19.7952 13.751L19.8247 13.7775C19.8427 13.7937 19.8597 13.8062 19.8752 13.8174C19.9192 13.8499 19.9538 13.8753 19.9803 13.9395C20.0192 13.8994 20.0745 13.8839 20.1296 13.8686L20.2148 13.8432V14.252L19.9955 14.3649L19.9873 14.4842L19.9711 14.3773L19.9626 14.3818H19.6277L19.6192 14.3773L19.6027 14.4854L19.5945 14.3646V14.3646ZM19.4639 14.1983L19.5875 14.2618L19.5752 14.0864C19.5697 14.0032 19.5198 13.9783 19.4639 13.9613V14.1983V14.1983ZM19.6331 14.2854L19.6494 14.2937H19.9408L19.9571 14.2854L19.9271 14.0899C19.9056 13.9493 19.8721 13.9248 19.823 13.8886L19.7952 13.8679L19.7673 13.8886C19.7181 13.9248 19.6846 13.9493 19.6632 14.0899L19.6331 14.2854ZM20.0147 14.0861L20.0028 14.262L20.1264 14.1983V13.9613C20.0704 13.9783 20.0205 14.0032 20.0147 14.0861V14.0861Z" fill="black"/>
<path d="M19.624 14.8675L19.2604 14.6174V14.3202C19.3878 14.3498 19.5309 14.362 19.5448 14.5183C19.5893 14.295 19.6692 14.1797 19.7951 14.0928C19.921 14.1797 20.0009 14.295 20.0453 14.5183C20.0594 14.362 20.2024 14.35 20.3298 14.3202V14.6174L19.9661 14.8675H19.624V14.8675Z" fill="white"/>
<path d="M19.5985 14.9017L19.2159 14.6385V14.2629L19.3108 14.2844C19.396 14.3026 19.4811 14.3208 19.5346 14.3785C19.5509 14.3264 19.5734 14.2763 19.6015 14.2294C19.6462 14.1563 19.7019 14.1013 19.7698 14.0544L19.7948 14.0371L19.8198 14.0544C19.8878 14.1013 19.9434 14.1563 19.9881 14.2294C20.0141 14.2724 20.0363 14.3213 20.0551 14.3785C20.1085 14.3208 20.1937 14.3026 20.2786 14.2844L20.3738 14.2629V14.6385L19.9794 14.9097H19.6103L19.5985 14.9017ZM19.3043 14.5923L19.5206 14.7409L19.5007 14.5204C19.4916 14.4174 19.3995 14.3938 19.3043 14.3733V14.5923ZM19.5421 14.7559L19.6372 14.8213H19.9524L20.0476 14.7559L20.0016 14.5249C19.9804 14.4185 19.9511 14.3386 19.9127 14.2754C19.882 14.225 19.842 14.1808 19.7948 14.1453C19.7476 14.1809 19.7076 14.2251 19.677 14.2756C19.6382 14.3386 19.609 14.4185 19.588 14.5249L19.5421 14.7559V14.7559ZM20.0888 14.5204L20.0691 14.7409L20.2853 14.5923V14.3733C20.1902 14.3938 20.098 14.4174 20.0888 14.5204Z" fill="black"/>
<path d="M19.5985 15.6907L19.1804 15.3236V14.8871C19.327 14.9305 19.4916 14.9483 19.5079 15.1781C19.5588 14.8499 19.6507 14.6803 19.7952 14.5527C19.9399 14.6806 20.032 14.8499 20.0829 15.1781C20.0992 14.9483 20.2635 14.9305 20.4101 14.8871V15.3236L19.9921 15.6907H19.5985V15.6907ZM20.3699 16.1782L19.9916 16.7012H19.5635L19.1854 16.1782H20.3699ZM18.9674 17.0563C19.1565 17.1597 19.2263 17.3658 19.2466 17.7523H20.311C20.3312 17.3658 20.4009 17.1597 20.5902 17.0563H18.9674Z" fill="white"/>
<path d="M19.569 15.7224L19.1357 15.3418V14.8263L19.2393 14.8565C19.3387 14.8838 19.4379 14.9108 19.4975 14.9976C19.519 14.9092 19.5452 14.8345 19.5762 14.7697C19.6211 14.6735 19.6856 14.5878 19.7655 14.5179L19.7947 14.4922L19.824 14.5179C19.9039 14.5878 19.9686 14.6735 20.0137 14.7697C20.0445 14.8345 20.0704 14.9092 20.0921 14.9976C20.1516 14.9108 20.251 14.8838 20.3501 14.8565L20.3973 14.8433L20.4538 14.8263V15.3418L20.008 15.7334H19.5817L19.569 15.7224V15.7224ZM19.2241 15.3021L19.488 15.5338L19.4631 15.1794C19.4513 15.0097 19.3387 14.9751 19.2241 14.9437V15.3021V15.3021ZM19.4953 15.5403L19.6144 15.645H19.975L20.0944 15.5401L20.039 15.1832C20.014 15.0236 19.9795 14.9032 19.9341 14.8076C19.8996 14.7344 19.8524 14.668 19.7947 14.6113C19.737 14.6679 19.69 14.7344 19.6559 14.8076C19.6099 14.903 19.5754 15.0236 19.5507 15.1832L19.4953 15.5403V15.5403ZM20.1266 15.1794L20.1017 15.5338L20.3654 15.3021V14.9437C20.2507 14.9749 20.1384 15.0097 20.1266 15.1794ZM20.405 16.2024L20.0137 16.7438H19.5405L19.0987 16.1325L20.4555 16.1327L20.405 16.2024V16.2024ZM19.9685 16.6556L20.283 16.2206H19.271L19.5855 16.6556H19.9685V16.6556ZM19.0982 17.0989C19.1457 17.1474 19.1824 17.2074 19.2108 17.2807C19.253 17.3897 19.2763 17.529 19.2878 17.7066H20.2687C20.2802 17.529 20.3032 17.3897 20.3454 17.2807C20.3739 17.2074 20.4108 17.1474 20.458 17.0989H19.0982V17.0989ZM19.1287 17.3124C19.0889 17.2101 19.0305 17.1399 18.9459 17.0934L18.794 17.0105H20.7625L20.6106 17.0934C20.5257 17.1399 20.4673 17.2101 20.4278 17.3124C20.3858 17.4204 20.3643 17.5644 20.3544 17.753L20.3522 17.795H19.204L19.2018 17.753C19.1921 17.5644 19.1704 17.4204 19.1287 17.3124V17.3124Z" fill="black"/>
<path d="M20.6048 16.1767V15.6513C20.4252 15.7007 20.3088 15.8072 20.2569 15.9515C20.2569 15.7772 20.0274 15.3749 19.7772 15.1748C19.5262 15.3988 19.2927 15.7627 19.2973 15.9515C19.2547 15.8142 19.1291 15.7007 18.9495 15.6513V16.1767H20.6048Z" fill="white"/>
<path d="M20.5606 16.1377V15.7171C20.5072 15.7365 20.4576 15.7653 20.4143 15.8021C20.3615 15.8475 20.3215 15.9059 20.2984 15.9716L20.2127 15.9566C20.2127 15.8737 20.1532 15.7301 20.0626 15.5833C19.9844 15.4569 19.884 15.33 19.7784 15.2384C19.6615 15.3498 19.5592 15.4756 19.474 15.6127C19.3919 15.7456 19.3394 15.8717 19.3413 15.9556L19.2552 15.9696C19.2362 15.9081 19.1978 15.8517 19.1438 15.805C19.0992 15.7673 19.0485 15.7375 18.9937 15.7171V16.1377H20.5606V16.1377ZM20.649 15.6565V16.1819L20.6048 16.2261H18.9495L18.9051 16.1819V15.6565L18.961 15.614C19.0564 15.6402 19.1378 15.6834 19.2015 15.7384C19.2302 15.7633 19.2555 15.7905 19.277 15.82C19.3017 15.7421 19.3441 15.6547 19.3988 15.5663C19.4905 15.418 19.6169 15.2639 19.7477 15.1469L19.8046 15.1455C19.929 15.2449 20.0479 15.3917 20.1376 15.537C20.1997 15.6377 20.2484 15.7389 20.2759 15.8246C20.2989 15.7918 20.3256 15.7621 20.3566 15.7354C20.4193 15.6814 20.4981 15.6402 20.5933 15.614L20.649 15.6565V15.6565Z" fill="black"/>
<path d="M20.6858 17.0508V16.5253C20.4888 16.575 20.3614 16.6812 20.3044 16.8258C20.3044 16.6511 20.0529 16.2488 19.7785 16.0488C19.5032 16.2728 19.2475 16.6367 19.2525 16.8258C19.2058 16.6881 19.0683 16.575 18.8712 16.5253V17.0508H20.6858Z" fill="white"/>
<path d="M20.6413 17.0058V16.5835C20.5749 16.6058 20.5185 16.6355 20.4726 16.6717C20.4157 16.7156 20.3718 16.7742 20.3454 16.8411L20.26 16.8251C20.26 16.7427 20.1951 16.5995 20.096 16.4529C20.0093 16.3251 19.8972 16.1965 19.7797 16.1043C19.6511 16.2152 19.5372 16.3423 19.4411 16.4825C19.3514 16.615 19.2943 16.7406 19.2965 16.8238L19.2107 16.839C19.1896 16.7779 19.1477 16.7214 19.0885 16.6747C19.0363 16.6348 18.9777 16.6039 18.9152 16.5835V17.0058H20.6413V17.0058ZM20.7298 16.5246V17.0501L20.6856 17.0942H18.871L18.8268 17.0501V16.5246L18.8818 16.4819C18.9851 16.5079 19.0738 16.5508 19.1429 16.6053C19.1762 16.6312 19.2061 16.6613 19.2318 16.6947C19.2586 16.6148 19.3063 16.5246 19.3682 16.433C19.4689 16.2847 19.6072 16.1308 19.7506 16.0139L19.8043 16.0127C19.9401 16.1118 20.0704 16.2584 20.1689 16.4038C20.239 16.5074 20.2937 16.6118 20.3234 16.6994C20.3497 16.6637 20.3811 16.6313 20.4178 16.6022C20.4858 16.5489 20.5717 16.5079 20.6748 16.4819L20.7298 16.5246V16.5246Z" fill="black"/>
<path d="M20.9067 18.1347V17.5288C20.6614 17.592 20.5093 17.7731 20.4322 17.8789C20.4322 17.5508 20.0616 17.0506 19.7779 16.8867C19.4867 17.0548 19.1236 17.5718 19.1236 17.8789C19.0444 17.7738 18.8941 17.592 18.6491 17.5288V18.1347H20.9067Z" fill="white"/>
<path d="M20.8623 18.0857V17.5835C20.779 17.6137 20.7019 17.6588 20.6348 17.7168C20.5596 17.7805 20.5045 17.8494 20.4675 17.8998L20.3878 17.8741C20.3878 17.7275 20.3074 17.5417 20.1938 17.3694C20.0731 17.1864 19.916 17.0206 19.7777 16.9334C19.6393 17.0208 19.486 17.1864 19.3671 17.3665C19.2503 17.544 19.1676 17.7338 19.1676 17.8741L19.0882 17.9006C19.0497 17.8497 18.994 17.78 18.9198 17.7168C18.853 17.6589 18.7761 17.6137 18.693 17.5835V18.0857H20.8623V18.0857ZM20.9507 17.524V18.1299L20.9065 18.1741H18.6489L18.6046 18.1299V17.524L18.6599 17.4813C18.79 17.5148 18.8946 17.5797 18.977 17.6499C19.0215 17.6878 19.0594 17.7273 19.0914 17.7637C19.1199 17.6262 19.1953 17.467 19.2935 17.318C19.4256 17.1177 19.6002 16.9334 19.7555 16.8438H19.7996C19.9545 16.9331 20.1334 17.1177 20.2674 17.321C20.3633 17.4661 20.437 17.6221 20.4645 17.762C20.4962 17.7256 20.5337 17.6866 20.5776 17.6493C20.6603 17.5795 20.7654 17.5148 20.8955 17.4813L20.9507 17.524V17.524Z" fill="black"/>
<path d="M20.7738 19.4796V18.8565C20.5575 18.9414 20.4928 19.1497 20.4249 19.2913C20.4517 18.6592 20.0691 17.9799 19.7776 17.8076C19.4862 17.9799 19.0963 18.674 19.1303 19.2913C19.0606 19.1504 18.9977 18.9414 18.7813 18.8565V19.4796H20.7738Z" fill="white"/>
<path d="M20.7279 19.4353V18.9273C20.6013 19.0035 20.5419 19.1361 20.4922 19.2472C20.482 19.2697 20.4722 19.2917 20.4632 19.3104L20.3793 19.2895C20.3913 19.0062 20.3189 18.7128 20.2093 18.4618C20.0876 18.1826 19.9213 17.9576 19.7762 17.8597C19.6306 17.9581 19.4626 18.1871 19.3399 18.4683C19.2297 18.7203 19.1578 19.0127 19.1731 19.2887L19.0894 19.3107C19.078 19.2874 19.067 19.2639 19.0565 19.2402C19.0068 19.1311 18.948 19.002 18.8245 18.9273V19.4353H20.7279V19.4353ZM20.8166 18.8564V19.4795L20.7724 19.524H18.78L18.7358 19.4795V18.8564L18.7962 18.8155C18.9478 18.8749 19.029 18.9873 19.0872 19.0994C19.1041 18.8696 19.1696 18.6382 19.259 18.4331C19.395 18.1209 19.5887 17.8672 19.7537 17.7695H19.7986C19.9635 17.8672 20.1548 18.1164 20.2901 18.4266C20.3798 18.6321 20.4457 18.8656 20.4637 19.1004C20.5222 18.9878 20.6041 18.8751 20.7562 18.8155L20.8166 18.8564V18.8564Z" fill="black"/>
<path d="M20.6226 20.4213V19.7982C20.3961 19.8522 20.3821 19.9355 20.3102 20.0752C20.337 19.6976 20.0695 19.267 19.7783 19.0947C19.4868 19.267 19.2194 19.6976 19.2461 20.0752C19.1741 19.9355 19.1651 19.8519 18.9336 19.7982V20.4213H20.6226Z" fill="white"/>
<path d="M20.5774 20.3785V19.8575C20.4453 19.8998 20.4158 19.9596 20.3724 20.0486L20.3484 20.0968L20.25 20.2875L20.265 20.0733C20.2773 19.901 20.2243 19.7157 20.1351 19.5511C20.0433 19.3818 19.9136 19.2354 19.7773 19.1478C19.6407 19.2354 19.5111 19.3818 19.4191 19.5511C19.3297 19.7154 19.277 19.9008 19.2893 20.0733L19.3042 20.2875L19.2059 20.0968C19.1968 20.079 19.188 20.0611 19.1794 20.0431C19.1379 19.9567 19.1097 19.8985 18.9769 19.857V20.3785H20.5774ZM20.6658 19.7996V20.4669H18.8882V19.7439L18.9424 19.7566C19.0977 19.7926 19.1624 19.841 19.2069 19.908C19.2251 19.7716 19.2735 19.6345 19.3417 19.5091C19.4456 19.3171 19.5967 19.1515 19.7548 19.0581L19.7773 19.0449L19.7997 19.0581C19.9578 19.1515 20.1087 19.3171 20.2128 19.5091C20.281 19.635 20.3297 19.7726 20.3476 19.91C20.3933 19.8418 20.4583 19.7931 20.6114 19.7566L20.6658 19.7437V19.7996V19.7996Z" fill="black"/>
<path d="M10.9076 22.7362V20.8527C10.8457 20.613 10.6422 20.4006 10.4894 20.3583V18.7002L10.834 18.8865L11.2276 20.6199V22.7362H10.9076Z" fill="white"/>
<path d="M10.8636 22.7332V20.8547C10.8353 20.7495 10.7777 20.6496 10.7097 20.5695C10.6351 20.4811 10.5492 20.4176 10.4778 20.3976L10.445 20.3886V18.623L10.8726 18.8542C11.006 19.4404 11.1395 20.0263 11.2719 20.6126V22.7771L10.8636 22.7773V22.7332V22.7332ZM10.952 20.8497V22.6892L11.1835 22.6889V20.6212L10.7957 18.913L10.5337 18.7711V20.3237C10.6139 20.3555 10.7018 20.4233 10.7771 20.5122C10.8541 20.6032 10.9193 20.7175 10.9505 20.8387L10.952 20.8449V20.8497Z" fill="black"/>
<path d="M10.9076 22.7368V20.846C10.8457 20.606 10.6422 20.394 10.4894 20.3516V18.5781C10.7206 18.5781 10.834 18.8798 10.834 18.8798L11.2276 20.613V22.722L10.9076 22.7368V22.7368Z" fill="white"/>
<path d="M10.8636 22.7409V20.8549C10.8353 20.7497 10.7777 20.6501 10.7097 20.5697C10.6351 20.4816 10.5492 20.4179 10.4778 20.3981L10.445 20.3891V18.5381H10.4895C10.7514 18.5381 10.8749 18.8667 10.8751 18.8675C11.001 19.1749 11.183 20.2198 11.2719 20.6129V22.7684L10.8636 22.7871V22.7409V22.7409ZM10.952 20.8502V22.6947L11.1835 22.6839V20.6216L10.7919 18.8972C10.7807 18.869 10.6935 18.6642 10.5337 18.6312V20.324C10.6139 20.3557 10.7018 20.4235 10.7771 20.5127C10.8541 20.6036 10.9193 20.7178 10.9505 20.8392L10.952 20.8452V20.8502V20.8502Z" fill="black"/>
<path d="M10.6628 23.2226C10.8225 23.1507 11.0544 22.9537 11.0544 22.7553V20.4013L10.9453 20.207H14.9559L14.7993 20.4013V22.7553C14.7993 22.9537 14.9586 23.1507 15.1179 23.2226H10.6628Z" fill="white"/>
<path d="M10.6444 23.1798C10.7285 23.1418 10.8345 23.0663 10.9113 22.9747C10.969 22.9057 11.0097 22.8283 11.0097 22.7526V20.4101L10.8694 20.1604C12.2622 20.1599 13.6547 20.1604 15.0475 20.1604L14.8429 20.4142V22.7526C14.8429 22.8373 14.8757 22.9228 14.9258 22.9962C14.9821 23.0783 15.059 23.145 15.1356 23.1798L15.3224 23.2639L10.4576 23.2642L10.6444 23.1798V23.1798ZM10.9793 23.0314C10.9329 23.0856 10.8803 23.1341 10.8226 23.1759L14.9693 23.1758C14.925 23.1377 14.8858 23.0941 14.8529 23.0458C14.7935 22.9587 14.7545 22.8563 14.7545 22.7526V20.3831L14.8629 20.2485H11.0202L11.0981 20.3872V22.7526C11.0981 22.8513 11.0489 22.948 10.9793 23.0314V23.0314Z" fill="black"/>
<path d="M14.309 23.2226C14.1496 23.1507 13.9174 22.9537 13.9174 22.7553V20.5164L14.251 20.207H11.5244L11.858 20.5167V22.7553C11.858 22.9537 11.6258 23.1507 11.4665 23.2226H14.309V23.2226Z" fill="white"/>
<path d="M14.1479 23.1758C14.0902 23.134 14.0377 23.0856 13.9914 23.0314C13.9216 22.948 13.8723 22.8513 13.8723 22.7527V20.4948L14.1375 20.2486H11.6362L11.9014 20.4948V22.7527C11.9014 22.8513 11.8522 22.948 11.7823 23.0314C11.7361 23.0855 11.6836 23.134 11.626 23.1758H14.1479ZM14.0592 22.9747C14.136 23.0663 14.2419 23.1418 14.3264 23.1798L14.5134 23.2642H11.2604L11.4474 23.1798C11.5316 23.1418 11.6377 23.0663 11.7147 22.9747C11.7723 22.9058 11.813 22.8284 11.813 22.7527V20.5331L11.4112 20.1602H14.3628L13.9607 20.5331V22.7527C13.9607 22.8284 14.0014 22.9058 14.0592 22.9747Z" fill="black"/>
<path d="M13.926 23.2217C13.7664 23.1498 13.5344 22.9527 13.5344 22.7544V20.7305L13.7529 20.4209H12.0205L12.2388 20.7305V22.7546C12.2388 22.9527 12.0068 23.1498 11.8472 23.2217H13.926V23.2217Z" fill="white"/>
<path d="M13.7653 23.179C13.7076 23.1371 13.6551 23.0886 13.6089 23.0344C13.539 22.951 13.4899 22.8543 13.4899 22.7556V20.7178L13.6671 20.4663H12.1053L12.2829 20.7181V22.7559C12.2829 22.8545 12.2336 22.951 12.1638 23.0344C12.1175 23.0886 12.0649 23.1372 12.0071 23.179H13.7653V23.179ZM13.6767 22.9777C13.7536 23.0693 13.8595 23.1448 13.9436 23.1828L14.1304 23.2669L11.6421 23.2672L11.8289 23.1828C11.913 23.1448 12.0189 23.0693 12.0961 22.9777C12.1537 22.9088 12.1942 22.8314 12.1942 22.7559V20.7458L11.9349 20.3779H13.8377L13.5783 20.7456V22.7556C13.5783 22.8314 13.619 22.9088 13.6767 22.9777Z" fill="black"/>
<path d="M12.4733 20.4238H13.3009V23.2244H12.4733V20.4238Z" fill="white"/>
<path d="M12.4731 20.3809H13.3449V23.2698H12.4289V20.3809H12.4731V20.3809ZM13.2565 20.4693H12.5173V23.1814H13.2565V20.4693Z" fill="black"/>
<path d="M11.3466 21.2035H11.6771V22.7234H11.3466V21.2035ZM14.1801 21.2035H14.5106V22.7234H14.1801V21.2035ZM11.0647 18.6399H11.4628V20.198H11.0647V18.6399V18.6399ZM11.0647 18.3467H11.4605V18.6362H11.0647V18.3467Z" fill="white"/>
<path d="M11.3464 21.1585H11.6768L11.721 21.2027V22.7226L11.6768 22.7668H11.3464L11.3022 22.7226V21.2027L11.3464 21.1585ZM11.6325 21.2469H11.3906V22.6784H11.6325V21.2469ZM14.1799 21.1585H14.5103L14.5545 21.2027V22.7226L14.5103 22.7668H14.1799L14.1357 22.7226V21.2027L14.1799 21.1585ZM14.4661 21.2469H14.2241V22.6784H14.4661V21.2469ZM11.4183 18.6834H11.1087V20.153H11.4183V18.6834ZM11.5037 18.6358L11.5067 18.6391V20.1972L11.4625 20.2414H11.0644L11.0202 20.1972V18.6391L11.0219 18.6372L11.0202 18.6354V18.3459L11.0644 18.3018H11.4602L11.5045 18.3459V18.6354L11.5037 18.6358V18.6358ZM11.4158 18.3902H11.1087V18.5909H11.4158V18.3902Z" fill="black"/>
<path d="M14.3386 18.9746H14.9062V20.1776L14.3386 20.1773V18.9746Z" fill="white"/>
<path d="M14.3399 18.9258H14.9075L14.955 18.9735V20.1764L14.9075 20.2239L14.3399 20.2236L14.2922 20.1762V18.9735L14.3399 18.9258V18.9258ZM14.8598 19.0212H14.3876V20.1287H14.8598V19.0212Z" fill="black"/>
<path d="M11.4567 20.1833V17.5166C11.5703 17.5166 11.5878 17.9074 11.8482 17.9074C11.9838 17.9074 11.9694 17.7456 11.8932 17.6137C11.8257 17.4968 11.7423 17.3356 11.8558 17.0351C11.9334 17.2649 12.1425 17.338 12.104 17.1937C12.0376 16.9459 11.8463 16.9052 11.9899 16.5209C12.0395 16.8415 12.2453 16.8273 12.1954 16.6411C12.1392 16.431 12.0228 16.3448 12.1662 16.0486C12.2466 16.385 12.3552 16.3653 12.3552 16.1565C12.3552 15.8481 12.3435 15.5154 12.7426 15.3921C12.7426 15.3921 12.7656 15.1094 12.9097 15.1094C13.0535 15.1094 13.0767 15.3921 13.0767 15.3921C13.4755 15.5157 13.4638 15.8484 13.4638 16.1565C13.4638 16.3653 13.5725 16.385 13.6528 16.0486C13.7965 16.3448 13.6801 16.431 13.6239 16.6411C13.5739 16.8273 13.7795 16.8415 13.8295 16.5209C13.9728 16.9052 13.7817 16.9459 13.7153 17.1937C13.6766 17.338 13.8859 17.2649 13.9635 17.0351C14.0766 17.3356 13.9932 17.4968 13.9258 17.6137C13.8499 17.7454 13.8354 17.9074 13.971 17.9074C14.2315 17.9074 14.249 17.5166 14.3626 17.5166V20.1833H11.4567ZM10.8334 18.1689V20.2035H11.0646V18.1639C10.9811 18.1217 10.903 18.1152 10.8331 18.1689H10.8334V18.1689Z" fill="white"/>
<path d="M11.4126 20.1865V17.4753H11.4568C11.5295 17.4753 11.565 17.5487 11.6076 17.6366C11.6571 17.7385 11.719 17.8663 11.8484 17.8663C11.8606 17.8669 11.8727 17.8644 11.8837 17.8589C11.8909 17.8546 11.8965 17.848 11.8996 17.8401C11.9044 17.8299 11.9066 17.8162 11.9066 17.8002C11.9066 17.753 11.8869 17.6933 11.8554 17.6389C11.8197 17.5772 11.7797 17.5035 11.7633 17.4034C11.7473 17.3042 11.7547 17.1811 11.8147 17.0228L11.8581 16.9071L11.8979 17.0243C11.9328 17.1282 11.9957 17.1951 12.0449 17.2193C12.0529 17.2231 12.06 17.2255 12.0657 17.2266L12.0614 17.2083C12.0419 17.1359 12.0102 17.0812 11.9805 17.0295C11.9068 16.9021 11.8429 16.7917 11.9485 16.5085L12.0075 16.3505L12.0335 16.5173C12.0519 16.6372 12.0917 16.7023 12.1279 16.7256C12.1356 16.7303 12.1421 16.7326 12.1468 16.7321C12.1486 16.7321 12.15 16.7311 12.1516 16.7296C12.1608 16.7186 12.1631 16.6936 12.1528 16.6556C12.1399 16.6072 12.1233 16.565 12.1077 16.5251C12.0532 16.3864 12.0092 16.2745 12.1266 16.0326L12.1806 15.9217L12.2093 16.0415C12.2385 16.1637 12.2697 16.2336 12.2964 16.2616C12.3057 16.2426 12.3112 16.2079 12.3112 16.1596L12.3115 16.1339C12.3109 15.8243 12.311 15.4978 12.7023 15.3622C12.7137 15.2826 12.759 15.0684 12.9098 15.0684C13.0604 15.0684 13.1056 15.2826 13.1173 15.3622C13.5086 15.4978 13.5084 15.8243 13.5081 16.1339L13.5079 16.1596C13.5081 16.2081 13.5136 16.2428 13.5229 16.2616C13.5498 16.2338 13.5811 16.164 13.6103 16.0418L13.639 15.9217L13.6927 16.0328C13.8101 16.2745 13.7664 16.3864 13.7119 16.5251C13.6962 16.565 13.6794 16.6072 13.6668 16.6556C13.6565 16.6936 13.6587 16.7186 13.6679 16.7296C13.6692 16.7313 13.671 16.7321 13.6725 16.7321C13.6772 16.7326 13.6837 16.7303 13.6915 16.7256C13.7279 16.7026 13.7673 16.6372 13.7859 16.5173L13.8118 16.3507L13.8708 16.5085C13.9764 16.7917 13.9128 16.9021 13.8388 17.0298C13.8091 17.0812 13.7774 17.1359 13.7581 17.2083L13.7539 17.2266C13.7594 17.2255 13.7664 17.2231 13.7746 17.2193C13.8236 17.1951 13.8868 17.1282 13.9217 17.0243L13.9611 16.9071L14.0049 17.0228C14.0645 17.1811 14.0723 17.3042 14.0561 17.4034C14.0398 17.5033 13.9999 17.5769 13.9642 17.6386C13.9327 17.6933 13.913 17.753 13.913 17.8002C13.913 17.8162 13.9152 17.8296 13.9197 17.8401C13.9229 17.848 13.9286 17.8546 13.9359 17.8589C13.9439 17.8636 13.9557 17.8663 13.9711 17.8663C14.1003 17.8663 14.1625 17.7385 14.2116 17.6366C14.2544 17.5487 14.2898 17.4753 14.3627 17.4753H14.4067C14.4067 18.3938 14.406 19.3123 14.4067 20.2306H11.4126V20.1865V20.1865ZM11.501 17.6202V20.1422H14.3186V17.6199C14.31 17.6361 14.3008 17.6551 14.2911 17.6751C14.2312 17.7989 14.1557 17.9547 13.9711 17.9547C13.9399 17.9547 13.9137 17.9478 13.892 17.9353C13.8685 17.9219 13.85 17.9011 13.8393 17.8762C13.8292 17.8521 13.8242 17.8263 13.8246 17.8002C13.8246 17.738 13.8491 17.6624 13.888 17.595C13.9197 17.5397 13.9551 17.4743 13.9692 17.3891C13.9794 17.3262 13.9782 17.2507 13.9554 17.1589C13.9123 17.2286 13.8588 17.276 13.8134 17.2982C13.7911 17.3092 13.7694 17.315 13.7502 17.3152C13.7239 17.3152 13.7017 17.3062 13.686 17.2872C13.667 17.2648 13.6608 17.2305 13.6728 17.1856C13.6949 17.1022 13.7299 17.042 13.7626 16.9855C13.8108 16.9019 13.8543 16.8267 13.8293 16.6844C13.8031 16.7423 13.7701 16.7801 13.7384 16.8003C13.7144 16.8155 13.6897 16.822 13.6668 16.8202C13.654 16.8195 13.6416 16.8161 13.6302 16.8103C13.6189 16.8045 13.6088 16.7964 13.6008 16.7865C13.574 16.755 13.5629 16.7014 13.5813 16.6327C13.5946 16.5853 13.6107 16.5387 13.6295 16.4931C13.6665 16.3989 13.6977 16.3193 13.6592 16.1874C13.6353 16.254 13.61 16.2985 13.5861 16.3232C13.5651 16.345 13.5423 16.3555 13.5194 16.3555C13.4937 16.3557 13.4717 16.3432 13.4549 16.3193C13.4332 16.2886 13.4197 16.2331 13.4197 16.1596L13.42 16.1339C13.4202 15.849 13.4205 15.5478 13.0638 15.4374L13.0352 15.4287L13.0326 15.399C13.0326 15.3984 13.0127 15.1568 12.9098 15.1568C12.8067 15.1568 12.7869 15.3984 12.7866 15.399L12.7842 15.4287L12.7557 15.4374C12.3988 15.5478 12.3991 15.8487 12.3996 16.1339V16.1596C12.3996 16.2333 12.3861 16.2888 12.3646 16.3193C12.3478 16.343 12.3259 16.3557 12.3 16.3555C12.2772 16.3555 12.2544 16.345 12.2333 16.3232C12.2095 16.2985 12.1841 16.254 12.16 16.1874C12.1219 16.3193 12.1531 16.3989 12.1898 16.4931C12.2063 16.535 12.224 16.5797 12.2382 16.6327C12.2565 16.7014 12.2455 16.755 12.2187 16.7865C12.2018 16.807 12.1788 16.8185 12.1528 16.8202C12.1298 16.822 12.1051 16.8155 12.0809 16.8003C12.0492 16.7801 12.0165 16.7423 11.99 16.6844C11.9653 16.8267 12.0085 16.9019 12.0569 16.9853C12.0896 17.042 12.1243 17.1022 12.1468 17.1856C12.1588 17.2305 12.1523 17.2648 12.1333 17.2872C12.1176 17.3062 12.0954 17.3152 12.0694 17.3152C12.0474 17.3143 12.0258 17.3085 12.0062 17.2982C11.9608 17.276 11.9071 17.2286 11.8641 17.1589C11.8414 17.251 11.8402 17.3262 11.8504 17.3894C11.8644 17.4743 11.8998 17.5397 11.9315 17.5947C11.9705 17.6624 11.995 17.738 11.995 17.8002C11.995 17.8277 11.9902 17.8534 11.9803 17.8759C11.9695 17.9009 11.9509 17.9217 11.9273 17.9353C11.9058 17.9478 11.8796 17.9547 11.8484 17.9547C11.6639 17.9547 11.5884 17.7989 11.5283 17.6751C11.5187 17.6554 11.5095 17.6363 11.501 17.6202V17.6202ZM10.8777 18.1953V20.1624H11.0205V18.195C10.9963 18.1845 10.9702 18.1786 10.9438 18.1776C10.9211 18.1776 10.8989 18.1831 10.8777 18.1953V18.1953ZM10.789 20.2067V18.1905L10.7665 18.1678L10.8065 18.1371C10.8455 18.1061 10.894 18.0894 10.9438 18.0897C10.9901 18.0897 11.0372 18.1036 11.0847 18.1276L11.1089 18.1398V20.2508H10.789V20.2067Z" fill="black"/>
<path d="M10.8405 19.4876C11.1272 19.6342 11.4114 19.8041 11.4831 20.2057H10.8405V19.4876V19.4876ZM14.8181 18.8785V20.2062H15.0056V18.8753C14.9472 18.8478 14.8673 18.8436 14.8183 18.8785H14.8181V18.8785Z" fill="white"/>
<path d="M10.8603 19.4497C11.0069 19.5245 11.153 19.6055 11.2729 19.7204C11.3948 19.8373 11.4887 19.9879 11.5264 20.1991L11.5357 20.2513H10.7962V19.4167L10.8603 19.4497ZM11.2117 19.7841C11.1171 19.6934 11.0024 19.6243 10.8846 19.5615V20.1626H11.4288C11.3956 20.0177 11.32 19.886 11.2117 19.7841V19.7841ZM14.8622 18.906V20.1631H14.9613V18.9067C14.9429 18.9012 14.9237 18.8985 14.9044 18.8987C14.89 18.8989 14.8758 18.9013 14.8622 18.906V18.906ZM14.7738 20.2074V18.8356H14.8055C14.8342 18.8191 14.8681 18.8113 14.9031 18.8106C14.9449 18.8102 14.9862 18.8191 15.0242 18.8365L15.0497 18.8485V20.2516H14.7738V20.2074Z" fill="black"/>
<path d="M15.0048 19.4775C14.7181 19.6244 14.4338 19.794 14.3619 20.1958H15.0048V19.4775Z" fill="white"/>
<path d="M14.9623 19.5498C14.8445 19.6126 14.7298 19.6817 14.6352 19.7724C14.5269 19.8744 14.4514 20.0063 14.4182 20.1512H14.9623V19.5498ZM14.574 19.709C14.6939 19.5941 14.84 19.5129 14.9866 19.438L15.0507 19.4053V20.2396H14.3113L14.3205 20.1877C14.3582 19.9762 14.4521 19.8259 14.574 19.709Z" fill="black"/>
<path d="M13.1096 16.3746L13.2767 16.2342V16.0542C13.2156 16.0602 13.1821 16.0812 13.1371 16.1406C13.0986 16.0212 13.014 15.9281 12.9009 15.8701C12.7878 15.9281 12.7031 16.017 12.6649 16.1363C12.6197 16.077 12.5862 16.0602 12.5251 16.0542V16.2342L12.6923 16.3746H13.1096Z" fill="white"/>
<path d="M13.0943 16.3381L13.2335 16.2212V16.1175L13.2249 16.1223C13.2085 16.1325 13.1923 16.1492 13.1731 16.1747L13.1218 16.2419L13.0958 16.1613C13.0793 16.1093 13.0521 16.0613 13.0161 16.0204C12.9835 15.9833 12.9448 15.952 12.9018 15.9278C12.8585 15.9519 12.8194 15.9829 12.7861 16.0196C12.7507 16.0595 12.724 16.1064 12.7078 16.1573L12.6818 16.2377L12.6306 16.1705C12.6119 16.1458 12.5961 16.1303 12.5799 16.1211L12.5702 16.1163V16.2212L12.7092 16.3381H13.0943V16.3381ZM13.3061 16.2754L13.1265 16.4262H12.6773L12.4818 16.2619V16.0131L12.5301 16.0179C12.5671 16.0214 12.5961 16.0286 12.6239 16.0444C12.6331 16.0496 12.6421 16.0559 12.6511 16.0631C12.6696 16.0259 12.693 15.992 12.7202 15.9612C12.766 15.9106 12.8208 15.869 12.8818 15.8384L12.9018 15.8281L12.9218 15.8384C12.9828 15.8691 13.0374 15.9112 13.0826 15.9625C13.11 15.9939 13.1336 16.0289 13.1525 16.0666C13.1611 16.0593 13.1695 16.0529 13.1787 16.0474C13.2065 16.0301 13.2359 16.0214 13.2734 16.0176L13.3219 16.0131V16.2619L13.3061 16.2754V16.2754Z" fill="black"/>
<path d="M13.1988 16.8311L13.2765 16.6627V16.4287C13.2153 16.435 13.1821 16.4562 13.1369 16.5164C13.0984 16.3953 13.014 16.3009 12.9009 16.2422C12.7875 16.3009 12.7031 16.3911 12.6647 16.5119C12.6194 16.452 12.5862 16.435 12.5251 16.4287V16.6627L12.6027 16.8311H13.1988V16.8311Z" fill="white"/>
<path d="M13.1715 16.7849L13.2332 16.6512V16.4832L13.2252 16.4877C13.2085 16.4979 13.1923 16.5149 13.1731 16.5406L13.1218 16.609L13.0958 16.5276C13.0792 16.4749 13.052 16.4262 13.016 16.3843C12.9834 16.3468 12.9447 16.3151 12.9015 16.2904C12.8571 16.3158 12.8181 16.3471 12.7861 16.3836C12.7506 16.4242 12.7238 16.4717 12.7075 16.5231L12.6818 16.6045L12.6303 16.5363C12.6116 16.5114 12.5959 16.4956 12.5796 16.4864L12.5702 16.4814V16.6512L12.6318 16.7849H13.1715V16.7849ZM13.3176 16.6792L13.2282 16.873H12.5754L12.4818 16.6703V16.3781L12.5301 16.3828C12.5669 16.3865 12.5961 16.394 12.6239 16.41C12.6331 16.4152 12.6421 16.4215 12.6509 16.429C12.6693 16.391 12.6925 16.3566 12.7197 16.3256C12.7654 16.2743 12.8203 16.232 12.8815 16.2009L12.9018 16.1904L12.9221 16.2009C12.9832 16.2322 13.0377 16.2749 13.0826 16.3268C13.11 16.3585 13.1336 16.394 13.1523 16.4325C13.1608 16.425 13.1693 16.4188 13.1783 16.413C13.206 16.3955 13.2357 16.3865 13.2731 16.3831L13.3219 16.3783V16.6703L13.3176 16.6792V16.6792Z" fill="black"/>
<path d="M13.2113 17.4345L13.4597 17.1315V16.8329C13.3689 16.8431 13.3194 16.8791 13.2522 16.9807C13.195 16.7759 13.0697 16.7312 12.9016 16.6318C12.7333 16.7312 12.6079 16.7687 12.5507 16.9734C12.4835 16.8718 12.4341 16.8428 12.3432 16.8329V17.1315L12.5917 17.4345H13.2113V17.4345Z" fill="white"/>
<path d="M13.1894 17.3985L13.4144 17.1243V16.895C13.3991 16.9 13.3847 16.9073 13.3717 16.9168C13.3442 16.9362 13.3182 16.9672 13.2877 17.0134L13.2345 17.0941L13.2086 17.0007C13.1639 16.8408 13.0697 16.7874 12.9431 16.7155L12.9004 16.6912L12.846 16.7217C12.7251 16.7887 12.6352 16.8386 12.5919 16.9934L12.5662 17.0865L12.5128 17.0059C12.4826 16.9602 12.4571 16.9315 12.4305 16.9138C12.4169 16.905 12.402 16.8983 12.3865 16.894V17.1243L12.611 17.3985H13.1894V17.3985ZM13.4925 17.1678L13.2308 17.4869H12.5698L12.2978 17.1552V16.7916L12.347 16.7971C12.3992 16.8029 12.4401 16.8147 12.4788 16.8403C12.4986 16.8533 12.5171 16.8696 12.5355 16.89C12.5932 16.7612 12.6856 16.7098 12.803 16.6445C12.826 16.6318 12.85 16.6186 12.878 16.6021L12.9004 16.5889L12.9866 16.6388C13.1092 16.7082 13.2051 16.7626 13.2648 16.8965C13.2827 16.8756 13.3009 16.8586 13.3202 16.8449C13.359 16.8171 13.4003 16.8031 13.4538 16.7971L13.5028 16.7916V17.1552L13.4925 17.1678V17.1678Z" fill="black"/>
<path d="M13.2838 18.0385C13.2838 18.0385 13.5731 17.7861 13.5905 17.6475V17.328C13.4782 17.3413 13.3722 17.3702 13.2893 17.5016C13.2189 17.2372 13.1088 17.1632 12.9012 17.0352C12.6937 17.1632 12.5836 17.2372 12.5132 17.5016C12.4302 17.3702 12.3241 17.3413 12.212 17.328V17.6475C12.2487 17.7861 12.5187 18.0385 12.5187 18.0385H13.2838Z" fill="white"/>
<path d="M13.2679 17.9897C13.3217 17.9415 13.5312 17.7467 13.5469 17.6396V17.3746C13.5132 17.3803 13.4804 17.3907 13.4495 17.4054C13.4053 17.4273 13.3641 17.4626 13.3277 17.5205L13.2737 17.6059L13.2475 17.508C13.2142 17.3836 13.1726 17.3047 13.1151 17.2425C13.0612 17.1841 12.9915 17.1379 12.9021 17.0822C12.8126 17.1379 12.743 17.1841 12.6891 17.2425C12.6316 17.3047 12.5897 17.3836 12.5567 17.508L12.5305 17.6059L12.4766 17.5205C12.4401 17.4626 12.3989 17.4273 12.3546 17.4054C12.3237 17.3906 12.2908 17.3803 12.257 17.3746V17.6371C12.2909 17.7472 12.485 17.9395 12.537 17.9897H13.2679ZM13.6351 17.6483C13.6158 17.8035 13.3145 18.0664 13.3136 18.0672L13.3012 18.0782H12.502L12.4891 18.0659C12.4883 18.0651 12.2101 17.8054 12.1704 17.6541L12.1686 17.6481V17.2738L12.2179 17.2795C12.2785 17.2864 12.3376 17.2982 12.3942 17.3262C12.4327 17.3453 12.4674 17.3712 12.4968 17.4026C12.5302 17.3079 12.5715 17.24 12.6242 17.1828C12.6901 17.1112 12.772 17.059 12.8789 16.9931L12.9021 16.9785L12.9253 16.9931C13.0319 17.059 13.1141 17.1112 13.18 17.1828C13.2327 17.24 13.2739 17.3079 13.3074 17.4026C13.3369 17.3713 13.3716 17.3455 13.4101 17.3265C13.4665 17.2982 13.5257 17.2864 13.5861 17.2795L13.6356 17.2738C13.6356 17.3814 13.6471 17.5527 13.6351 17.6483V17.6483Z" fill="black"/>
<path d="M13.4084 19.1502C13.4084 19.1502 13.8047 18.7114 13.814 18.5406V18.0424C13.6656 18.0631 13.5252 18.165 13.4159 18.3695C13.3225 17.9572 13.1771 17.6698 12.9024 17.4697C12.6279 17.6698 12.4823 17.9572 12.3892 18.3695C12.2796 18.165 12.1392 18.0628 11.9911 18.0424V18.5406C12.0193 18.7114 12.3964 19.1502 12.3964 19.1502H13.4084V19.1502Z" fill="white"/>
<path d="M13.3871 19.0999C13.454 19.0245 13.7577 18.6744 13.768 18.5343V18.0908C13.7138 18.1066 13.6636 18.1336 13.6204 18.1699C13.5597 18.2199 13.503 18.2906 13.4529 18.3842L13.3971 18.4886L13.3709 18.3732C13.3252 18.1711 13.267 17.9998 13.1868 17.8555C13.113 17.7221 13.02 17.611 12.9006 17.5188C12.7815 17.611 12.6886 17.7221 12.6144 17.8555C12.5346 17.9998 12.4761 18.1711 12.4304 18.3732L12.4044 18.4886L12.3487 18.3842C12.2983 18.2906 12.2416 18.2196 12.1809 18.1699C12.1378 18.1336 12.0876 18.1066 12.0335 18.0908V18.5311C12.061 18.6744 12.3497 19.0225 12.415 19.0999H13.3871V19.0999ZM13.8561 18.5367C13.8464 18.7229 13.4403 19.1727 13.4393 19.1738L13.4259 19.1884H12.3747L12.3615 19.1731C12.3605 19.1719 11.9762 18.7246 11.9456 18.5416C11.9269 18.4281 11.9451 18.1257 11.9451 17.9859L11.9951 17.9926C12.0795 18.0043 12.1614 18.0398 12.2368 18.1018C12.2879 18.1444 12.3327 18.1942 12.3697 18.2495C12.4134 18.0837 12.4673 17.9392 12.5375 17.8125C12.623 17.6587 12.7321 17.5321 12.8749 17.4282L12.9009 17.4092L12.9266 17.4282C13.0695 17.5321 13.1786 17.6587 13.264 17.8125C13.3342 17.9392 13.3881 18.0837 13.4316 18.2495C13.4687 18.1943 13.5134 18.1446 13.5644 18.1019C13.6401 18.0398 13.7218 18.0043 13.8062 17.9926L13.8564 17.9859C13.8564 18.1572 13.8691 18.3727 13.8561 18.5367V18.5367Z" fill="black"/>
<path d="M13.4084 19.7991C13.4084 19.7991 13.7472 19.4542 13.814 19.3046V18.8064C13.6656 18.8269 13.5252 18.929 13.4159 19.1336C13.3225 18.7212 13.1771 18.4852 12.9024 18.2852C12.6279 18.4852 12.4823 18.7212 12.3892 19.1336C12.2796 18.929 12.1392 18.8269 11.9911 18.8064V19.3046C12.0771 19.4542 12.3964 19.7991 12.3964 19.7991H13.4084V19.7991Z" fill="white"/>
<path d="M13.3886 19.7602C13.4497 19.697 13.705 19.4293 13.7684 19.3005V18.8661C13.7143 18.8822 13.6641 18.9092 13.6209 18.9456C13.5601 18.9952 13.5035 19.0662 13.4533 19.1599L13.3975 19.2642L13.3713 19.1489C13.3259 18.9474 13.2679 18.7892 13.1883 18.6581C13.1143 18.5365 13.0212 18.4369 12.9011 18.3457C12.7813 18.4369 12.688 18.5365 12.6141 18.6581C12.5344 18.7892 12.4766 18.9474 12.4309 19.1489L12.4048 19.264L12.3492 19.1599C12.2987 19.066 12.2421 18.9952 12.1813 18.9453C12.1381 18.9091 12.088 18.8822 12.034 18.8661V19.2984C12.1136 19.4291 12.3544 19.6948 12.4144 19.7602H13.3886V19.7602ZM13.8528 19.3282C13.7826 19.4855 13.4398 19.8342 13.439 19.8352L13.4258 19.8489H12.3756L12.3624 19.8339C12.3614 19.8329 12.0405 19.487 11.9516 19.3319L11.9456 19.3214V18.7612L11.9956 18.7683C12.08 18.7798 12.1619 18.8152 12.2372 18.8774C12.2884 18.9202 12.3333 18.9701 12.3704 19.0255C12.414 18.8629 12.4683 18.7286 12.5387 18.6124C12.6243 18.4716 12.7333 18.3584 12.8753 18.2551L12.9013 18.2363L12.927 18.2551C13.0691 18.3584 13.1778 18.4716 13.2635 18.6124C13.3338 18.7286 13.3883 18.8629 13.4318 19.0255C13.4733 18.9653 13.5177 18.9161 13.5649 18.8774C13.6406 18.8152 13.7222 18.78 13.8067 18.7683L13.8568 18.7612V19.3192L13.8528 19.3282V19.3282Z" fill="black"/>
<path d="M13.5439 20.18C13.445 19.75 13.3599 19.4311 12.8839 19.1074C12.4076 19.4308 12.3225 19.75 12.2238 20.18H13.5439Z" fill="white"/>
<path d="M13.4885 20.1334C13.4442 19.9438 13.3993 19.7765 13.3167 19.6222C13.23 19.4604 13.1004 19.31 12.8841 19.1584C12.6676 19.31 12.538 19.4604 12.4513 19.6222C12.3686 19.7762 12.3237 19.9438 12.2795 20.1334H13.4885V20.1334ZM13.3943 19.5807C13.4903 19.7597 13.537 19.9498 13.5871 20.1678L13.5996 20.222H12.1686L12.1808 20.1678C12.2311 19.9498 12.2778 19.7597 12.3737 19.5807C12.47 19.4006 12.6146 19.2348 12.8594 19.0685L12.8841 19.0518L12.9086 19.0685C13.1533 19.2348 13.298 19.4006 13.3943 19.5807V19.5807Z" fill="black"/>
<path d="M13.7882 20.4225V19.7993C13.572 19.884 13.3767 20.0094 13.3045 20.149C13.2241 19.8031 13.069 19.6507 12.8757 19.4414C12.6827 19.6507 12.5531 19.8031 12.4726 20.149C12.4004 20.0094 12.2051 19.884 11.9889 19.7993V20.4225H13.7882V20.4225Z" fill="white"/>
<path d="M13.7449 20.3816V19.8686C13.6573 19.9071 13.575 19.952 13.5067 20.0017C13.4329 20.0547 13.3756 20.1126 13.3445 20.1725L13.2896 20.2792L13.2624 20.162C13.1892 19.8474 13.0504 19.697 12.8768 19.5097C12.7959 19.5984 12.7272 19.6786 12.6703 19.7705C12.6063 19.8738 12.5557 19.9945 12.5164 20.1623L12.4892 20.2792L12.4343 20.1725C12.4033 20.1126 12.3459 20.0547 12.2724 20.0015C12.204 19.952 12.1219 19.9071 12.034 19.8686V20.3816H13.7449ZM13.8333 19.8027V20.47H11.9456V19.7378L12.0057 19.7615C12.1224 19.8072 12.2335 19.8646 12.3239 19.9301C12.3748 19.9667 12.4193 20.0062 12.455 20.0479C12.4927 19.9171 12.5392 19.815 12.5953 19.724C12.664 19.6131 12.7459 19.521 12.844 19.4148L12.8765 19.3799L12.9402 19.4486C13.1053 19.6266 13.2406 19.7727 13.3233 20.0484C13.3623 20.004 13.4064 19.9643 13.4547 19.9301C13.5451 19.8649 13.6562 19.8072 13.7731 19.7615L13.8333 19.7378V19.8027V19.8027Z" fill="black"/>
<path d="M28.6812 22.7362V20.8527C28.7429 20.613 28.9464 20.4006 29.0994 20.3583V18.7002L28.7549 18.8865L28.3613 20.6199V22.7362H28.6812Z" fill="white"/>
<path d="M28.6369 22.6892V20.8449L28.6384 20.8387C28.6696 20.7175 28.7347 20.6032 28.8115 20.5122C28.8868 20.4233 28.9747 20.3555 29.0552 20.3237V18.7711L28.7932 18.913L28.4053 20.6212V22.6889L28.6369 22.6892ZM28.7253 20.8547V22.7773L28.3169 22.7771V20.6126C28.4493 20.0263 28.582 19.4402 28.716 18.8542L29.1436 18.623V20.3886L29.1111 20.3976C29.0395 20.4176 28.9535 20.4811 28.8789 20.5695C28.811 20.6496 28.7535 20.7495 28.7253 20.8547V20.8547Z" fill="black"/>
<path d="M28.6812 22.7368V20.846C28.7429 20.606 28.9464 20.394 29.0994 20.3516V18.5781C28.868 18.5781 28.7549 18.8798 28.7549 18.8798L28.3613 20.613V22.722L28.6812 22.7368V22.7368Z" fill="white"/>
<path d="M28.6369 22.6947V20.8452L28.6384 20.8392C28.6696 20.7178 28.7347 20.6036 28.8115 20.5127C28.8868 20.4235 28.9747 20.3557 29.0552 20.324V18.6312C28.8953 18.6642 28.8082 18.869 28.7969 18.8972L28.4053 20.6216V22.6839L28.6369 22.6947V22.6947ZM28.7253 20.8549V22.7871L28.3169 22.7684V20.6129C28.4096 20.2026 28.582 19.1984 28.7138 18.8675C28.714 18.8667 28.8372 18.5381 29.0993 18.5381H29.1436V20.3891L29.1111 20.3981C29.0395 20.4179 28.9535 20.4816 28.8789 20.5697C28.811 20.6501 28.7535 20.7497 28.7253 20.8549V20.8549Z" fill="black"/>
<path d="M28.9258 23.2226C28.7664 23.1507 28.5342 22.9537 28.5342 22.7553V20.4013L28.6436 20.207H24.633L24.7896 20.4013V22.7553C24.7896 22.9537 24.6303 23.1507 24.4707 23.2226H28.9258Z" fill="white"/>
<path d="M28.7665 23.1759C28.7088 23.1341 28.6562 23.0856 28.6099 23.0314C28.5401 22.948 28.4908 22.8513 28.4908 22.7526V20.3872L28.569 20.2485H24.7261L24.8347 20.3831V22.7526C24.8347 22.8563 24.7957 22.9587 24.7361 23.0458C24.7031 23.0941 24.664 23.1377 24.6197 23.1758L28.7665 23.1759V23.1759ZM28.6776 22.9747C28.7545 23.0663 28.8607 23.1418 28.9448 23.1798L29.1316 23.2642L24.2666 23.2639L24.4533 23.1798C24.53 23.145 24.6071 23.0783 24.6631 22.9962C24.7133 22.9228 24.7463 22.8373 24.7463 22.7526V20.4142L24.5417 20.1604C25.9345 20.1604 27.327 20.1599 28.7198 20.1604L28.5795 20.4101V22.7526C28.5795 22.8283 28.6199 22.9057 28.6776 22.9747V22.9747Z" fill="black"/>
<path d="M25.2819 23.2226C25.4413 23.1507 25.6732 22.9537 25.6732 22.7553V20.5164L25.3399 20.207H28.0663L27.7329 20.5167V22.7553C27.7329 22.9537 27.9651 23.1507 28.1244 23.2226H25.2819V23.2226Z" fill="white"/>
<path d="M25.2626 23.1798C25.3468 23.1418 25.4529 23.0663 25.5299 22.9747C25.5875 22.9058 25.628 22.8284 25.628 22.7527V20.5331L25.2262 20.1602H28.1778L27.776 20.5331V22.7527C27.776 22.8284 27.8164 22.9058 27.8744 22.9747C27.9513 23.0663 28.0572 23.1418 28.1416 23.1798L28.3286 23.2642H25.0756L25.2626 23.1798V23.1798ZM25.5976 23.0314C25.5513 23.0856 25.4988 23.134 25.4411 23.1758H27.9628C27.9052 23.1339 27.8527 23.0855 27.8064 23.0314C27.7368 22.948 27.6876 22.8513 27.6876 22.7527V20.4948L27.9528 20.2486H25.4512L25.7167 20.4948V22.7527C25.7167 22.8513 25.6674 22.948 25.5976 23.0314V23.0314Z" fill="black"/>
<path d="M25.6626 23.2217C25.8218 23.1498 26.0541 22.9527 26.0541 22.7544V20.7305L25.8356 20.4209H27.5681L27.3495 20.7305V22.7546C27.3495 22.9527 27.5818 23.1498 27.7411 23.2217H25.6626V23.2217Z" fill="white"/>
<path d="M25.6442 23.1828C25.7283 23.1448 25.8345 23.0693 25.9114 22.9777C25.9691 22.9088 26.0097 22.8314 26.0097 22.7556V20.7456L25.7503 20.3779H27.6531L27.3936 20.7458V22.7559C27.3936 22.8314 27.4342 22.9088 27.4919 22.9777C27.5688 23.0693 27.675 23.1448 27.7592 23.1828L27.946 23.2672L25.4573 23.2669L25.6442 23.1828V23.1828ZM25.979 23.0344C25.9334 23.0889 25.8784 23.1383 25.8225 23.179H27.5808C27.5231 23.1372 27.4705 23.0886 27.4243 23.0344C27.3544 22.951 27.3051 22.8545 27.3051 22.7559V20.7181L27.4825 20.4663H25.9208L26.0981 20.7178V22.7556C26.0981 22.8543 26.049 22.951 25.979 23.0344V23.0344Z" fill="black"/>
<path d="M27.1164 20.4238H26.2887V23.2244H27.1164V20.4238Z" fill="white"/>
<path d="M27.072 20.4693H26.3328V23.1814H27.072V20.4693ZM26.2885 20.3809H27.1604V23.2698H26.2441V20.3809H26.2885V20.3809Z" fill="black"/>
<path d="M28.243 21.2035H27.9123V22.7234H28.243V21.2035ZM25.4095 21.2035H25.0788V22.7234H25.4095V21.2035ZM28.5249 18.6399H28.1268V20.198H28.5249V18.6399V18.6399ZM28.5249 18.3467H28.129V18.6362H28.5249V18.3467Z" fill="white"/>
<path d="M28.1975 21.2469H27.9555V22.6784H28.1975V21.2469ZM27.911 21.1585H28.2417L28.2859 21.2027V22.7226L28.2417 22.7668H27.911L27.8669 22.7226V21.2027L27.911 21.1585ZM25.3637 21.2469H25.1219V22.6784H25.3637V21.2469ZM25.0775 21.1585H25.4082L25.4523 21.2027V22.7226L25.4082 22.7668H25.0775L25.0333 22.7226V21.2027L25.0775 21.1585ZM28.4794 18.6834H28.1697V20.153H28.4794V18.6834V18.6834ZM28.0813 18.6391L28.0844 18.6358L28.0836 18.6354V18.3459L28.1278 18.3018H28.5236L28.5678 18.3459V18.6354L28.5659 18.6372L28.5678 18.6391V20.1972L28.5236 20.2414H28.1256L28.0813 20.1972V18.6391V18.6391ZM28.4794 18.3902H28.172V18.5909H28.4794V18.3902Z" fill="black"/>
<path d="M25.2499 18.9746H24.6823V20.1776L25.2499 20.1773V18.9746Z" fill="white"/>
<path d="M25.2022 19.0212H24.73V20.1287H25.2022V19.0212V19.0212ZM24.6823 18.9258H25.2499L25.2977 18.9735V20.1762L25.2499 20.2236L24.6823 20.2239L24.6346 20.1764V18.9735L24.6823 18.9258Z" fill="black"/>
<path d="M28.1326 20.1833V17.5166C28.0192 17.5166 28.0017 17.9074 27.7413 17.9074C27.6057 17.9074 27.6201 17.7456 27.696 17.6137C27.7635 17.4968 27.8469 17.3356 27.7335 17.0351C27.6558 17.2649 27.4468 17.338 27.4855 17.1937C27.5517 16.9459 27.743 16.9052 27.5997 16.5209C27.5499 16.8415 27.3442 16.8273 27.3941 16.6411C27.4504 16.431 27.5667 16.3448 27.4231 16.0486C27.3427 16.385 27.234 16.3653 27.234 16.1565C27.234 15.8481 27.2458 15.5154 26.8467 15.3921C26.8467 15.3921 26.8237 15.1094 26.6799 15.1094C26.5361 15.1094 26.5128 15.3921 26.5128 15.3921C26.1138 15.5157 26.1254 15.8484 26.1254 16.1565C26.1254 16.3653 26.0168 16.385 25.9364 16.0486C25.7928 16.3448 25.9092 16.431 25.9654 16.6411C26.0155 16.8273 25.8098 16.8415 25.7601 16.5209C25.6165 16.9052 25.8075 16.9459 25.8742 17.1937C25.9127 17.338 25.7036 17.2649 25.626 17.0351C25.5126 17.3356 25.596 17.4968 25.6634 17.6137C25.7396 17.7454 25.7541 17.9074 25.6185 17.9074C25.358 17.9074 25.3405 17.5166 25.2269 17.5166V20.1833H28.1326V20.1833ZM28.7562 18.1689V20.2035H28.5246V18.1639C28.6081 18.1217 28.6865 18.1152 28.7562 18.1689V18.1689Z" fill="white"/>
<path d="M28.0882 20.1422V17.6202C28.0798 17.6363 28.0708 17.6554 28.061 17.6751C28.0011 17.7989 27.9256 17.9547 27.7411 17.9547C27.7099 17.9547 27.6837 17.9478 27.6619 17.9353C27.6384 17.9218 27.6199 17.9011 27.6092 17.8762C27.5991 17.8521 27.5941 17.8263 27.5945 17.8002C27.5945 17.738 27.6187 17.6624 27.6577 17.595C27.6894 17.5397 27.7251 17.4743 27.7388 17.3894C27.7493 17.3262 27.7481 17.251 27.7254 17.1589C27.6822 17.2286 27.6287 17.276 27.5833 17.2982C27.561 17.3092 27.5393 17.315 27.5201 17.3152C27.4938 17.3152 27.4717 17.3062 27.4559 17.2872C27.4369 17.2648 27.4307 17.2305 27.4427 17.1856C27.4649 17.1022 27.4999 17.042 27.5326 16.9853C27.5807 16.9019 27.6242 16.8267 27.5993 16.6844C27.573 16.7423 27.54 16.7801 27.5083 16.8003C27.4844 16.8155 27.4597 16.822 27.4367 16.8202C27.4239 16.8195 27.4114 16.8161 27.4 16.8103C27.3887 16.8045 27.3786 16.7964 27.3705 16.7865C27.344 16.755 27.3328 16.7014 27.3513 16.6327C27.3655 16.5797 27.3829 16.535 27.3994 16.4931C27.4364 16.3989 27.4676 16.3193 27.4292 16.1874C27.4052 16.254 27.38 16.2985 27.356 16.3232C27.3351 16.345 27.3123 16.3555 27.2893 16.3555C27.2636 16.3557 27.2417 16.343 27.2249 16.3193C27.2032 16.2888 27.1896 16.2333 27.1896 16.1596L27.1899 16.1339C27.1902 15.8487 27.1904 15.5478 26.8338 15.4374L26.8051 15.4287L26.8026 15.399C26.8026 15.3984 26.7826 15.1568 26.6797 15.1568C26.5768 15.1568 26.5566 15.3984 26.5566 15.399L26.5541 15.4287L26.5257 15.4374C26.1687 15.5478 26.1693 15.849 26.1695 16.1339V16.1596C26.1698 16.2331 26.1561 16.2886 26.1346 16.3193C26.1176 16.3432 26.0956 16.3557 26.0699 16.3557C26.0471 16.3555 26.0244 16.345 26.0032 16.3232C25.9794 16.2985 25.954 16.254 25.93 16.1874C25.8915 16.3193 25.9227 16.3989 25.9597 16.4931C25.9762 16.535 25.9939 16.5797 26.0079 16.6327C26.0264 16.7014 26.0154 16.755 25.9886 16.7865C25.9806 16.7964 25.9706 16.8044 25.9592 16.8103C25.9479 16.8161 25.9355 16.8195 25.9227 16.8202C25.8998 16.822 25.8751 16.8155 25.8508 16.8003C25.8191 16.7801 25.7864 16.7423 25.76 16.6844C25.7352 16.8267 25.7784 16.9019 25.8269 16.9855C25.8596 17.042 25.8943 17.1022 25.9165 17.1856C25.9288 17.2305 25.9222 17.2648 25.9033 17.2872C25.8876 17.3062 25.8653 17.3152 25.8393 17.3152C25.8173 17.3143 25.7957 17.3084 25.7761 17.2982C25.7307 17.276 25.677 17.2286 25.6341 17.1589C25.6111 17.2507 25.6101 17.3262 25.6203 17.3891C25.6341 17.474 25.6698 17.5397 25.7015 17.5947C25.7404 17.6624 25.7649 17.738 25.7649 17.8002C25.7649 17.8277 25.7602 17.8534 25.7502 17.8759C25.7394 17.9009 25.7209 17.9218 25.6972 17.9353C25.6757 17.9478 25.6495 17.9547 25.6184 17.9547C25.4338 17.9547 25.3581 17.7989 25.2982 17.6751C25.2885 17.6551 25.2795 17.6361 25.2707 17.6199V20.1422H28.0882V20.1422ZM28.1769 17.5198V20.2306H25.1825C25.1825 19.3123 25.182 18.3938 25.1828 17.4753H25.2267C25.2994 17.4753 25.3349 17.5487 25.3776 17.6366C25.427 17.7385 25.4889 17.8663 25.6184 17.8663C25.6305 17.8669 25.6427 17.8644 25.6536 17.8589C25.6608 17.8546 25.6664 17.848 25.6696 17.8401C25.6743 17.8296 25.6762 17.8162 25.6762 17.8002C25.6762 17.753 25.6565 17.6933 25.6253 17.6389C25.5894 17.5772 25.5497 17.5033 25.5332 17.4034C25.5169 17.3042 25.5247 17.1811 25.5846 17.0228L25.6281 16.9071L25.6675 17.0243C25.7027 17.1282 25.7657 17.1951 25.8149 17.2193C25.8214 17.2226 25.8284 17.225 25.8356 17.2266L25.8314 17.2083C25.8118 17.1359 25.7801 17.0812 25.7504 17.0298C25.6767 16.9021 25.6129 16.7917 25.7185 16.5085L25.7774 16.3507L25.8034 16.5173C25.8222 16.6372 25.8616 16.7026 25.898 16.7256C25.9055 16.7303 25.912 16.7326 25.9167 16.7321C25.9177 16.7321 25.9186 16.7319 25.9194 16.7315C25.9202 16.7311 25.9209 16.7305 25.9215 16.7298C25.9308 16.7186 25.9327 16.6936 25.9227 16.6556C25.9098 16.6072 25.8931 16.565 25.8776 16.5251C25.8231 16.3864 25.7792 16.2745 25.8965 16.0328L25.9505 15.9217L25.9793 16.0418C26.0084 16.164 26.0397 16.2338 26.0664 16.2616C26.0756 16.2428 26.0811 16.2081 26.0811 16.1596L26.0814 16.1339C26.0811 15.8243 26.0809 15.4978 26.4722 15.3622C26.4837 15.2826 26.5289 15.0684 26.6797 15.0684C26.8305 15.0684 26.8755 15.2826 26.8872 15.3622C27.2786 15.4978 27.2783 15.8243 27.278 16.1339V16.1596C27.278 16.2079 27.2838 16.2426 27.2931 16.2616C27.3198 16.2336 27.3511 16.1637 27.3802 16.0415L27.4089 15.9217L27.4626 16.0326C27.58 16.2745 27.5361 16.3864 27.4816 16.5251C27.4662 16.565 27.4494 16.6072 27.4367 16.6556C27.4264 16.6936 27.4287 16.7186 27.4379 16.7296C27.4392 16.7311 27.4409 16.7321 27.4424 16.7321C27.4472 16.7326 27.4537 16.7303 27.4614 16.7256C27.4978 16.7023 27.5373 16.6372 27.556 16.5173L27.5817 16.3505L27.6407 16.5085C27.7464 16.7917 27.6827 16.9021 27.6087 17.0295C27.579 17.0812 27.5473 17.1359 27.5281 17.2083L27.5238 17.2266C27.5293 17.2255 27.5363 17.2231 27.5445 17.2193C27.5935 17.1951 27.6567 17.1282 27.6916 17.0243L27.7311 16.9071L27.7748 17.0228C27.8345 17.1811 27.8422 17.3042 27.826 17.4034C27.8098 17.5033 27.7698 17.5769 27.7341 17.6386C27.7026 17.6933 27.6829 17.753 27.6829 17.8002C27.6829 17.8162 27.6852 17.8299 27.6896 17.8401C27.6928 17.848 27.6985 17.8546 27.7058 17.8589C27.7168 17.8644 27.7289 17.867 27.7411 17.8663C27.8702 17.8663 27.9324 17.7385 27.9815 17.6366C28.0243 17.5487 28.0598 17.4753 28.1325 17.4753H28.1769V17.5198V17.5198ZM28.8003 18.1721V20.2508H28.4803V18.1398L28.5048 18.1276C28.5522 18.1036 28.5992 18.0897 28.6454 18.0897C28.6953 18.0894 28.7439 18.1061 28.783 18.1371L28.8003 18.1506V18.1721V18.1721ZM28.7118 20.1624V18.1953C28.6918 18.1836 28.6689 18.1775 28.6457 18.1776C28.6193 18.1785 28.5932 18.1844 28.569 18.195V20.1624H28.7118V20.1624Z" fill="black"/>
<path d="M28.747 19.4876C28.4604 19.6342 28.1762 19.8041 28.1043 20.2057H28.747V19.4876V19.4876ZM24.7693 18.8785V20.2062H24.5817V18.8753C24.6404 18.8478 24.7203 18.8436 24.7693 18.8785Z" fill="white"/>
<path d="M28.7038 19.5615C28.5858 19.6243 28.4714 19.6934 28.3767 19.7841C28.2685 19.886 28.1928 20.0178 28.1594 20.1627H28.7038V19.5615V19.5615ZM28.3156 19.7204C28.4353 19.6055 28.5815 19.5246 28.7281 19.4497L28.7923 19.4167V20.2513H28.0526L28.062 20.1991C28.0998 19.9879 28.1934 19.8373 28.3156 19.7204V19.7204ZM24.8144 18.8798V20.2516H24.5385V18.8486L24.5643 18.8366C24.6004 18.8196 24.6439 18.8099 24.6853 18.8106C24.7255 18.8113 24.7648 18.8216 24.7957 18.8438L24.8144 18.8574V18.8798V18.8798ZM24.726 20.1632V18.906C24.7124 18.9013 24.6982 18.8988 24.6838 18.8987C24.6645 18.8985 24.6453 18.9013 24.6269 18.9068V20.1632H24.726Z" fill="black"/>
<path d="M24.5817 19.4775C24.8687 19.6244 25.1527 19.794 25.2246 20.1958H24.5817V19.4775Z" fill="white"/>
<path d="M24.6029 19.438C24.7493 19.5129 24.8954 19.5941 25.0152 19.709C25.1374 19.8259 25.231 19.9762 25.2689 20.1877L25.2783 20.2396H24.5385V19.4053L24.6029 19.438V19.438ZM24.9541 19.7724C24.8594 19.6817 24.745 19.6126 24.6271 19.5498V20.1512H25.1713C25.1379 20.0063 25.0623 19.8745 24.9541 19.7724V19.7724Z" fill="black"/>
<path d="M26.479 16.3746L26.3119 16.2342V16.0542C26.3731 16.0602 26.4063 16.0812 26.4515 16.1406C26.49 16.0212 26.5744 15.9281 26.6876 15.8701C26.8009 15.9281 26.8853 16.017 26.9238 16.1363C26.969 16.077 27.0022 16.0602 27.0633 16.0542V16.2342L26.8963 16.3746H26.479Z" fill="white"/>
<path d="M26.4512 16.4157L26.2684 16.2619V16.0129L26.3166 16.0176C26.3541 16.0214 26.3838 16.0301 26.4115 16.0474C26.4205 16.0529 26.4292 16.0593 26.4378 16.0666C26.4565 16.0289 26.48 15.9939 26.5076 15.9625C26.5528 15.9113 26.6073 15.8692 26.6682 15.8384L26.6882 15.8281L26.7085 15.8384C26.7695 15.869 26.8242 15.9106 26.87 15.9612C26.8973 15.992 26.9205 16.0262 26.9392 16.0634C26.948 16.0561 26.9569 16.0498 26.9664 16.0444C26.9939 16.0286 27.0231 16.0214 27.06 16.0179L27.1083 16.0131V16.2619L26.913 16.4262H26.4637L26.4512 16.4157V16.4157ZM26.3568 16.2212L26.4957 16.3381H26.881L27.0199 16.2212V16.1163L27.0101 16.1211C26.9941 16.1303 26.9784 16.1458 26.9595 16.1705L26.9085 16.2377L26.8825 16.1573C26.8662 16.1064 26.8395 16.0596 26.8041 16.0196C26.7708 15.9829 26.7316 15.9518 26.6882 15.9278C26.6452 15.9521 26.6066 15.9834 26.5739 16.0204C26.538 16.0615 26.5109 16.1094 26.4942 16.1613L26.4682 16.2419L26.4172 16.1747C26.3977 16.1492 26.3818 16.1325 26.3653 16.1223L26.3568 16.1175V16.2212V16.2212Z" fill="black"/>
<path d="M26.3896 16.8311L26.3119 16.6627V16.4287C26.3731 16.435 26.4065 16.4562 26.4518 16.5164C26.49 16.3953 26.5746 16.3009 26.6878 16.2422C26.8009 16.3009 26.8856 16.3911 26.924 16.5119C26.969 16.452 27.0024 16.435 27.0636 16.4287V16.6627L26.9859 16.8311H26.3896V16.8311Z" fill="white"/>
<path d="M26.3503 16.8476L26.2684 16.6703V16.3781L26.3169 16.3831C26.3546 16.3865 26.384 16.3955 26.412 16.413C26.421 16.4185 26.4295 16.425 26.4379 16.4322C26.4567 16.394 26.4801 16.3585 26.5076 16.3268C26.5526 16.2749 26.6071 16.2322 26.6682 16.2009L26.6885 16.1904L26.7086 16.2009C26.7699 16.2319 26.8248 16.2742 26.8703 16.3256C26.8975 16.3566 26.9207 16.391 26.9395 16.429C26.9482 16.4215 26.9569 16.4152 26.9664 16.41C26.9941 16.394 27.0231 16.3865 27.06 16.3828L27.1085 16.3781V16.6703L27.0149 16.873H26.362L26.3503 16.8476ZM26.3568 16.6512L26.4185 16.7849H26.9582L27.0201 16.6512V16.4814L27.0106 16.4864C26.9944 16.4956 26.9787 16.5114 26.9599 16.5363L26.9085 16.6045L26.8825 16.5231C26.8663 16.4716 26.8395 16.4241 26.8038 16.3836C26.7708 16.3463 26.7319 16.3148 26.6885 16.2904C26.6448 16.3158 26.606 16.3475 26.574 16.3843C26.538 16.4261 26.5109 16.4749 26.4944 16.5276L26.4685 16.609L26.417 16.5406C26.3977 16.5151 26.3818 16.4981 26.3651 16.4877L26.3568 16.4832V16.6512V16.6512Z" fill="black"/>
<path d="M26.378 17.4345L26.1298 17.1315V16.8329C26.2206 16.8431 26.27 16.8791 26.3373 16.9807C26.3942 16.7759 26.5199 16.7312 26.6879 16.6318C26.856 16.7312 26.9816 16.7687 27.0385 16.9734C27.1058 16.8718 27.1554 16.8428 27.246 16.8329V17.1315L26.9978 17.4345H26.378V17.4345Z" fill="white"/>
<path d="M26.3439 17.4707L26.0854 17.1552V16.7916L26.1344 16.7971C26.1876 16.8031 26.229 16.8171 26.2677 16.8449C26.2872 16.8586 26.3052 16.8756 26.3234 16.8965C26.3829 16.7626 26.4791 16.7082 26.6016 16.6388L26.6878 16.5889L26.7103 16.6021C26.7383 16.6186 26.7622 16.6318 26.785 16.6445C26.9025 16.7098 26.9947 16.7612 27.0527 16.89C27.0693 16.8711 27.0883 16.8544 27.1091 16.8403C27.148 16.8147 27.189 16.8029 27.2413 16.7971L27.2902 16.7916V17.1552L27.0184 17.4869H26.3572L26.3439 17.4707V17.4707ZM26.1738 17.1243L26.3986 17.3985H26.977L27.2018 17.1243V16.894C27.1855 16.8987 27.171 16.905 27.1575 16.9138C27.131 16.9315 27.1057 16.9602 27.0754 17.0059L27.022 17.0868L26.996 16.9934C26.9528 16.8386 26.8629 16.7887 26.7422 16.7217L26.6878 16.6912L26.6451 16.7155C26.5185 16.7874 26.4241 16.8408 26.3796 17.0007L26.3537 17.0941L26.3002 17.0134C26.2698 16.9672 26.244 16.9362 26.2166 16.9168C26.2035 16.9074 26.1891 16.9 26.1738 16.895V17.1243Z" fill="black"/>
<path d="M26.3055 18.0385C26.3055 18.0385 26.0161 17.7861 25.9989 17.6475V17.328C26.111 17.3413 26.2171 17.3702 26.3 17.5016C26.3705 17.2372 26.4803 17.1632 26.6882 17.0352C26.8957 17.1632 27.0058 17.2372 27.0762 17.5016C27.1591 17.3702 27.265 17.3413 27.3771 17.328V17.6475C27.3407 17.7861 27.0707 18.0385 27.0707 18.0385H26.3055Z" fill="white"/>
<path d="M26.2772 18.0672C26.2761 18.0664 25.975 17.8035 25.9555 17.6483C25.9438 17.5527 25.9553 17.3814 25.9553 17.2738L26.0045 17.2795C26.0649 17.2864 26.1244 17.2982 26.1808 17.3265C26.2168 17.3441 26.2512 17.3687 26.2834 17.4026C26.3167 17.3079 26.3579 17.24 26.4108 17.1828C26.4767 17.1112 26.5586 17.059 26.6655 16.9931L26.6888 16.9785L26.7117 16.9931C26.8187 17.059 26.9005 17.1112 26.9667 17.1828C27.0194 17.24 27.0606 17.3079 27.0941 17.4026C27.1235 17.3713 27.1583 17.3455 27.1967 17.3265C27.2532 17.2982 27.3124 17.2864 27.3728 17.2795L27.422 17.2738V17.6481L27.4205 17.6541C27.3805 17.8054 27.1023 18.0651 27.1015 18.0659L27.0889 18.0782H26.2897L26.2772 18.0672V18.0672ZM26.0437 17.6396C26.0597 17.7467 26.2692 17.9415 26.3227 17.9897H27.0537C27.1059 17.9395 27.2998 17.7472 27.3336 17.6371V17.3746C27.2998 17.3803 27.267 17.3906 27.2361 17.4054C27.192 17.4273 27.1508 17.4626 27.1141 17.5205L27.0601 17.6059L27.0341 17.508C27.001 17.3836 26.959 17.3047 26.9016 17.2425C26.8478 17.1841 26.7781 17.1379 26.6888 17.0822C26.5994 17.1379 26.5294 17.1841 26.4757 17.2425C26.4183 17.3047 26.3764 17.3836 26.3431 17.508L26.3172 17.6059L26.2632 17.5205C26.2267 17.4626 26.1855 17.4273 26.1413 17.4054C26.1103 17.3907 26.0775 17.3803 26.0437 17.3746V17.6396V17.6396Z" fill="black"/>
<path d="M26.1799 19.1502C26.1799 19.1502 25.7836 18.7114 25.7746 18.5406V18.0424C25.923 18.0631 26.0631 18.165 26.1727 18.3695C26.2659 17.9572 26.4115 17.6698 26.686 17.4697C26.9607 17.6698 27.1062 17.9572 27.1991 18.3695C27.309 18.165 27.4491 18.0628 27.5975 18.0424V18.5406C27.569 18.7114 27.1919 19.1502 27.1919 19.1502H26.1799Z" fill="white"/>
<path d="M26.1486 19.1738C26.1476 19.1727 25.7416 18.7229 25.7316 18.5367C25.7188 18.3727 25.7316 18.1572 25.7316 17.9859L25.7817 17.9926C25.8659 18.0043 25.9478 18.0398 26.0235 18.1019C26.0705 18.1404 26.1149 18.1894 26.1563 18.2495C26.1998 18.0837 26.2538 17.9392 26.3239 17.8125C26.4094 17.6587 26.5185 17.5321 26.6611 17.4282L26.6871 17.4092L26.713 17.4282C26.8556 17.5321 26.965 17.6587 27.0504 17.8125C27.1206 17.9392 27.1745 18.0837 27.218 18.2495C27.2595 18.1894 27.3039 18.1404 27.3509 18.1018C27.4265 18.0398 27.5082 18.0043 27.5926 17.9926L27.6428 17.9859C27.6428 18.1257 27.661 18.4281 27.6421 18.5416C27.6115 18.7246 27.2275 19.1719 27.2265 19.1731L27.2133 19.1884H26.1621L26.1486 19.1738V19.1738ZM25.82 18.5343C25.83 18.6744 26.1337 19.0245 26.2006 19.0999H27.1727C27.238 19.0225 27.5267 18.6744 27.5544 18.5311V18.0908C27.5002 18.1066 27.45 18.1336 27.4068 18.1699C27.3461 18.2196 27.2894 18.2906 27.2392 18.3842L27.1832 18.4886L27.1573 18.3732C27.1116 18.1711 27.0534 17.9998 26.9733 17.8555C26.8993 17.7221 26.8064 17.611 26.6871 17.5188C26.5679 17.611 26.475 17.7221 26.4008 17.8555C26.321 17.9998 26.2625 18.1711 26.2168 18.3732L26.1908 18.4886L26.1348 18.3842C26.0847 18.2906 26.028 18.2199 25.9675 18.1699C25.9244 18.1336 25.8741 18.1066 25.82 18.0908V18.5343Z" fill="black"/>
<path d="M26.1799 19.7991C26.1799 19.7991 25.8414 19.4542 25.7746 19.3046V18.8064C25.923 18.8269 26.0631 18.929 26.1727 19.1336C26.2659 18.7212 26.4115 18.4852 26.686 18.2852C26.9607 18.4852 27.1062 18.7212 27.1991 19.1336C27.309 18.929 27.4491 18.8269 27.5975 18.8064V19.3046C27.5115 19.4542 27.1919 19.7991 27.1919 19.7991H26.1799Z" fill="white"/>
<path d="M26.1501 19.8352C26.1491 19.8342 25.8063 19.4855 25.736 19.3282L25.7323 19.3192V18.7612L25.7825 18.7683C25.8667 18.78 25.9485 18.8152 26.0243 18.8774C26.0753 18.9203 26.12 18.9702 26.1571 19.0255C26.2008 18.8629 26.255 18.7286 26.3254 18.6124C26.4111 18.4716 26.52 18.3584 26.6618 18.2551L26.6878 18.2363L26.7137 18.2551C26.8558 18.3584 26.9647 18.4716 27.0501 18.6124C27.1205 18.7286 27.175 18.8629 27.2185 19.0255C27.2558 18.9702 27.3006 18.9203 27.3516 18.8774C27.4273 18.8152 27.5089 18.7798 27.5933 18.7683L27.6435 18.7612V19.3214L27.6376 19.3319C27.5483 19.487 27.2275 19.8329 27.2267 19.8339L27.2135 19.8489H26.1633L26.1501 19.8352V19.8352ZM25.8207 19.3005C25.8839 19.4293 26.1391 19.697 26.2003 19.7602H27.1745C27.2347 19.6948 27.4755 19.4291 27.5551 19.2984V18.8661C27.501 18.8822 27.4508 18.9091 27.4076 18.9453C27.3468 18.9952 27.2901 19.066 27.24 19.1599L27.184 19.264L27.158 19.1489C27.1126 18.9474 27.0546 18.7892 26.975 18.6581C26.9011 18.5365 26.8079 18.4369 26.6878 18.3457C26.5679 18.4369 26.4747 18.5365 26.4008 18.6581C26.3212 18.7892 26.2632 18.9474 26.2176 19.1489L26.1916 19.2642L26.1356 19.1599C26.0854 19.0662 26.0287 18.9952 25.9683 18.9456C25.925 18.9093 25.8748 18.8823 25.8207 18.8661V19.3005V19.3005Z" fill="black"/>
<path d="M26.0453 20.18C26.1442 19.75 26.2293 19.4311 26.7053 19.1074C27.1816 19.4308 27.2665 19.75 27.3654 20.18H26.0453Z" fill="white"/>
<path d="M26.0018 20.1678C26.0517 19.9498 26.0986 19.7597 26.1943 19.5807C26.2907 19.4006 26.4353 19.2348 26.68 19.0685L26.7047 19.0518L26.7295 19.0685C26.9743 19.2348 27.1188 19.4006 27.2152 19.5807C27.3109 19.7597 27.3578 19.9498 27.4077 20.1678L27.4203 20.222H25.9892L26.0018 20.1678V20.1678ZM26.2722 19.6222C26.1896 19.7765 26.1446 19.9438 26.1004 20.1334H27.3094C27.2649 19.9438 27.22 19.7762 27.1373 19.6222C27.0509 19.4604 26.9213 19.31 26.7047 19.1584C26.4883 19.31 26.3589 19.4604 26.2722 19.6222Z" fill="black"/>
<path d="M25.7999 20.4225V19.7993C26.0159 19.884 26.2115 20.0094 26.2834 20.149C26.3641 19.8031 26.5192 19.6507 26.7122 19.4414C26.9055 19.6507 27.0348 19.8031 27.1156 20.149C27.1875 20.0094 27.3827 19.884 27.599 19.7993V20.4225H25.7999V20.4225Z" fill="white"/>
<path d="M25.7556 20.4258V19.7378L25.8161 19.7615C25.9326 19.8072 26.0441 19.8649 26.1342 19.9301C26.1854 19.967 26.2298 20.0067 26.2656 20.0484C26.3483 19.7727 26.4835 19.6266 26.6489 19.4486L26.7126 19.3799L26.7448 19.4148C26.843 19.521 26.9249 19.6131 26.9938 19.724C27.05 19.815 27.0964 19.9171 27.1341 20.0479C27.1696 20.0062 27.2141 19.9667 27.265 19.9301C27.3554 19.8646 27.4665 19.8072 27.5832 19.7615L27.6433 19.7378V20.47H25.7556V20.4258V20.4258ZM25.8442 19.8686V20.3816H27.5549V19.8686C27.467 19.9071 27.3851 19.952 27.3167 20.0015C27.243 20.0547 27.1856 20.1126 27.1549 20.1725L27.0997 20.2792L27.0725 20.1623C27.0335 19.9945 26.9828 19.8738 26.9186 19.7705C26.8619 19.6786 26.7932 19.5984 26.7124 19.5097C26.5388 19.697 26.3999 19.8474 26.3268 20.162L26.2995 20.2792L26.2444 20.1725C26.2136 20.1126 26.1561 20.0547 26.0827 20.0017C26.0139 19.952 25.9319 19.9071 25.8442 19.8686Z" fill="black"/>
<path d="M8.48967 25.5029H31.0964V26.6574H8.48967V25.5029Z" fill="white"/>
<path d="M8.49055 25.4561H31.1414V26.6993H8.4463V25.4561H8.49055ZM31.053 25.5445H8.53496V26.6106H31.053V25.5445V25.5445Z" fill="black"/>
<path d="M7.89323 26.6531H31.6911V27.8062L7.89323 27.8059V26.6531V26.6531ZM9.67608 23.7734H29.908V24.5208H9.67608V23.7734Z" fill="white"/>
<path d="M7.89221 26.6102H31.7344V27.8514C23.7723 27.8514 15.8099 27.8576 7.84772 27.8514V26.6102H7.89221V26.6102ZM31.646 26.6986H7.93646V27.7632H31.646V26.6986ZM9.67506 23.7305H29.9513V24.5664H9.6309V23.7305H9.67506ZM29.8629 23.8189H9.7193V24.4777H29.8629V23.8189Z" fill="black"/>
<path d="M9.08504 24.5102H30.5002V25.4891H9.08504V24.5102ZM10.0301 23.1943H29.5552V23.7632H10.0301V23.1943Z" fill="white"/>
<path d="M9.08486 24.4653H30.5442V25.5326H9.04062V24.4653H9.08486ZM30.4558 24.5539H9.12902V25.4442H30.4558V24.5539ZM10.0299 23.1494H29.5992V23.807H9.98563V23.1494H10.0299ZM29.5108 23.2381H10.074V23.7183H29.5108V23.2381Z" fill="black"/>
<path d="M12.1497 23.1992H13.6245V27.8006H12.1497V23.1992Z" fill="white"/>
<path d="M12.1493 23.1465H13.6723V27.8441H12.1011V23.1465H12.1493V23.1465ZM13.5758 23.2427H12.1975V27.748H13.5758V23.2427Z" fill="black"/>
<path d="M12.4754 23.1992H13.2971V27.8009H12.4754V23.1992Z" fill="white"/>
<path d="M12.4761 23.1465H13.3459V27.8441H12.4279V23.1465H12.4761ZM13.2498 23.2427H12.524V27.748H13.2498V23.2427Z" fill="black"/>
<path d="M19.0309 23.1992H20.5058V27.8006H19.0312L19.0309 23.1992Z" fill="white"/>
<path d="M19.0295 23.1465H20.5526V27.8441H18.9818C18.9805 26.2782 18.9815 24.7123 18.9815 23.1465H19.0295ZM20.4565 23.2427H19.0775L19.0776 27.748H20.4565V23.2427Z" fill="black"/>
<path d="M19.3682 23.1992H20.1899V27.8009H19.3682V23.1992Z" fill="white"/>
<path d="M19.3666 23.1465H20.2365V27.8441H19.3186V23.1465H19.3666ZM20.1403 23.2427H19.4148V27.748H20.1403V23.2427Z" fill="black"/>
<path d="M25.9523 23.1992H27.4273V27.8006H25.9523V23.1992Z" fill="white"/>
<path d="M25.9516 23.1465H27.4748V27.8441H25.9037V23.1465H25.9516ZM27.3783 23.2427H25.9998V27.748H27.3783V23.2427Z" fill="black"/>
<path d="M26.2779 23.1992H27.0996V27.8009H26.2779V23.1992Z" fill="white"/>
<path d="M26.2787 23.1465H27.1483V27.8441H26.2305V23.1465H26.2787ZM27.0522 23.2427H26.3267V27.748H27.0522V23.2427Z" fill="black"/>
<path d="M10.9082 22.6826H28.6992V22.771H10.9082V22.6826ZM12.4614 27.1739H13.3132V27.2623H12.4614V27.1739ZM12.4614 26.598H13.3132V26.6864H12.4614V26.598ZM12.4614 26.0221H13.3132V26.1105H12.4614V26.0221ZM12.4614 25.4463H13.3132V25.5347H12.4614V25.4463ZM12.4614 24.8701H13.3132V24.9587H12.4614V24.8701ZM12.4614 24.2942H13.3132V24.3828H12.4614V24.2942ZM12.4614 23.7183H13.3132V23.8067H12.4614V23.7183ZM19.3706 27.1749H20.1638V27.2633H19.3706V27.1749ZM19.3706 26.5985H20.1638V26.6872H19.3706V26.5985ZM19.3706 26.0224H20.1638V26.1108H19.3706V26.0224ZM19.3706 25.4463H20.1638V25.5347H19.3706V25.4463ZM19.3706 24.8698H20.1638V24.9585H19.3706V24.8698ZM19.3706 24.2937H20.1638V24.3821H19.3706V24.2937ZM19.3706 23.7176H20.1638V23.806H19.3706V23.7176ZM26.2633 27.1739H27.1149V27.2623H26.2633V27.1739ZM26.2633 26.598H27.1149V26.6864H26.2633V26.598ZM26.2633 26.0221H27.1149V26.1105H26.2633V26.0221ZM26.2633 25.4463H27.1149V25.5347H26.2633V25.4463ZM26.2633 24.8701H27.1149V24.9587H26.2633V24.8701ZM26.2633 24.2942H27.1149V24.3828H26.2633V24.2942ZM26.2633 23.7183H27.1149V23.8067H26.2633V23.7183Z" fill="black"/>
</svg>
