<svg clip-rule="evenodd" fill-rule="evenodd" height="512" image-rendering="optimizeQuality" shape-rendering="geometricPrecision" text-rendering="geometricPrecision" viewBox="0 0 512 512" width="512" xmlns="http://www.w3.org/2000/svg" xmlns:xodm="http://www.corel.com/coreldraw/odm/2003"><g id="Layer_x0020_1"><path d="m57.99 457.23c-15.7 0-28.6-12.77-28.75-28.47l-3.96-397.62c-.07-7.66 2.85-14.9 8.24-20.4 5.4-5.5 12.58-8.57 20.24-8.65l66.4-.66c1.59-.03 3.15.61 4.28 1.74 1.14 1.12 1.78 2.66 1.78 4.26v.38c.17 16.76 13.98 30.44 30.79 30.44l.32-.01c16.98-.16 30.66-14.12 30.49-31.1v-.31c-.04-1.6.57-3.15 1.68-4.31 1.12-1.15 2.65-1.81 4.25-1.82l66.69-.66c15.71 0 28.61 12.77 28.76 28.48l3.96 397.62c.16 15.85-12.62 28.88-28.48 29.04l-66.4.66c-1.56.02-3.12-.6-4.25-1.71-1.14-1.12-1.79-2.64-1.8-4.23-.17-16.81-13.98-30.5-30.8-30.5l-.31.01c-16.99.16-30.67 14.12-30.5 31.1.02 1.59-.6 3.13-1.71 4.26-1.12 1.14-2.64 1.79-4.23 1.8l-66.69.66zm2.56-357.45c-3.29 0-5.97-2.65-6-5.94-.03-3.31 2.63-6.03 5.94-6.06l17.07-.17h.07c3.28 0 5.96 2.65 5.99 5.94.04 3.31-2.62 6.02-5.94 6.06l-17.07.17c-.02 0-.04 0-.06 0zm24.48 227.8c-11.66 0-21.34-9.48-21.58-21.14l-3.1-154.46c-.11-5.7 2.01-11.09 5.99-15.17s9.31-6.34 15.02-6.37l151.94-.75h.11c11.66 0 21.34 9.49 21.58 21.15l3.1 154.46c.12 5.7-2.01 11.09-5.99 15.17s-9.31 6.34-15.01 6.37l-151.95.74c-.01 0-.1 0-.11 0zm148.38-185.89-152 .75c-2.46.01-4.76.99-6.48 2.75s-2.63 4.08-2.59 6.55l3.11 154.45c.1 5.18 4.4 9.4 9.58 9.4h.05l151.95-.75c2.46-.01 4.76-.99 6.48-2.75s2.63-4.09 2.59-6.55l-3.11-154.46c-.11-5.18-4.4-9.39-9.58-9.39zm7.4 227.97c-3.28 0-5.96-2.64-5.99-5.93-.04-3.32 2.62-6.03 5.93-6.06l17.08-.17h.06c3.29 0 5.97 2.64 6 5.94.03 3.31-2.63 6.02-5.94 6.05l-17.08.17c-.02 0-.04 0-.06 0zm-44.39.45c-3.28 0-5.96-2.65-6-5.94-.03-3.32 2.63-6.03 5.94-6.06l17.08-.17h.06c3.28 0 5.96 2.64 6 5.94.03 3.31-2.63 6.02-5.94 6.06l-17.08.17c-.02 0-.04 0-.06 0zm-44.39.44c-3.28 0-5.96-2.65-6-5.94-.03-3.32 2.63-6.03 5.94-6.06l17.08-.17h.06c3.28 0 5.96 2.65 5.99 5.94.04 3.31-2.62 6.02-5.93 6.06l-17.08.17c-.02 0-.04 0-.06 0zm-44.39.44c-3.28 0-5.96-2.65-6-5.94-.03-3.31 2.63-6.03 5.94-6.06l17.08-.17h.06c3.28 0 5.96 2.65 5.99 5.94.04 3.31-2.62 6.02-5.93 6.06l-17.08.17c-.02 0-.04 0-.06 0zm-44.39.44c-3.29 0-5.96-2.65-6-5.94-.03-3.31 2.63-6.03 5.94-6.06l17.08-.17h.06c3.28 0 5.96 2.65 5.99 5.94.04 3.31-2.62 6.03-5.94 6.06l-17.07.17c-.02 0-.04 0-.06 0zm174.86-273.42c-3.28 0-5.96-2.65-5.99-5.94-.04-3.31 2.62-6.02 5.94-6.05l17.07-.17h.06c3.29 0 5.97 2.64 6 5.93.03 3.32-2.63 6.03-5.94 6.06l-17.08.17c-.02 0-.04 0-.06 0zm-44.39.44c-3.28 0-5.96-2.64-6-5.94-.03-3.31 2.63-6.02 5.94-6.05l17.08-.17h.06c3.28 0 5.96 2.64 6 5.94.03 3.31-2.63 6.02-5.94 6.05l-17.08.17c-.02 0-.04 0-.06 0zm-44.39.45c-3.29 0-5.96-2.65-6-5.94-.03-3.32 2.63-6.03 5.94-6.06l17.08-.17c3.35-.06 6.02 2.62 6.05 5.94.04 3.31-2.62 6.02-5.93 6.06l-17.08.17c-.02 0-.04 0-.06 0zm-44.39.44c-3.29 0-5.97-2.65-6-5.94-.03-3.32 2.63-6.03 5.94-6.06l17.08-.17c3.28-.07 6.02 2.63 6.05 5.94.04 3.31-2.62 6.02-5.94 6.06l-17.07.17c-.02 0-.04 0-.06 0z"/><path d="m262.48 511.96c-4.88 0-9.69-1.25-14.04-3.7l-57.83-32.63c-1.39-.78-2.41-2.08-2.83-3.62-.43-1.53-.23-3.17.55-4.56.36-.64.7-1.29 1.02-1.95 2.74 1.55 5.87 2.37 9.05 2.34l66.4-.66c22.48-.22 40.58-18.68 40.36-41.16l-3.96-397.62c-.05-5.14-1.06-10.06-2.86-14.6l51.82 29.24c1.39.78 2.42 2.1 2.84 3.64.42 1.55.2 3.2-.6 4.59l-.19.32c-4.01 7.11-5.02 15.42-2.81 23.35s7.37 14.52 14.54 18.56c7.16 4.04 15.47 5.06 23.4 2.85s14.52-7.38 18.56-14.54l.16-.29c.77-1.4 2.07-2.43 3.61-2.87s3.19-.24 4.59.55l57.84 32.63c13.81 7.79 18.71 25.37 10.91 39.18l-195.38 346.33c-3.77 6.67-9.92 11.48-17.34 13.55-2.58.71-5.2 1.07-7.81 1.07z"/></g></svg>